<svg width="16" height="16" viewBox="0 0 16 16" fill="none" xmlns="http://www.w3.org/2000/svg">
<path d="M8.84984 1.5914L10.2068 5.25823C10.2987 5.50622 10.4938 5.70126 10.7418 5.79321L14.4086 7.15017C15.1971 7.44273 15.1971 8.55727 14.4086 8.84984L10.7418 10.2068C10.4938 10.2987 10.2987 10.4938 10.2068 10.7418L8.84984 14.4086C8.55727 15.1971 7.44273 15.1971 7.15016 14.4086L5.79321 10.7418C5.70126 10.4938 5.50622 10.2987 5.25823 10.2068L1.5914 8.84984C0.802866 8.55727 0.802866 7.44273 1.5914 7.15017L5.25823 5.79321C5.50622 5.70126 5.70126 5.50622 5.79321 5.25823L7.15016 1.5914C7.44273 0.802866 8.55727 0.802866 8.84984 1.5914Z" fill="#333333"/>
</svg>
