<svg width="16" height="16" viewBox="0 0 16 16" fill="none" xmlns="http://www.w3.org/2000/svg">
<path fill-rule="evenodd" clip-rule="evenodd" d="M12.1378 1.63086C11.368 1.63086 10.7439 2.25494 10.7439 3.02479V3.8022C10.7439 4.57204 11.368 5.19613 12.1378 5.19613H12.9208C13.6907 5.19613 14.3148 4.57204 14.3148 3.8022V3.02479C14.3148 2.25494 13.6907 1.63086 12.9208 1.63086H12.1378ZM6.1801 3.02843C6.1801 2.25858 6.80418 1.6345 7.57403 1.6345H8.35704C9.12688 1.6345 9.75097 2.25858 9.75097 3.02843V3.80584C9.75097 4.57568 9.12688 5.19977 8.35704 5.19977H7.57403C6.80418 5.19977 6.1801 4.57568 6.1801 3.80584V3.02843ZM1.61523 3.02844C1.61523 2.25859 2.23932 1.63451 3.00917 1.63451H3.79218C4.56202 1.63451 5.18611 2.25859 5.18611 3.02844V3.80584C5.18611 4.57569 4.56202 5.19978 3.79218 5.19978H3.00917C2.23932 5.19978 1.61523 4.57569 1.61523 3.80584V3.02844ZM1.61523 7.55234C1.61523 6.78249 2.23932 6.15841 3.00917 6.15841H3.79218C4.56202 6.15841 5.18611 6.78249 5.18611 7.55234V8.32974C5.18611 9.09959 4.56202 9.72367 3.79218 9.72367H3.00917C2.23932 9.72367 1.61523 9.09959 1.61523 8.32974V7.55234ZM3.00917 10.686C2.23932 10.686 1.61523 11.31 1.61523 12.0799V12.8573C1.61523 13.6271 2.23932 14.2512 3.00917 14.2512H3.79218C4.56202 14.2512 5.18611 13.6271 5.18611 12.8573V12.0799C5.18611 11.31 4.56202 10.686 3.79218 10.686H3.00917ZM7.57403 6.15841C6.80418 6.15841 6.1801 6.78249 6.1801 7.55234V8.32974C6.1801 9.09959 6.80418 9.72367 7.57403 9.72367H8.35704C9.12688 9.72367 9.75097 9.09959 9.75097 8.32974V7.55234C9.75097 6.78249 9.12688 6.15841 8.35704 6.15841H7.57403ZM6.1801 12.0799C6.1801 11.31 6.80418 10.686 7.57403 10.686H8.35704C9.12688 10.686 9.75097 11.31 9.75097 12.0799V12.8573C9.75097 13.6271 9.12688 14.2512 8.35704 14.2512H7.57403C6.80418 14.2512 6.1801 13.6271 6.1801 12.8573V12.0799ZM12.1378 6.15841C11.368 6.15841 10.7439 6.78249 10.7439 7.55234V8.32974C10.7439 9.09959 11.368 9.72367 12.1378 9.72367H12.9208C13.6907 9.72367 14.3148 9.09959 14.3148 8.32974V7.55234C14.3148 6.78249 13.6907 6.15841 12.9208 6.15841H12.1378ZM10.7439 12.0799C10.7439 11.31 11.368 10.686 12.1378 10.686H12.9208C13.6907 10.686 14.3148 11.31 14.3148 12.0799V12.8573C14.3148 13.6271 13.6907 14.2512 12.9208 14.2512H12.1378C11.368 14.2512 10.7439 13.6271 10.7439 12.8573V12.0799Z" fill="currentColor"/>
</svg>
