<svg width="16" height="16" viewBox="0 0 16 16" fill="none" xmlns="http://www.w3.org/2000/svg">
<path d="M4.46154 3.51612C4.20047 3.25504 3.77719 3.25504 3.51612 3.51612C3.25504 3.77719 3.25504 4.20047 3.51612 4.46154L7.05452 7.99995L3.51614 11.5383C3.25506 11.7994 3.25506 12.2227 3.51614 12.4838C3.77721 12.7448 4.20049 12.7448 4.46156 12.4838L7.99995 8.94538L11.5383 12.4838C11.7994 12.7448 12.2227 12.7448 12.4838 12.4838C12.7448 12.2227 12.7448 11.7994 12.4838 11.5383L8.94537 7.99995L12.4838 4.46154C12.7449 4.20047 12.7449 3.77719 12.4838 3.51612C12.2227 3.25505 11.7994 3.25505 11.5384 3.51612L7.99995 7.05452L4.46154 3.51612Z" fill="currentColor"/>
</svg>
