<svg xmlns="http://www.w3.org/2000/svg" width="13" height="13" fill="currentColor"><path d="M8.314 10.32H4.973v.668c0 .37.3.67.669.67h5.347c.37 0 .67-.3.67-.67V5.641a.67.67 0 0 0-.67-.67h-.668V3.636h.668c1.108 0 2.006.898 2.006 2.006v5.347a2.006 2.006 0 0 1-2.006 2.006H5.642a2.006 2.006 0 0 1-2.006-2.006v-.668h-.67A2.006 2.006 0 0 1 .962 8.314V2.967C.96 1.859 1.859.96 2.967.96h5.347c1.108 0 2.006.898 2.006 2.006v5.347a2.006 2.006 0 0 1-2.006 2.006m0-1.337c.37 0 .67-.3.67-.669V2.967a.67.67 0 0 0-.67-.67H2.967a.67.67 0 0 0-.67.67v5.347c0 .37.3.67.67.67z"/></svg>