<svg xmlns="http://www.w3.org/2000/svg" width="16" height="16" fill="none" viewBox="0 0 15 15"><path fill="currentColor" fill-rule="evenodd" d="M4.156.473c.407 0 .737.33.737.737v.736h5.892V1.21a.737.737 0 0 1 1.473 0v.736h.737c1.22 0 2.21.99 2.21 2.21v8.839c0 1.22-.99 2.21-2.21 2.21H2.683a2.21 2.21 0 0 1-2.21-2.21v-8.84c0-1.22.99-2.209 2.21-2.209h.736V1.21c0-.407.33-.737.737-.737Zm6.629 2.946v.737a.737.737 0 0 0 1.473 0v-.737h.737c.407 0 .736.33.736.737v2.21H1.946v-2.21c0-.407.33-.737.737-.737h.736v.737a.737.737 0 0 0 1.474 0v-.737h5.892ZM1.946 7.84v5.156c0 .407.33.736.737.736h10.312c.407 0 .736-.33.736-.736V7.839H1.946Z" clip-rule="evenodd"/></svg>
