<svg width="16" height="16" viewBox="0 0 16 16" fill="none" xmlns="http://www.w3.org/2000/svg">
<path fill-rule="evenodd" clip-rule="evenodd" d="M8.02203 9.35938C8.39125 9.35938 8.69055 9.06007 8.69055 8.69086V5.34827C8.69055 4.97906 8.39125 4.67976 8.02203 4.67976C7.65282 4.67976 7.35352 4.97906 7.35352 5.34827V8.69086C7.35352 9.06007 7.65282 9.35938 8.02203 9.35938Z" fill="currentColor"/>
<path d="M8.69055 10.6963C8.69055 11.0656 8.39125 11.3649 8.02203 11.3649C7.65282 11.3649 7.35352 11.0656 7.35352 10.6963C7.35352 10.3271 7.65282 10.0278 8.02203 10.0278C8.39125 10.0278 8.69055 10.3271 8.69055 10.6963Z" fill="currentColor"/>
<path fill-rule="evenodd" clip-rule="evenodd" d="M8.02234 13.3705C10.976 13.3705 13.3705 10.976 13.3705 8.02234C13.3705 5.06864 10.976 2.67419 8.02234 2.67419C5.06864 2.67419 2.67419 5.06864 2.67419 8.02234C2.67419 10.976 5.06864 13.3705 8.02234 13.3705ZM8.02234 14.7075C11.7145 14.7075 14.7075 11.7145 14.7075 8.02234C14.7075 4.33021 11.7145 1.33716 8.02234 1.33716C4.33021 1.33716 1.33716 4.33021 1.33716 8.02234C1.33716 11.7145 4.33021 14.7075 8.02234 14.7075Z" fill="currentColor"/>
</svg>
