<svg width="16" height="16" viewBox="0 0 16 16" fill="none" xmlns="http://www.w3.org/2000/svg">
<path fill-rule="evenodd" clip-rule="evenodd" d="M4.67896 6.01666C4.67896 5.64745 4.97826 5.34814 5.34747 5.34814H10.6956C11.0648 5.34814 11.3641 5.64745 11.3641 6.01666C11.3641 6.38587 11.0648 6.68518 10.6956 6.68518H5.34747C4.97826 6.68518 4.67896 6.38587 4.67896 6.01666Z" fill="currentColor"/>
<path fill-rule="evenodd" clip-rule="evenodd" d="M4.67896 8.69073C4.67896 8.32152 4.97826 8.02222 5.34747 8.02222H8.02154C8.39076 8.02222 8.69006 8.32152 8.69006 8.69073C8.69006 9.05995 8.39076 9.35925 8.02154 9.35925H5.34747C4.97826 9.35925 4.67896 9.05995 4.67896 8.69073Z" fill="currentColor"/>
<path fill-rule="evenodd" clip-rule="evenodd" d="M4.49183 11.6745C4.73211 11.4743 5.035 11.3646 5.34778 11.3646H12.7015C13.0707 11.3646 13.37 11.0653 13.37 10.6961V4.01092C13.37 3.64171 13.0707 3.34241 12.7015 3.34241H3.34222C2.97301 3.34241 2.67371 3.64171 2.67371 4.01092V13.1896L4.49183 11.6745ZM5.34778 12.7017H12.7015C13.8091 12.7017 14.707 11.8037 14.707 10.6961V4.01092C14.707 2.90329 13.8091 2.00537 12.7015 2.00537H3.34222C2.23459 2.00537 1.33667 2.90329 1.33667 4.01092V13.1896C1.33667 14.3232 2.65881 14.9425 3.52965 14.2168L5.34778 12.7017Z" fill="currentColor"/>
</svg>
