<svg width="16" height="16" viewBox="0 0 16 16" fill="none" xmlns="http://www.w3.org/2000/svg">
<path d="M6.39661 3.01956C9.26195 1.79906 11.8638 1.92786 13.1814 2.13225C13.2858 2.14846 13.3568 2.2443 13.3452 2.34939C13.1085 4.49999 12.7718 8.19519 9.84309 10.5639C7.96313 12.0845 4.95341 11.6335 4.20544 11.4912C4.10609 11.4723 4.00713 11.5269 3.97524 11.6229C3.89234 11.8724 3.74603 12.3507 3.71455 12.7057C3.65945 13.327 3.7634 13.9311 3.91509 14.3737C3.96269 14.5126 3.86374 14.6667 3.71692 14.6667H2.55025C2.45783 14.6667 2.37776 14.604 2.35818 14.5137C2.27703 14.1393 2.08565 13.1619 2.14955 12.5352C2.25274 11.5233 2.56766 10.814 2.86749 10.1666C2.87826 10.1433 2.88443 10.1191 2.88566 10.0935C2.97573 8.21599 2.74815 4.57363 6.39661 3.01956Z" fill="var(--color-green-leaf-icon-color-bottom)" class="bottom"/>
<path d="M13.2478 2.14277C11.3004 3.32114 9.4615 5.12467 7.83416 6.72074C5.78674 8.72881 4.07415 10.4085 2.90142 10.1016C2.90142 10.1016 2.89618 10.0925 2.88667 10.0748C2.89397 9.91802 2.89919 9.74922 2.9047 9.57056C2.96544 7.60294 3.0631 4.43953 6.39674 3.01956C9.31097 1.77823 11.9526 1.93265 13.2478 2.14277Z"  fill="var(--color-green-leaf-icon-color-top)" class="top"/>
</svg>
