<svg width="16" height="16" viewBox="0 0 16 16" fill="none" xmlns="http://www.w3.org/2000/svg">
<path fill-rule="evenodd" clip-rule="evenodd" d="M2.47815 1.53296C2.21707 1.27189 1.79379 1.27189 1.53272 1.53296C1.27165 1.79404 1.27165 2.21732 1.53272 2.47839L3.86569 4.81136C2.83326 5.62536 2.136 6.60341 1.73955 7.26448C1.45726 7.7352 1.45726 8.30911 1.73955 8.77983C2.53394 10.1044 4.53609 12.7018 8.02242 12.7018C9.18739 12.7018 10.1866 12.4118 11.0305 11.9761L13.566 14.5117C13.8271 14.7728 14.2504 14.7728 14.5115 14.5117C14.7725 14.2506 14.7725 13.8274 14.5115 13.5663L12.1786 11.2334C12.1789 11.2332 12.1792 11.2329 12.1795 11.2327L11.2258 10.2791C11.2255 10.2793 11.2252 10.2795 11.2249 10.2797L9.83224 8.88706C9.83236 8.88681 9.83248 8.88656 9.8326 8.88631L7.1582 6.21191C7.15795 6.21203 7.1577 6.21215 7.15745 6.21227L6.02097 5.07579C6.02134 5.07563 6.02171 5.07548 6.02208 5.07533L5.01474 4.06798C5.01439 4.06816 5.01405 4.06834 5.0137 4.06852L2.47815 1.53296ZM4.81933 5.765C3.90595 6.44573 3.26987 7.31238 2.8862 7.95214C2.86945 7.98006 2.86487 8.00359 2.86487 8.02216C2.86487 8.04072 2.86945 8.06425 2.8862 8.09217C3.61918 9.3144 5.27344 11.3647 8.02242 11.3647C8.7689 11.3647 9.43465 11.2136 10.0232 10.9688L8.8868 9.83247C8.62499 9.95775 8.33177 10.0279 8.02216 10.0279C6.91452 10.0279 6.0166 9.12999 6.0166 8.02236C6.0166 7.71275 6.08676 7.41952 6.21204 7.15771L4.81933 5.765ZM8.49033 7.54514L8.49937 7.55418C8.49638 7.55114 8.49337 7.54813 8.49033 7.54514ZM12.2125 9.37488C12.6189 8.92484 12.9326 8.46912 13.1586 8.09217C13.1754 8.06425 13.18 8.04072 13.18 8.02215C13.18 8.00359 13.1754 7.98006 13.1587 7.95214C12.4257 6.72991 10.7714 4.67957 8.02242 4.67957C7.85726 4.67957 7.69605 4.68697 7.53875 4.70114L6.38333 3.54572C6.88834 3.41645 7.43426 3.34253 8.02242 3.34253C11.5088 3.34253 13.5109 5.93986 14.3053 7.26448C14.5876 7.7352 14.5876 8.30911 14.3053 8.77983C14.0503 9.20494 13.671 9.76115 13.1581 10.3205L12.2125 9.37488Z" fill="currentColor"/>
</svg>
