<svg xmlns="http://www.w3.org/2000/svg" width="16" height="16" viewBox="0 0 16 16"
    fill="currentColor">
    <path fill-rule="evenodd" clip-rule="evenodd"
        d="M8.02231 2.67395C10.976 2.67395 13.3705 5.0684 13.3705 8.02209C13.3705 10.9758 10.976 13.3702 8.02231 13.3702C5.92885 13.3702 4.15128 12.1663 3.27283 10.3987C3.10852 10.068 2.70729 9.93319 2.37665 10.0975C2.04602 10.2618 1.91119 10.663 2.0755 10.9937C3.1661 13.1882 5.39106 14.7073 8.02231 14.7073C11.7144 14.7073 14.7075 11.7142 14.7075 8.02209C14.7075 4.32997 11.7144 1.33691 8.02231 1.33691C6.00139 1.33691 4.22014 2.23298 3.00842 3.64295L3.00842 2.67395C3.00842 2.30474 2.70912 2.00543 2.33991 2.00543C1.97069 2.00543 1.67139 2.30474 1.67139 2.67395L1.67139 5.34802C1.67139 5.52566 1.74209 5.696 1.86788 5.82143C1.99368 5.94685 2.16422 6.01706 2.34186 6.01654L2.63691 6.01567C2.6628 6.0171 2.68864 6.01701 2.71432 6.01545L5.01593 6.0087C5.38515 6.00762 5.68357 5.70744 5.68249 5.33823C5.68141 4.96902 5.38123 4.67059 5.01202 4.67167L3.88937 4.67496C4.86101 3.45177 6.33961 2.67395 8.02231 2.67395ZM8.69104 5.34811C8.69104 4.9789 8.39173 4.6796 8.02252 4.6796C7.65331 4.6796 7.354 4.9789 7.354 5.34811V7.74528C7.354 8.09988 7.49487 8.43996 7.74561 8.6907L8.88684 9.83193C9.14792 10.093 9.5712 10.093 9.83227 9.83193C10.0933 9.57086 10.0933 9.14758 9.83227 8.88651L8.69104 7.74528V5.34811Z"
        fill="currentColor" />
</svg>