<svg xmlns="http://www.w3.org/2000/svg" width="16" height="16" fill="none"><path fill="#1A1A1A" fill-rule="evenodd" d="M2.67 2c0-.36.3-.66.67-.66h9.36a.67.67 0 0 1 0 1.33v.39c0 1.06-.31 2.09-.9 2.97l-1.33 2 1.33 1.99c.59.88.9 1.9.9 2.96v.39a.67.67 0 0 1 0 1.34H3.34a.67.67 0 1 1 0-1.34v-.39c0-1.05.31-2.08.9-2.96l1.33-2-1.33-2a5.35 5.35 0 0 1-.9-2.96v-.39a.67.67 0 0 1-.67-.66Zm2 11.37h.85l.8-1.29a2 2 0 0 1 3.4 0l.8 1.29h.84v-.39c0-.79-.23-1.56-.67-2.22L9.31 8.69H6.73l-1.38 2.07a4.01 4.01 0 0 0-.67 2.22v.39Zm4.28 0-.36-.58a.67.67 0 0 0-1.13 0l-.37.58h1.86ZM4.68 2.67h6.68v.39c0 .56-.11 1.11-.34 1.62h-6a4.01 4.01 0 0 1-.34-1.62v-.39Zm1.16 3.35.9 1.33H9.3l.9-1.33H5.83Z" clip-rule="evenodd" fill="currentColor"/></svg>
