<svg width="16" height="16" viewBox="0 0 16 16" fill="none" xmlns="http://www.w3.org/2000/svg">
<path fill-rule="evenodd" clip-rule="evenodd" d="M8.02185 13.3705C10.9755 13.3705 13.37 10.976 13.37 8.02234C13.37 5.06864 10.9755 2.67419 8.02185 2.67419C5.06815 2.67419 2.67371 5.06864 2.67371 8.02234C2.67371 10.976 5.06815 13.3705 8.02185 13.3705ZM8.02185 14.7075C11.714 14.7075 14.707 11.7145 14.707 8.02234C14.707 4.33021 11.714 1.33716 8.02185 1.33716C4.32973 1.33716 1.33667 4.33021 1.33667 8.02234C1.33667 11.7145 4.32973 14.7075 8.02185 14.7075Z" fill="currentColor"/>
<path fill-rule="evenodd" clip-rule="evenodd" d="M8.02228 6.6853C8.39149 6.6853 8.6908 6.98461 8.6908 7.35382V10.697C8.6908 11.0662 8.39149 11.3655 8.02228 11.3655C7.65307 11.3655 7.35376 11.0662 7.35376 10.697V7.35382C7.35376 6.98461 7.65307 6.6853 8.02228 6.6853Z" fill="currentColor"/>
<circle cx="8.02228" cy="5.34821" r="0.668518" fill="currentColor"/>
</svg>
