<svg width="16" height="16" viewBox="0 0 16 16" fill="none" xmlns="http://www.w3.org/2000/svg">
<path fill-rule="evenodd" clip-rule="evenodd" d="M0 8C0 3.58172 3.58172 0 8 0C12.4183 0 16 3.58172 16 8C16 12.4183 12.4183 16 8 16C3.58172 16 0 12.4183 0 8ZM8.0004 3.73333C6.84163 3.73333 6.69621 3.7384 6.24109 3.75911C5.78687 3.77991 5.47682 3.85182 5.20553 3.95734C4.9249 4.06631 4.68685 4.21209 4.4497 4.44934C4.21236 4.6865 4.06658 4.92455 3.95725 5.20508C3.85147 5.47646 3.77947 5.7866 3.75902 6.24065C3.73867 6.69576 3.73333 6.84128 3.73333 8.00004C3.73333 9.15881 3.73849 9.30379 3.75911 9.75891C3.78 10.2131 3.85191 10.5232 3.95734 10.7945C4.0664 11.0751 4.21218 11.3131 4.44943 11.5503C4.6865 11.7876 4.92455 11.9338 5.20499 12.0428C5.47646 12.1483 5.7866 12.2202 6.24074 12.241C6.69585 12.2617 6.84119 12.2668 7.99987 12.2668C9.15872 12.2668 9.3037 12.2617 9.75882 12.241C10.213 12.2202 10.5234 12.1483 10.7949 12.0428C11.0755 11.9338 11.3131 11.7876 11.5502 11.5503C11.7876 11.3131 11.9333 11.0751 12.0427 10.7946C12.1476 10.5232 12.2196 10.213 12.2409 9.759C12.2613 9.30388 12.2667 9.15881 12.2667 8.00004C12.2667 6.84128 12.2613 6.69585 12.2409 6.24074C12.2196 5.78651 12.1476 5.47646 12.0427 5.20517C11.9333 4.92455 11.7876 4.6865 11.5502 4.44934C11.3129 4.21201 11.0755 4.06623 10.7947 3.95734C10.5226 3.85182 10.2124 3.77991 9.7582 3.75911C9.30308 3.7384 9.15819 3.73333 7.99907 3.73333H8.0004ZM7.61764 4.50223C7.73124 4.50205 7.858 4.50223 8.0004 4.50223C9.13961 4.50223 9.27464 4.50632 9.72451 4.52676C10.1405 4.54579 10.3663 4.6153 10.5167 4.6737C10.7158 4.75103 10.8578 4.84348 11.007 4.99281C11.1563 5.14215 11.2488 5.28437 11.3263 5.48348C11.3847 5.63371 11.4543 5.85949 11.4732 6.27549C11.4937 6.72528 11.4981 6.86039 11.4981 7.99907C11.4981 9.13774 11.4937 9.27286 11.4732 9.72264C11.4542 10.1386 11.3847 10.3644 11.3263 10.5146C11.249 10.7138 11.1563 10.8555 11.007 11.0048C10.8577 11.1541 10.7159 11.2466 10.5167 11.3239C10.3665 11.3826 10.1405 11.4519 9.72451 11.4709C9.27472 11.4914 9.13961 11.4958 8.0004 11.4958C6.8611 11.4958 6.72608 11.4914 6.27629 11.4709C5.86029 11.4517 5.63451 11.3822 5.48402 11.3238C5.2849 11.2465 5.14268 11.154 4.99335 11.0047C4.84401 10.8554 4.75157 10.7135 4.67405 10.5143C4.61565 10.3641 4.54605 10.1383 4.52712 9.72228C4.50667 9.2725 4.50259 9.13739 4.50259 7.998C4.50259 6.85861 4.50667 6.72421 4.52712 6.27443C4.54614 5.85842 4.61565 5.63264 4.67405 5.48224C4.75139 5.28313 4.84401 5.1409 4.99335 4.99157C5.14268 4.84223 5.2849 4.74979 5.48402 4.67228C5.63442 4.61361 5.86029 4.54428 6.27629 4.52516C6.6699 4.50739 6.82243 4.50205 7.61764 4.50116V4.50223ZM10.2779 5.21068C9.99527 5.21068 9.76593 5.43975 9.76593 5.72251C9.76593 6.00518 9.99527 6.23452 10.2779 6.23452C10.5606 6.23452 10.7899 6.00518 10.7899 5.72251C10.7899 5.43984 10.5606 5.2105 10.2779 5.2105V5.21068ZM8.0004 5.80891C6.79034 5.80891 5.80927 6.78999 5.80927 8.00004C5.80927 9.2101 6.79034 10.1907 8.0004 10.1907C9.21046 10.1907 10.1912 9.2101 10.1912 8.00004C10.1912 6.78999 9.21037 5.80891 8.00031 5.80891H8.0004ZM8.0004 6.57781C8.78583 6.57781 9.42264 7.21453 9.42264 8.00004C9.42264 8.78547 8.78583 9.42228 8.0004 9.42228C7.21488 9.42228 6.57816 8.78547 6.57816 8.00004C6.57816 7.21453 7.21488 6.57781 8.0004 6.57781Z" fill="currentColor"/>
</svg>
