<svg width="16" height="16" viewBox="0 0 16 16" fill="none" xmlns="http://www.w3.org/2000/svg">
<path d="M8 0C12.4183 0 16 3.58172 16 8C16 12.4183 12.4183 16 8 16C3.58172 16 0 12.4183 0 8C0 3.58172 3.58172 0 8 0ZM7.9873 3.82812C6.89087 3.83709 5.83543 3.95604 5.2207 4.23828C5.20209 4.24672 4.00198 4.79837 4.00195 6.64453C4.00195 7.07053 3.99335 7.57995 4.00684 8.12012C4.05111 9.93972 4.34108 11.7334 6.02344 12.1787C6.7988 12.3839 7.46477 12.4269 8.00098 12.3975C8.96475 12.344 9.50977 12.055 9.51953 12.0498L9.48828 11.3447C9.48828 11.3447 8.79227 11.5638 8.01172 11.5371C7.23841 11.5106 6.42196 11.4533 6.29688 10.5039C6.28533 10.4205 6.2793 10.3309 6.2793 10.2373C6.29382 10.2409 7.04819 10.4241 8.00098 10.4678C8.58925 10.4947 9.14182 10.4331 9.70215 10.3662C10.7765 10.2377 11.7124 9.57559 11.8301 8.9707C12.0152 8.01835 12 6.64668 12 6.64453C12 4.7973 10.7975 4.2461 10.7803 4.23828C10.1656 3.95615 9.10985 3.8371 8.01367 3.82812H7.9873ZM9.25391 5.28223C9.64818 5.28238 9.96627 5.42107 10.209 5.69141C10.4444 5.9621 10.5615 6.32868 10.5615 6.78906V9.04199H9.66895V6.85547C9.66895 6.3946 9.47471 6.16025 9.08691 6.16016C8.65834 6.16034 8.44343 6.43788 8.44336 6.98633V8.18359H7.55566V6.98633C7.5556 6.43779 7.34082 6.16025 6.91211 6.16016C6.52422 6.16019 6.33008 6.39455 6.33008 6.85547V9.04199H5.4375V6.78906C5.4375 6.32861 5.55455 5.96211 5.79004 5.69141C6.03286 5.42082 6.3514 5.28223 6.74609 5.28223C7.20273 5.28228 7.54868 5.45847 7.77734 5.80957L8 6.18164L8.22168 5.80957C8.45033 5.45848 8.79715 5.28223 9.25391 5.28223Z" fill="currentColor"/>
</svg>
