<svg width="16" height="16" viewBox="0 0 16 16" fill="none" xmlns="http://www.w3.org/2000/svg">
<path fill-rule="evenodd" clip-rule="evenodd" d="M8.02154 6.68506C9.12918 6.68506 10.0271 5.78714 10.0271 4.6795C10.0271 3.57187 9.12918 2.67395 8.02154 2.67395C6.91391 2.67395 6.01599 3.57187 6.01599 4.6795C6.01599 5.78714 6.91391 6.68506 8.02154 6.68506ZM8.02154 8.02209C9.86761 8.02209 11.3641 6.52557 11.3641 4.6795C11.3641 2.83344 9.86761 1.33691 8.02154 1.33691C6.17548 1.33691 4.67896 2.83344 4.67896 4.6795C4.67896 6.52557 6.17548 8.02209 8.02154 8.02209Z" fill="currentColor"/>
<path fill-rule="evenodd" clip-rule="evenodd" d="M6.01623 10.6964C4.53939 10.6964 3.34216 11.8936 3.34216 13.3705V14.039C3.34216 14.4082 3.04286 14.7075 2.67364 14.7075C2.30443 14.7075 2.00513 14.4082 2.00513 14.039V13.3705C2.00513 11.1552 3.80096 9.35938 6.01623 9.35938H10.0273C12.2426 9.35938 14.0385 11.1552 14.0385 13.3705V14.039C14.0385 14.4082 13.7391 14.7075 13.3699 14.7075C13.0007 14.7075 12.7014 14.4082 12.7014 14.039V13.3705C12.7014 11.8936 11.5042 10.6964 10.0273 10.6964H6.01623Z" fill="currentColor"/>
</svg>
