<svg xmlns="http://www.w3.org/2000/svg" width="16" height="16" fill="currentColor"><path d="M7.333 1.333a.667.667 0 0 1 0 1.334h-4a.666.666 0 0 0-.666.666v9.334c0 .368.298.666.666.666h9.334a.666.666 0 0 0 .666-.666V8.5a.667.667 0 0 1 1.334 0v4.167a2 2 0 0 1-2 2H3.333a2 2 0 0 1-2-2V3.333a2 2 0 0 1 2-2z"/><path fill-rule="evenodd" d="M10.876 2.001c.52-.52 1.365-.52 1.886 0L14 3.239c.52.521.52 1.365 0 1.886l-5.567 5.567a1.34 1.34 0 0 1-.682.366l-2.53.505-.081.011a.67.67 0 0 1-.702-.796l.505-2.529c.052-.258.18-.495.366-.68zm-4.625 6.51-.31 1.549 1.55-.31 3.748-3.749L10 4.761zm4.691-4.693 1.24 1.24.876-.875-1.24-1.24z" clip-rule="evenodd"/></svg>