<svg width="16" height="16" viewBox="0 0 16 16" fill="none" xmlns="http://www.w3.org/2000/svg">
<path fill-rule="evenodd" clip-rule="evenodd" d="M4.67932 7.35358C4.67932 6.98436 4.97863 6.68506 5.34784 6.68506H10.696C11.0652 6.68506 11.3645 6.98436 11.3645 7.35358C11.3645 7.72279 11.0652 8.02209 10.696 8.02209H5.34784C4.97863 8.02209 4.67932 7.72279 4.67932 7.35358Z" fill="currentColor"/>
<path fill-rule="evenodd" clip-rule="evenodd" d="M4.67932 10.0276C4.67932 9.65844 4.97863 9.35913 5.34784 9.35913H8.02191C8.39112 9.35913 8.69043 9.65844 8.69043 10.0276C8.69043 10.3969 8.39112 10.6962 8.02191 10.6962H5.34784C4.97863 10.6962 4.67932 10.3969 4.67932 10.0276Z" fill="currentColor"/>
<path fill-rule="evenodd" clip-rule="evenodd" d="M14.0392 12.702C14.0392 13.8096 13.1413 14.7075 12.0336 14.7075H4.01141C2.90378 14.7075 2.00586 13.8096 2.00586 12.702V3.34271C2.00586 2.23507 2.90378 1.33716 4.01141 1.33716H10.6966L10.7038 1.34432C11.1736 1.38412 11.6165 1.58859 11.9525 1.92457L13.4518 3.42382C13.7878 3.7598 13.9922 4.20273 14.032 4.67259L14.0392 4.67975V12.702ZM12.0336 13.3705H4.01141C3.6422 13.3705 3.3429 13.0712 3.3429 12.702V3.34271C3.3429 2.9735 3.6422 2.67419 4.01141 2.67419H10.0281V4.01123C10.0281 4.74965 10.6267 5.34827 11.3651 5.34827H12.7021V12.702C12.7021 13.0712 12.4028 13.3705 12.0336 13.3705Z" fill="currentColor"/>
</svg>
