<svg width="16" height="17" viewBox="0 0 16 17" fill="none" xmlns="http://www.w3.org/2000/svg">
<path d="M6.23115 6.28094C6.03044 6.55882 5.85949 6.85962 5.72298 7.17867C5.39455 7.0708 5.04366 7.01245 4.67914 7.01245C2.83308 7.01245 1.33655 8.50898 1.33655 10.355C1.33655 12.2011 2.83308 13.6976 4.67914 13.6976H10.0273C11.0492 13.6976 11.9947 13.37 12.7643 12.8141L11.8016 11.8513C11.2874 12.174 10.6791 12.3606 10.0273 12.3606H4.67914C3.5715 12.3606 2.67358 11.4627 2.67358 10.355C2.67358 9.2474 3.5715 8.34949 4.67914 8.34949C4.90018 8.34949 5.11032 8.38475 5.30578 8.44895C5.96457 8.66532 6.67944 8.34214 6.95222 7.70463C7.02095 7.54402 7.10184 7.38993 7.19373 7.24352L6.23115 6.28094Z" fill="currentColor"/>
<path d="M12.7701 10.929C13.1481 10.3874 13.3699 9.7286 13.3699 9.018C13.3699 7.17194 11.8733 5.67541 10.0273 5.67541C9.31732 5.67541 8.65825 5.89683 8.11617 6.2751L7.16026 5.3192C7.95228 4.7044 8.94703 4.33838 10.0273 4.33838C12.6118 4.33838 14.7069 6.43352 14.7069 9.018C14.7069 10.0983 14.3409 11.093 13.7261 11.885L12.7701 10.929Z" fill="currentColor"/>
<path fill-rule="evenodd" clip-rule="evenodd" d="M1.53235 2.52881C1.79342 2.26774 2.21671 2.26774 2.47778 2.52881L14.5111 14.5621C14.7722 14.8232 14.7722 15.2465 14.5111 15.5076C14.25 15.7686 13.8267 15.7686 13.5657 15.5076L1.53235 3.47424C1.27128 3.21317 1.27128 2.78988 1.53235 2.52881Z" fill="currentColor"/>
</svg>
