<svg width="16" height="16" viewBox="0 0 16 16" fill="none" xmlns="http://www.w3.org/2000/svg">
<path d="M8.69073 3.34259C8.69073 2.97338 8.39143 2.67407 8.02222 2.67407C7.653 2.67407 7.3537 2.97338 7.3537 3.34259V7.3537H3.34259C2.97338 7.3537 2.67407 7.653 2.67407 8.02222C2.67407 8.39143 2.97338 8.69073 3.34259 8.69073H7.3537V12.7018C7.3537 13.0711 7.653 13.3704 8.02222 13.3704C8.39143 13.3704 8.69073 13.0711 8.69073 12.7018V8.69073H12.7018C13.0711 8.69073 13.3704 8.39143 13.3704 8.02222C13.3704 7.653 13.0711 7.3537 12.7018 7.3537H8.69073V3.34259Z" fill="currentColor"/>
</svg>
