<svg width="16" height="16" viewBox="0 0 24 24" fill="none" xmlns="http://www.w3.org/2000/svg"><path fill-rule="evenodd" clip-rule="evenodd" d="M19.674 18.005 12.869 6.064a1 1 0 0 0-1.738 0l-6.805 11.94a1 1 0 0 0 .869 1.496h13.61a1 1 0 0 0 .869-1.495ZM14.606 5.074c-1.15-2.02-4.062-2.02-5.213 0l-6.805 11.94c-1.14 2 .305 4.486 2.607 4.486h13.61c2.302 0 3.746-2.485 2.606-4.485L14.606 5.074ZM12 15.5a1 1 0 0 0 1-1v-5a1 1 0 1 0-2 0v5a1 1 0 0 0 1 1Zm0 3a1 1 0 1 0 0-2 1 1 0 0 0 0 2Z" fill="currentColor"/></svg>
