<svg width="16" height="16" viewBox="0 0 16 16" fill="none" xmlns="http://www.w3.org/2000/svg">
<path fill-rule="evenodd" clip-rule="evenodd" d="M8.02209 13.3705C10.9758 13.3705 13.3702 10.976 13.3702 8.02234C13.3702 5.06864 10.9758 2.67419 8.02209 2.67419C5.0684 2.67419 2.67395 5.06864 2.67395 8.02234C2.67395 10.976 5.0684 13.3705 8.02209 13.3705ZM8.02209 14.7075C11.7142 14.7075 14.7073 11.7145 14.7073 8.02234C14.7073 4.33021 11.7142 1.33716 8.02209 1.33716C4.32997 1.33716 1.33691 4.33021 1.33691 8.02234C1.33691 11.7145 4.32997 14.7075 8.02209 14.7075Z" fill="currentColor"/>
<circle cx="8.02252" cy="12.0333" r="0.668518" fill="currentColor"/>
<path fill-rule="evenodd" clip-rule="evenodd" d="M8.02254 5.34802C7.44143 5.34802 6.94527 5.71912 6.76141 6.23932C6.63837 6.58743 6.25643 6.76988 5.90832 6.64685C5.56021 6.52381 5.37776 6.14187 5.5008 5.79376C5.86757 4.75606 6.85718 4.01099 8.02254 4.01099C9.49938 4.01099 10.6966 5.20821 10.6966 6.68506C10.6966 7.93107 9.8444 8.97803 8.69105 9.27488V10.0276C8.69105 10.3969 8.39175 10.6962 8.02254 10.6962C7.65332 10.6962 7.35402 10.3969 7.35402 10.0276V8.69061C7.35402 8.3214 7.65332 8.02209 8.02254 8.02209C8.76096 8.02209 9.35957 7.42348 9.35957 6.68506C9.35957 5.94663 8.76096 5.34802 8.02254 5.34802Z" fill="currentColor"/>
</svg>
