<svg width="17" height="16" viewBox="0 0 17 16" fill="none" xmlns="http://www.w3.org/2000/svg"><path fill-rule="evenodd" clip-rule="evenodd" d="M10.527 2.005a4.68 4.68 0 0 0-4.305 2.84 3.343 3.343 0 0 0-2.716 6.071.668.668 0 1 0 .67-1.156A2.004 2.004 0 0 1 5.18 6.016c.399 0 .769.116 1.08.316a.669.669 0 0 0 1.012-.41 3.344 3.344 0 0 1 6.598.763c0 .99-.43 1.879-1.114 2.492a.669.669 0 0 0 .892.996 4.68 4.68 0 0 0-3.12-8.168ZM6.74 11.003a.668.668 0 1 0-1.252-.47l-1.003 2.674a.668.668 0 1 0 1.252.47l1.003-2.674Zm2.674 0a.668.668 0 1 0-1.252-.47L7.16 13.207a.668.668 0 1 0 1.252.47l1.003-2.674Zm2.282-.861c.346.13.521.515.391.86l-1.002 2.675a.669.669 0 0 1-1.252-.47l1.002-2.674a.669.669 0 0 1 .861-.391Z" fill="currentColor"/></svg>
