<svg width="16" height="16" viewBox="0 0 16 16" fill="none" xmlns="http://www.w3.org/2000/svg">
<path fill-rule="evenodd" clip-rule="evenodd" d="M4.49183 11.6745C4.73211 11.4743 5.035 11.3646 5.34778 11.3646H12.7015C13.0707 11.3646 13.37 11.0653 13.37 10.6961V4.01092C13.37 3.64171 13.0707 3.34241 12.7015 3.34241H3.34222C2.97301 3.34241 2.67371 3.64171 2.67371 4.01092V13.1896L4.49183 11.6745ZM5.34778 12.7017H12.7015C13.8091 12.7017 14.707 11.8037 14.707 10.6961V4.01092C14.707 2.90329 13.8091 2.00537 12.7015 2.00537H3.34222C2.23459 2.00537 1.33667 2.90329 1.33667 4.01092V13.1896C1.33667 14.3232 2.65881 14.9425 3.52965 14.2168L5.34778 12.7017Z" fill="currentColor"/>
<path d="M7.42697 4.64282C7.62307 4.07869 8.42088 4.07869 8.61697 4.64282L8.91477 5.49956C9.00128 5.74842 9.23352 5.91716 9.49694 5.92253L10.4038 5.94101C11.0009 5.95318 11.2474 6.71194 10.7715 7.07276L10.0487 7.62073C9.83877 7.77991 9.75006 8.05293 9.82635 8.30511L10.089 9.17327C10.2619 9.74492 9.6165 10.2139 9.12627 9.87273L8.38177 9.35466C8.16551 9.20417 7.87844 9.20417 7.66218 9.35466L6.91767 9.87273C6.42744 10.2139 5.782 9.74492 5.95494 9.17327L6.21759 8.30511C6.29389 8.05293 6.20518 7.77991 5.99523 7.62073L5.27245 7.07276C4.79652 6.71194 5.04306 5.95318 5.64018 5.94101L6.54701 5.92253C6.81042 5.91716 7.04267 5.74842 7.12917 5.49956L7.42697 4.64282Z" fill="currentColor"/>
</svg>
