<svg width="16" height="16" viewBox="0 0 16 16" fill="none" xmlns="http://www.w3.org/2000/svg">
<path d="M2.67395 8.02234C2.67395 5.06864 5.0684 2.67419 8.02209 2.67419C9.70479 2.67419 11.1834 3.45201 12.155 4.67521L11.0324 4.67192C10.6632 4.67084 10.363 4.96926 10.3619 5.33847C10.3608 5.70768 10.6593 6.00786 11.0285 6.00895L13.3301 6.01569C13.3558 6.01726 13.3816 6.01735 13.4075 6.01592L13.7025 6.01678C13.8802 6.0173 14.0507 5.9471 14.1765 5.82167C14.3023 5.69624 14.373 5.52591 14.373 5.34827L14.373 2.67419C14.373 2.30498 14.0737 2.00568 13.7045 2.00568C13.3353 2.00568 13.036 2.30498 13.036 2.67419L13.036 3.64319C11.8243 2.23322 10.043 1.33716 8.02209 1.33716C4.32997 1.33716 1.33691 4.33021 1.33691 8.02234C1.33691 11.7145 4.32997 14.7075 8.02209 14.7075C10.6533 14.7075 12.8783 13.1885 13.9689 10.9939C14.1332 10.6633 13.9984 10.2621 13.6677 10.0977C13.3371 9.93343 12.9359 10.0683 12.7716 10.3989C11.8931 12.1666 10.1156 13.3705 8.02209 13.3705C5.0684 13.3705 2.67395 10.976 2.67395 8.02234Z" fill="currentColor"/>
</svg>
