<svg width="16" height="16" viewBox="0 0 16 16" fill="none" xmlns="http://www.w3.org/2000/svg">
<path fill-rule="evenodd" clip-rule="evenodd" d="M13.0315 7.05667C13.0315 10.3631 10.3511 13.0435 7.0447 13.0435C3.73826 13.0435 1.05786 10.3631 1.05786 7.05667C1.05786 3.75022 3.73826 1.06982 7.0447 1.06982C10.3511 1.06982 13.0315 3.75022 13.0315 7.05667ZM2.44468 7.05662C2.44468 9.59713 4.50417 11.6566 7.04468 11.6566C9.58519 11.6566 11.6447 9.59713 11.6447 7.05662C11.6447 4.51611 9.58519 2.45662 7.04468 2.45662C4.50417 2.45662 2.44468 4.51611 2.44468 7.05662Z" fill="currentColor"/>
<path fill-rule="evenodd" clip-rule="evenodd" d="M10.2685 10.3456C10.5614 10.0527 11.0363 10.0527 11.3292 10.3456L14.6344 13.6508C14.9273 13.9437 14.9273 14.4186 14.6344 14.7115C14.3415 15.0044 13.8666 15.0044 13.5737 14.7115L10.2685 11.4063C9.97561 11.1134 9.97561 10.6385 10.2685 10.3456Z" fill="currentColor"/>
</svg>
