<svg width="16" height="16" viewBox="0 0 16 16" fill="none" xmlns="http://www.w3.org/2000/svg">
<path fill-rule="evenodd" clip-rule="evenodd" d="M8.02209 9.35925C8.76052 9.35925 9.35913 8.76064 9.35913 8.02222C9.35913 7.28379 8.76052 6.68518 8.02209 6.68518C7.28367 6.68518 6.68506 7.28379 6.68506 8.02222C6.68506 8.76064 7.28367 9.35925 8.02209 9.35925ZM10.6962 8.02222C10.6962 9.49907 9.49894 10.6963 8.02209 10.6963C6.54525 10.6963 5.34802 9.49907 5.34802 8.02222C5.34802 6.54537 6.54525 5.34814 8.02209 5.34814C9.49894 5.34814 10.6962 6.54537 10.6962 8.02222Z" fill="currentColor"/>
<path fill-rule="evenodd" clip-rule="evenodd" d="M7.60693 2.00549L7.34784 2.78275C7.09717 3.53477 6.55069 4.05801 5.99333 4.36835C5.95369 4.39042 5.91444 4.41313 5.87559 4.43645C5.32741 4.76553 4.59998 4.9778 3.82244 4.81869L3.01904 4.65428L3.28708 3.34439L4.09049 3.5088C4.46839 3.58613 4.8567 3.48865 5.18742 3.29011C5.2387 3.25932 5.29054 3.22934 5.34289 3.20019C5.6795 3.01277 5.95758 2.72544 6.07942 2.35994L6.3385 1.58268C6.52049 1.03672 7.03143 0.668457 7.60693 0.668457H8.4372C9.0127 0.668457 9.52364 1.03672 9.70563 1.58268L9.96471 2.35994C10.0865 2.72544 10.3646 3.01277 10.7012 3.20019C10.7536 3.22934 10.8054 3.25932 10.8567 3.29011C11.1874 3.48864 11.5757 3.58612 11.9536 3.50879L12.757 3.34439C13.3208 3.22901 13.8952 3.48737 14.183 3.98576L14.5981 4.7048C14.8859 5.2032 14.8224 5.82981 14.4406 6.2604L13.8957 6.87481C13.6404 7.16274 13.5301 7.54671 13.5362 7.93149C13.5371 7.9919 13.5371 8.05237 13.5362 8.11279C13.5301 8.49756 13.6404 8.88153 13.8957 9.16945L14.4406 9.78386C14.8224 10.2144 14.8859 10.8411 14.5981 11.3395L14.183 12.0585C13.8952 12.5569 13.3208 12.8152 12.757 12.6999L11.9537 12.5355C11.5758 12.4581 11.1875 12.5556 10.8568 12.7542C10.8055 12.785 10.7536 12.815 10.7012 12.8441C10.3646 13.0315 10.0865 13.3189 9.96471 13.6844L9.70563 14.4616C9.52364 15.0076 9.0127 15.3759 8.4372 15.3759H7.60693C7.03143 15.3759 6.52049 15.0076 6.3385 14.4616L6.07942 13.6844C5.95758 13.3189 5.6795 13.0315 5.34289 12.8441C5.29052 12.815 5.23868 12.785 5.18737 12.7542C4.85666 12.5556 4.46834 12.4581 4.09044 12.5355L3.28708 12.6999C2.72327 12.8152 2.14888 12.5569 1.86113 12.0585L1.44599 11.3395C1.15824 10.8411 1.2217 10.2144 1.60352 9.78386L2.6039 10.6709L3.01903 11.39L3.82239 11.2256C4.59993 11.0665 5.32738 11.2787 5.87556 11.6078C5.91442 11.6312 5.95368 11.6539 5.99333 11.676C6.55069 11.9863 7.09717 12.5095 7.34784 13.2616L7.60693 14.0388L8.4372 14.0388L8.69629 13.2616C8.94696 12.5095 9.49344 11.9863 10.0508 11.676C10.0904 11.6539 10.1297 11.6312 10.1686 11.6078C10.7167 11.2788 11.4442 11.0665 12.2217 11.2256L13.0251 11.39L13.4402 10.6709L12.8954 10.0565C12.3707 9.46491 12.1892 8.73118 12.1993 8.09161C12.2001 8.04531 12.2001 7.99897 12.1993 7.95268C12.1892 7.3131 12.3707 6.57936 12.8954 5.98773L13.4402 5.37332L13.0251 4.65428L12.2217 4.81868C11.4441 4.97779 10.7167 4.76553 10.1685 4.43645C10.1297 4.41312 10.0904 4.39042 10.0508 4.36835C9.49344 4.05801 8.94696 3.53477 8.69629 2.78275L8.4372 2.00549L7.60693 2.00549ZM1.60352 9.78386L2.6039 10.6709L3.14876 10.0565C3.67338 9.46488 3.85494 8.73115 3.84481 8.09158C3.84408 8.0453 3.84408 7.99898 3.84481 7.9527C3.85495 7.31313 3.67338 6.57939 3.14876 5.98777L2.6039 5.37332L3.01904 4.65428L3.28708 3.34439C2.72327 3.22901 2.14888 3.48737 1.86113 3.98576L1.44599 4.7048C1.15824 5.2032 1.2217 5.82981 1.60352 6.2604L2.14838 6.87485C2.4037 7.16277 2.51404 7.54675 2.50795 7.93152C2.50699 7.99191 2.50699 8.05236 2.50795 8.11276C2.51404 8.49752 2.4037 8.88149 2.14838 9.16942L1.60352 9.78386Z" fill="currentColor"/>
</svg>
