<svg width="16" height="16" viewBox="0 0 16 16" fill="none" xmlns="http://www.w3.org/2000/svg">
<path fill-rule="evenodd" clip-rule="evenodd" d="M3.13269 8.20135L8.15301 3.18104C8.291 3.04304 8.48241 2.97224 8.67699 2.98721L12.1886 3.25733C12.5173 3.28262 12.7786 3.54384 12.8039 3.8726L13.074 7.38419C13.0889 7.57877 13.0181 7.77018 12.8801 7.90818L7.85983 12.9285C7.59876 13.1896 7.17547 13.1896 6.9144 12.9285L3.13269 9.14678C2.87162 8.88571 2.87162 8.46243 3.13269 8.20135ZM14.4071 7.28164C14.452 7.86539 14.2396 8.43961 13.8256 8.8536L8.80526 13.8739C8.02204 14.6571 6.75219 14.6571 5.96897 13.8739L2.18727 10.0922C1.40405 9.30899 1.40405 8.03914 2.18727 7.25592L7.20758 2.23561C7.62157 1.82162 8.19579 1.6092 8.77954 1.65411L12.2911 1.92423C13.2774 2.0001 14.0611 2.78377 14.137 3.77006L14.4071 7.28164Z" fill="currentColor"/>
<path d="M9.75098 4.89258C9.35937 5.28419 9.35937 5.91912 9.75098 6.31072C10.1426 6.70233 10.7775 6.70233 11.1691 6.31072C11.5607 5.91912 11.5607 5.28419 11.1691 4.89258C10.7775 4.50097 10.1426 4.50097 9.75098 4.89258Z" fill="currentColor"/>
<path fill-rule="evenodd" clip-rule="evenodd" d="M5.02381 9.14636L6.91466 11.0372C7.17573 11.2983 7.59902 11.2983 7.86009 11.0372C8.12116 10.7761 8.12116 10.3529 7.86009 10.0918L5.96923 8.20093C5.70816 7.93986 5.28488 7.93986 5.02381 8.20093C4.76273 8.462 4.76273 8.88529 5.02381 9.14636Z" fill="currentColor"/>
</svg>
