<svg width="17" height="17" viewBox="0 0 17 17" fill="none" xmlns="http://www.w3.org/2000/svg">
<path d="M6.76294 10.9809C7.12604 11.4441 7.49585 12.0245 7.68938 12.3763C7.92506 12.8337 8.02278 13.1424 8.1981 13.6916C8.30062 13.9946 8.39834 14.0864 8.60336 14.0864C8.82755 14.0864 8.93006 13.932 9.00862 13.6916C9.17245 13.1727 9.29891 12.778 9.49914 12.4008C9.8929 11.6786 10.3892 11.0356 10.874 10.418C11.0071 10.2451 11.855 9.22584 12.2363 8.41672C12.2363 8.41672 12.7029 7.53333 12.7029 6.29815C12.7029 5.1431 12.243 4.34082 12.243 4.34082L10.9113 4.70532L10.0998 6.87958L9.89961 7.17567L9.85746 7.23137L9.80285 7.29978L9.71183 7.41118L9.57866 7.54701L8.8582 8.14603L7.05994 9.20825L6.76294 10.9809Z" fill="#34A853"/>
<path d="M4.9043 8.26906C5.34596 9.29414 6.18809 10.1902 6.76292 10.9808L9.80858 7.29967C9.80858 7.29967 9.37841 7.87427 8.60335 7.87427C7.73726 7.87427 7.03501 7.17068 7.03501 6.28046C7.03501 5.66873 7.39236 5.24951 7.39236 5.24951L5.32776 5.8114L4.9043 8.26906Z" fill="#FBBC04"/>
<path d="M9.84495 2.28467C10.8557 2.61789 11.7218 3.31561 12.243 4.34753L9.80855 7.30551C9.80855 7.30551 10.1659 6.87946 10.1659 6.27457C10.1659 5.36675 9.41479 4.68076 8.60331 4.68076C7.834 4.68076 7.39233 5.24851 7.39233 5.24851V3.38402L9.84495 2.28467Z" fill="#4285F4"/>
<path d="M5.46094 3.58837C6.06643 2.85352 7.12604 2.09424 8.5909 2.09424C9.2989 2.09424 9.83829 2.28577 9.83829 2.28577L7.39237 5.25059H5.66021L5.46094 3.58837Z" fill="#1A73E8"/>
<path d="M4.90427 8.26916C4.90427 8.26916 4.50476 7.46004 4.50476 6.29326C4.50476 5.18805 4.92822 4.22453 5.46761 3.59424L7.39904 5.25548L4.90427 8.26916Z" fill="#EA4335"/>
</svg>
