<svg width="16" height="16" xmlns="http://www.w3.org/2000/svg" fill="currentColor"><path d="m14.64 6.087 1.303-1.417h-2.89A8.97 8.97 0 0 0 7.97 3.106 8.95 8.95 0 0 0 2.897 4.67H0l1.303 1.417a3.983 3.983 0 1 0 5.391 5.864l1.276 1.39 1.277-1.389a3.985 3.985 0 1 0 5.392-5.865Zm-10.653 5.64a2.695 2.695 0 1 1 0-5.39 2.695 2.695 0 0 1 0 5.39zm3.984-2.774c0-1.772-1.29-3.296-2.992-3.946a7.733 7.733 0 0 1 2.992-.598 7.74 7.74 0 0 1 2.992.598c-1.7.65-2.992 2.172-2.992 3.946Zm3.982 2.773a2.695 2.695 0 1 1 0-5.388 2.695 2.695 0 0 1 0 5.388zm0-4.108a1.412 1.412 0 1 0 0 2.824 1.412 1.412 0 0 0 0-2.824zM5.4 9.03a1.413 1.413 0 1 1-2.826.001 1.413 1.413 0 0 1 2.826 0z" id="path2" style="fill-rule:nonzero;stroke-width:.79708731"/></svg>
