<svg width="16" height="16" viewBox="0 0 16 16" fill="none" xmlns="http://www.w3.org/2000/svg">
<path fill-rule="evenodd" clip-rule="evenodd" d="M10.54 9.59539C10.6961 9.47731 10.8349 9.33625 10.9514 9.17597C11.1996 8.83427 11.3334 8.42275 11.3334 8.0004C11.3334 7.57804 11.1996 7.16652 10.9514 6.82482C10.8349 6.66446 10.6959 6.52333 10.5397 6.4052C10.5017 6.37647 10.4653 6.34528 10.4308 6.312C10.3992 6.28149 10.3694 6.24922 10.3415 6.21546C10.1651 6.0014 10.0718 5.72758 10.1574 5.46424C10.2712 5.11407 10.6521 4.91696 10.9727 5.09804C11.1018 5.17099 11.2259 5.25242 11.344 5.34174M11.344 5.34174C11.6042 5.53856 11.8359 5.77389 12.0301 6.04111C12.4438 6.6106 12.6667 7.29646 12.6667 8.0004C12.6667 8.70433 12.4438 9.39019 12.0301 9.95968C11.8359 10.227 11.6043 10.4622 11.344 10.659C11.2259 10.7484 11.1018 10.8298 10.9727 10.9027C10.6521 11.0838 10.2712 10.8867 10.1574 10.5365C10.0718 10.2732 10.1651 9.99939 10.3415 9.78533C10.3694 9.75157 10.3992 9.7193 10.4308 9.68879C10.4653 9.65551 10.502 9.62412 10.54 9.59539" fill="currentColor"/>
<path fill-rule="evenodd" clip-rule="evenodd" d="M11.9247 11.5066C12.4389 11.2244 12.8874 10.8309 13.2358 10.3514C13.7323 9.66804 13.9997 8.845 13.9997 8.00029C13.9997 7.15557 13.7323 6.33254 13.2358 5.64915C12.8706 5.14654 12.3953 4.73843 11.8498 4.45384C11.8489 4.45339 11.8481 4.45295 11.8472 4.45251C11.8236 4.44007 11.8007 4.42658 11.7785 4.41212C11.7544 4.39642 11.7312 4.37958 11.709 4.3617C11.4705 4.1697 11.3455 3.85828 11.4418 3.56202C11.5556 3.21185 11.9341 3.01649 12.2674 3.17304C12.3345 3.20456 12.4009 3.23746 12.4665 3.27169C13.1938 3.65113 13.8276 4.19526 14.3145 4.86543C14.9765 5.77662 15.3331 6.874 15.3331 8.00029C15.3331 9.12658 14.9765 10.224 14.3145 11.1351C13.8276 11.8053 13.1938 12.3494 12.4665 12.7289C12.4009 12.7631 12.3345 12.796 12.2674 12.8275C11.9341 12.9841 11.5556 12.7887 11.4418 12.4386C11.3455 12.1423 11.4705 11.8309 11.709 11.6389C11.7312 11.621 11.7544 11.6042 11.7785 11.5885C11.8007 11.574 11.8236 11.5605 11.8472 11.5481C11.8481 11.5476 11.8489 11.5472 11.8498 11.5467C11.8749 11.5336 11.8999 11.5203 11.9247 11.5066Z" fill="currentColor"/>
<path fill-rule="evenodd" clip-rule="evenodd" d="M3.99971 10.0004C4.32268 10.0004 4.63467 10.1176 4.87772 10.3303L7.99971 13.062L7.99972 2.93871L4.87772 5.67046C4.63467 5.88313 4.32268 6.00035 3.99971 6.00035H2.66638C2.29819 6.00035 1.99972 6.29883 1.99972 6.66702V9.33369C1.99972 9.70188 2.29819 10.0004 2.66638 10.0004H3.99971ZM3.99971 11.3337L7.12171 14.0654C7.98382 14.8198 9.33305 14.2075 9.33305 13.062V2.93871C9.33305 1.79317 7.98382 1.18093 7.12171 1.93528L3.99971 4.66702H2.66638C1.56181 4.66702 0.666382 5.56245 0.666382 6.66702V9.33369C0.666382 10.4383 1.56181 11.3337 2.66638 11.3337H3.99971Z" fill="currentColor"/>
</svg>
