<svg width="16" height="16" viewBox="0 0 16 16" fill="none" xmlns="http://www.w3.org/2000/svg">
<path fill-rule="evenodd" clip-rule="evenodd" d="M7.99993 15.15C11.9488 15.15 15.15 11.9488 15.15 7.99993C15.15 4.10755 12.0364 0.932343 8.15136 0.851429C8.07576 0.850117 8.07576 0.850117 7.99993 0.849854C4.05105 0.849854 0.849854 4.05105 0.849854 7.99993C0.849854 8.49699 1.2528 8.89993 1.74985 8.89993C2.24691 8.89993 2.64985 8.49699 2.64985 7.99993C2.64985 5.04516 5.04516 2.64985 7.99993 2.64985C8.05701 2.65005 8.05701 2.65005 8.11388 2.65104C11.0201 2.71157 13.35 5.08755 13.35 7.99993C13.35 10.9547 10.9547 13.35 7.99993 13.35C7.50287 13.35 7.09993 13.753 7.09993 14.25C7.09993 14.7471 7.50287 15.15 7.99993 15.15Z" fill="currentColor"/>
</svg>
