<svg width="16" height="16" viewBox="0 0 16 17" fill="none" xmlns="http://www.w3.org/2000/svg">
<path d="M6.77638 3.21323C7.19259 2.01584 8.88599 2.01584 9.30221 3.21323L9.93431 5.03171C10.1179 5.55993 10.6109 5.91808 11.17 5.92948L13.0948 5.9687C14.3622 5.99453 14.8855 7.60505 13.8753 8.37091L12.3412 9.53401C11.8955 9.87187 11.7072 10.4514 11.8692 10.9866L12.4267 12.8293C12.7938 14.0427 11.4238 15.0381 10.3832 14.314L8.80298 13.2144C8.34396 12.8949 7.73463 12.8949 7.27561 13.2144L5.69535 14.314C4.65482 15.0381 3.28483 14.0427 3.65191 12.8293L4.2094 10.9866C4.37134 10.4514 4.18305 9.87187 3.73742 9.53401L2.20328 8.37091C1.1931 7.60505 1.71639 5.99453 2.9838 5.9687L4.9086 5.92948C5.46771 5.91808 5.96067 5.55993 6.14428 5.03171L6.77638 3.21323Z" fill="currentColor"/>
</svg>
