<svg width="16" height="16" viewBox="0 0 16 16" fill="none" xmlns="http://www.w3.org/2000/svg">
<path d="M4.0108 3.34265H9.35895C9.72816 3.34265 10.0275 3.64196 10.0275 4.01117V4.67969H11.3645V4.01117C11.3645 2.90353 10.4666 2.00562 9.35895 2.00562H4.0108C2.90317 2.00562 2.00525 2.90353 2.00525 4.01117V9.35931C2.00525 10.4669 2.90317 11.3649 4.0108 11.3649H4.67932V10.0278H4.0108C3.64159 10.0278 3.34228 9.72852 3.34228 9.35931V4.01117C3.34228 3.64196 3.64159 3.34265 4.0108 3.34265Z" fill="currentColor"/>
<path fill-rule="evenodd" clip-rule="evenodd" d="M12.0338 6.01672H6.68561C6.3164 6.01672 6.01709 6.31603 6.01709 6.68524V12.0334C6.01709 12.4026 6.3164 12.7019 6.68561 12.7019H12.0338C12.403 12.7019 12.7023 12.4026 12.7023 12.0334V6.68524C12.7023 6.31603 12.403 6.01672 12.0338 6.01672ZM6.68561 4.67969C5.57797 4.67969 4.68005 5.5776 4.68005 6.68524V12.0334C4.68005 13.141 5.57797 14.0389 6.68561 14.0389H12.0338C13.1414 14.0389 14.0393 13.141 14.0393 12.0334V6.68524C14.0393 5.5776 13.1414 4.67969 12.0338 4.67969H6.68561Z" fill="currentColor"/>
</svg>
