<svg width="13" height="12" viewBox="0 0 13 12" fill="none" xmlns="http://www.w3.org/2000/svg">
<path fill-rule="evenodd" clip-rule="evenodd" d="M5.95509 3.6632C6.36944 2.70328 6.8299 1.62808 6.9981 1.20312C7.03663 1.19785 7.1229 1.20161 7.24233 1.25397C7.51767 1.37468 7.68165 1.61147 7.68165 1.81223V4.03979C7.68165 4.37116 7.95027 4.63981 8.28159 4.63981H11.3278C11.3483 4.63981 11.462 4.66486 11.5919 4.86594C11.7174 5.06018 11.7561 5.27214 11.7375 5.38628C11.6896 5.67917 11.5103 6.7536 11.33 7.83335L11.3299 7.83404L11.3289 7.84024C11.1486 8.92051 10.9677 10.0044 10.9185 10.3054C10.9041 10.3933 10.8365 10.5127 10.6674 10.6242C10.499 10.7353 10.2845 10.7988 10.097 10.7988H5.20715V8.93306V5.86726C5.20715 5.84826 5.2067 5.82935 5.20583 5.81056V5.39132L5.22175 5.35477L5.3981 4.94921C5.54541 4.61013 5.74521 4.14945 5.95509 3.6632ZM4.20526 4.6835L4.29767 4.471C4.44474 4.13246 4.64414 3.67269 4.85354 3.18757C5.2747 2.21186 5.7294 1.1495 5.8857 0.753326C6.04621 0.346516 6.37538 0.107389 6.74319 0.0301385C7.08466 -0.0415774 7.43371 0.0276331 7.72401 0.1549C8.28723 0.401819 8.88148 0.99163 8.88148 1.81223V3.4398H11.3278C11.9234 3.4398 12.3586 3.84156 12.5997 4.21471C12.8452 4.59471 12.9993 5.10439 12.9216 5.57989C12.8734 5.87478 12.6942 6.94845 12.5146 8.02414L12.5143 8.0263L12.5123 8.03783C12.3317 9.11988 12.1514 10.2007 12.1026 10.499C12.019 11.0103 11.6872 11.3892 11.3278 11.6261C10.9676 11.8636 10.5243 11.9988 10.097 11.9988H5.20715V11.9989H2.74432C1.75035 11.9989 0.94458 11.193 0.94458 10.1988V6.46727C0.94458 5.47315 1.75035 4.66725 2.74432 4.66725H4.00732C4.07474 4.66725 4.14087 4.67281 4.20526 4.6835ZM4.00601 5.86726H2.74432C2.413 5.86726 2.1444 6.13589 2.1444 6.46727V10.1988C2.1444 10.5302 2.41299 10.7989 2.74432 10.7989H4.00601V5.86726Z" fill="currentColor"/>
</svg>
