<svg width="13" height="14" viewBox="0 0 13 14" fill="none" xmlns="http://www.w3.org/2000/svg">
<path fill-rule="evenodd" clip-rule="evenodd" d="M7.93173 9.33792C7.51718 10.2983 7.05649 11.374 6.88821 11.7992C6.84966 11.8045 6.76335 11.8007 6.64386 11.7483C6.36838 11.6276 6.20432 11.3907 6.20432 11.1898L6.20432 8.96115C6.20432 8.62961 5.93557 8.36083 5.60408 8.36083L2.55635 8.36083C2.53589 8.36083 2.42208 8.33576 2.29212 8.13459C2.16658 7.94026 2.12783 7.72819 2.1465 7.61399C2.19438 7.32104 2.3737 6.24667 2.55395 5.16674L2.55424 5.16503L2.55527 5.15882C2.73567 4.07802 2.91667 2.99355 2.96589 2.69248C2.98027 2.60454 3.04788 2.485 3.21708 2.37345C3.38557 2.26236 3.60015 2.19884 3.78775 2.19884L8.6804 2.19884L8.6804 4.06543L8.6804 7.13275C8.6804 7.14904 8.68072 7.16525 8.68136 7.18137L8.68136 7.60895L8.66544 7.64552L8.489 8.05127C8.34161 8.39052 8.14172 8.85143 7.93173 9.33792ZM9.68246 8.31704L9.58998 8.52973C9.44283 8.86843 9.24333 9.32843 9.03383 9.81379C8.61246 10.79 8.15754 11.8529 8.00115 12.2492C7.84057 12.6562 7.51124 12.8955 7.14324 12.9728C6.80161 13.0445 6.45238 12.9753 6.16194 12.848C5.59844 12.6009 5.0039 12.0108 5.0039 11.1898L5.0039 9.56144L2.55635 9.56144C1.96052 9.56144 1.52502 9.15947 1.28385 8.78614C1.03825 8.40596 0.884042 7.89603 0.961807 7.42028C1.01006 7.12506 1.18956 6.04962 1.36931 4.97267L1.37124 4.96113C1.55193 3.87855 1.73241 2.79722 1.78121 2.49875C1.86484 1.98715 2.19678 1.60814 2.55639 1.37105C2.91671 1.13348 3.36022 0.998229 3.78775 0.998229L8.6804 0.998228L8.6804 0.998118L11.1444 0.998118C12.1389 0.998118 12.9451 1.80441 12.9451 2.79903L12.9451 6.53244C12.9451 7.52706 12.1389 8.33336 11.1444 8.33336L9.88081 8.33336C9.81325 8.33336 9.74698 8.32777 9.68246 8.31704ZM9.88178 7.13275L11.1444 7.13275C11.4759 7.13275 11.7447 6.86398 11.7447 6.53244L11.7446 2.79903C11.7446 2.46749 11.4759 2.19872 11.1444 2.19872L9.88178 2.19873L9.88178 7.13275Z" fill="currentColor"/>
</svg>
