<svg width="16" height="16" viewBox="0 0 16 16" fill="none" xmlns="http://www.w3.org/2000/svg">
<path fill-rule="evenodd" clip-rule="evenodd" d="M-0.00012207 7.99992C-0.00012207 3.58162 3.58162 -0.00012207 7.99992 -0.00012207C10.1217 -0.00012207 12.1565 0.842737 13.6568 2.34304C15.1571 3.84333 16 5.87818 16 7.99992C16 12.4182 12.4182 16 7.99992 16C3.58162 16 -0.00012207 12.4182 -0.00012207 7.99992ZM12.0598 5.88163V5.53721C11.6363 5.53785 11.2211 5.41936 10.8618 5.1952C10.3268 4.86149 9.94131 4.31096 9.82829 3.6666C9.8175 3.60501 9.80922 3.54303 9.80348 3.4808V3.27266H8.17494V9.73611C8.17233 10.4895 7.56056 11.0996 6.80602 11.0996C6.58451 11.0996 6.37533 11.047 6.19012 10.9537C5.74342 10.7283 5.4371 10.2657 5.4371 9.73145C5.4371 8.97586 6.04992 8.36324 6.80602 8.36324C6.95088 8.36324 7.09051 8.38579 7.22148 8.42733L7.22155 7.13962V6.77296C7.08547 6.75437 6.94828 6.74504 6.81092 6.74511C5.15801 6.74508 3.81812 8.08425 3.81812 9.73611C3.81812 10.7716 4.34486 11.6845 5.1449 12.2214C5.62103 12.5409 6.19421 12.7273 6.81088 12.7273C8.46366 12.7273 9.80351 11.3881 9.80351 9.73615V6.43381C10.4396 6.8881 11.2185 7.15541 12.0598 7.15541L12.0598 5.88163Z" fill="currentColor"/>
</svg>
