<svg xmlns="http://www.w3.org/2000/svg" width="16" height="16" viewBox="0 0 16 16" fill="currentColor">
    <path fill-rule="evenodd" clip-rule="evenodd" d="M4.6795 3.34247C4.6795 2.23483 5.57742 1.33691 6.68506 1.33691H9.35913C10.4668 1.33691 11.3647 2.23483 11.3647 3.34247H13.3702H14.0388C14.408 3.34247 14.7073 3.64177 14.7073 4.01099C14.7073 4.3802 14.408 4.6795 14.0388 4.6795H13.3702V12.7017C13.3702 13.8094 12.4723 14.7073 11.3647 14.7073H4.6795C3.57187 14.7073 2.67395 13.8094 2.67395 12.7017V4.6795H2.00543C1.63622 4.6795 1.33691 4.3802 1.33691 4.01099C1.33691 3.64177 1.63622 3.34247 2.00543 3.34247H2.67395H4.6795ZM9.35913 2.67395C9.72834 2.67395 10.0276 2.97326 10.0276 3.34247H6.01654C6.01654 2.97326 6.31585 2.67395 6.68506 2.67395H9.35913ZM4.01099 4.6795H4.6795H11.3647H12.0332V12.7017C12.0332 13.0709 11.7339 13.3702 11.3647 13.3702H4.6795C4.31029 13.3702 4.01099 13.0709 4.01099 12.7017V4.6795ZM6.68463 6.68518C7.05384 6.68518 7.35315 6.98449 7.35315 7.3537V10.6963C7.35315 11.0655 7.05384 11.3648 6.68463 11.3648C6.31542 11.3648 6.01611 11.0655 6.01611 10.6963V7.3537C6.01611 6.98449 6.31542 6.68518 6.68463 6.68518ZM9.35944 6.68518C9.72865 6.68518 10.028 6.98449 10.028 7.3537V10.6963C10.028 11.0655 9.72865 11.3648 9.35944 11.3648C8.99022 11.3648 8.69092 11.0655 8.69092 10.6963V7.3537C8.69092 6.98449 8.99022 6.68518 9.35944 6.68518Z" fill="currentColor"/>
  </svg>