<svg width="18" height="20" viewBox="0 0 18 20" fill="none" xmlns="http://www.w3.org/2000/svg">
<path d="M14.5739 9.96489C14.5687 9.96281 14.5642 9.95923 14.5611 9.95459C14.5579 9.94996 14.5563 9.94449 14.5563 9.93889C14.5563 9.9333 14.5579 9.92783 14.5611 9.92319C14.5642 9.91856 14.5687 9.91497 14.5739 9.9129C16.9141 8.713 17.3349 6.05724 16.1167 5.17732C14.7662 4.2054 13.1073 5.3453 12.7707 5.57728C12.7661 5.58061 12.7607 5.58248 12.755 5.58266C12.7494 5.58284 12.7438 5.58132 12.739 5.5783C12.7343 5.57528 12.7306 5.57089 12.7283 5.56571C12.7261 5.56054 12.7255 5.55481 12.7266 5.54928C13.2956 2.0016 10.0738 -0.990135 6.19486 0.30975C1.65872 1.83761 3.38983 7.44112 3.69037 8.34104C3.69462 8.3474 3.69616 8.35519 3.69466 8.36269C3.69316 8.37019 3.68873 8.37679 3.68235 8.38103C3.67598 8.38528 3.66817 8.38682 3.66066 8.38532C3.65314 8.38382 3.64653 8.3794 3.64228 8.37303C2.27182 7.10915 -1.05014 8.68901 0.328333 13.0806C1.258 16.0284 4.70819 16.3443 6.90013 16.3443H7.2768C7.04802 17.5506 6.91403 18.7729 6.87608 20H10.4265C10.0674 18.8063 9.81665 17.5828 9.67711 16.3443H10.727C12.1135 16.3443 15.211 16.0963 16.5855 14.1085C18.6693 11.0888 16.0926 9.74491 14.5739 9.96489Z" fill="currentColor"/>
</svg>
