<svg width="16" height="16" viewBox="0 0 16 16" fill="none" xmlns="http://www.w3.org/2000/svg">
<path fill-rule="evenodd" clip-rule="evenodd" d="M0 8C0 3.58172 3.58172 0 8 0C12.4183 0 16 3.58172 16 8C16 12.4183 12.4183 16 8 16C3.58172 16 0 12.4183 0 8ZM7.7604 6.5025L7.77719 6.77932L7.4974 6.74542C6.47895 6.61549 5.58922 6.17484 4.83378 5.43477L4.46445 5.06757L4.36933 5.33873C4.16787 5.94321 4.29658 6.58159 4.71627 7.01094C4.9401 7.24821 4.88974 7.28211 4.50362 7.14088C4.36933 7.09568 4.25181 7.06179 4.24062 7.07873C4.20145 7.11828 4.33575 7.63237 4.44207 7.83575C4.58756 8.11821 4.88414 8.39503 5.2087 8.55886L5.4829 8.6888L5.15834 8.69445C4.84497 8.69445 4.83378 8.7001 4.86735 8.81873C4.97927 9.18594 5.42134 9.57575 5.91378 9.74523L6.26072 9.86386L5.95854 10.0446C5.51088 10.3045 4.98487 10.4514 4.45886 10.4627C4.20705 10.4683 4 10.4909 4 10.5079C4 10.5644 4.68269 10.8807 5.08 11.005C6.27191 11.3722 7.68765 11.2141 8.75086 10.587C9.5063 10.1407 10.2617 9.25373 10.6143 8.39503C10.8045 7.93743 10.9948 7.10133 10.9948 6.70023C10.9948 6.44036 11.0116 6.40646 11.3249 6.09575C11.5096 5.91497 11.6831 5.71724 11.7167 5.66075C11.7726 5.55341 11.767 5.55341 11.4816 5.64945C11.006 5.81893 10.9388 5.79633 11.1739 5.54211C11.3473 5.36133 11.5544 5.03367 11.5544 4.93763C11.5544 4.92068 11.4704 4.94893 11.3753 4.99977C11.2746 5.05627 11.0508 5.14101 10.8829 5.19185L10.5807 5.28789L10.3065 5.10146C10.1554 4.99977 9.94278 4.88679 9.83086 4.85289C9.54547 4.7738 9.109 4.7851 8.85159 4.87549C8.15211 5.12971 7.71004 5.78503 7.7604 6.5025Z" fill="currentColor"/>
</svg>
