<svg width="16" height="16" viewBox="0 0 16 16" fill="none" xmlns="http://www.w3.org/2000/svg">
<path fill-rule="evenodd" clip-rule="evenodd" d="M9.00001 14.5C9.00001 13.9477 8.55229 13.5 8.00001 13.5C7.44772 13.5 7.00001 13.9477 7.00001 14.5C7.00001 15.0523 7.44772 15.5 8.00001 15.5C8.55229 15.5 9.00001 15.0523 9.00001 14.5ZM4.98842 13.8464C5.31305 13.3996 5.214 12.7742 4.76719 12.4496C4.32038 12.125 3.69501 12.224 3.37039 12.6708C3.04576 13.1176 3.14481 13.743 3.59162 14.0676C4.03843 14.3923 4.6638 14.2932 4.98842 13.8464ZM12.4084 14.0676C12.8552 13.743 12.9543 13.1176 12.6296 12.6708C12.305 12.224 11.6796 12.125 11.2328 12.4496C10.786 12.7742 10.687 13.3996 11.0116 13.8464C11.3362 14.2932 11.9616 14.3923 12.4084 14.0676ZM2.12716 10.9597C2.65241 10.789 2.93986 10.2248 2.7692 9.69959C2.59853 9.17434 2.03438 8.88689 1.50912 9.05755C0.98387 9.22822 0.696419 9.79237 0.867085 10.3176C1.03775 10.8429 1.6019 11.1303 2.12716 10.9597ZM15.1329 10.3176C15.3036 9.79237 15.0161 9.22822 14.4909 9.05755C13.9656 8.88689 13.4015 9.17434 13.2308 9.69959C13.0602 10.2248 13.3476 10.789 13.8729 10.9597C14.3981 11.1303 14.9623 10.8429 15.1329 10.3176ZM2.7692 6.30041C2.93986 5.77515 2.65241 5.211 2.12716 5.04033C1.6019 4.86967 1.03775 5.15712 0.867085 5.68237C0.696419 6.20763 0.98387 6.77178 1.50912 6.94245C2.03438 7.11311 2.59853 6.82566 2.7692 6.30041ZM14.4909 6.94245C15.0161 6.77178 15.3036 6.20763 15.1329 5.68237C14.9623 5.15712 14.3981 4.86967 13.8729 5.04033C13.3476 5.211 13.0602 5.77515 13.2308 6.30041C13.4015 6.82566 13.9656 7.11311 14.4909 6.94245ZM4.76719 3.55041C5.214 3.22578 5.31305 2.60041 4.98842 2.1536C4.6638 1.7068 4.03843 1.60775 3.59162 1.93237C3.14481 2.257 3.04576 2.88237 3.37039 3.32917C3.69501 3.77598 4.32038 3.87503 4.76719 3.55041ZM12.6296 3.32917C12.9543 2.88237 12.8552 2.257 12.4084 1.93237C11.9616 1.60775 11.3362 1.7068 11.0116 2.1536C10.687 2.60041 10.786 3.22578 11.2328 3.55041C11.6796 3.87503 12.305 3.77598 12.6296 3.32917ZM9.00001 1.5C9.00001 0.947715 8.55229 0.5 8.00001 0.5C7.44772 0.5 7.00001 0.947715 7.00001 1.5C7.00001 2.05228 7.44772 2.5 8.00001 2.5C8.55229 2.5 9.00001 2.05228 9.00001 1.5ZM9.75937 8.66061C10.0687 8.27472 10.2533 7.78627 10.2533 7.25269C10.2533 6.00825 9.24444 4.99944 8.00001 4.99944C6.75557 4.99944 5.74676 6.00825 5.74676 7.25269C5.74676 7.78623 5.93127 8.27463 6.24056 8.66051L6.24279 8.66328C6.28607 8.7172 6.32722 8.773 6.36834 8.82876L6.36836 8.82879C6.38945 8.85738 6.41053 8.88596 6.43188 8.91427C6.54128 9.0593 6.69554 9.26297 6.87477 9.49722C7.20877 9.93373 7.626 10.4718 8.00027 10.9338C8.37572 10.4708 8.7939 9.93191 9.12856 9.49482C9.30811 9.26031 9.46262 9.05644 9.57217 8.91128C9.59574 8.88006 9.61885 8.84835 9.64198 8.81662L9.64202 8.81656C9.68038 8.76392 9.71879 8.71124 9.75937 8.66061ZM10.3431 9.12856L10.342 9.13001C10.3229 9.15558 10.1473 9.39017 9.8929 9.72429C9.51545 10.22 8.96448 10.9347 8.49342 11.5109C8.23573 11.8261 7.76438 11.8259 7.50684 11.5106C6.70171 10.5248 5.66042 9.13071 5.66042 9.13071L5.65799 9.12769C5.24628 8.61409 5.00001 7.96215 5.00001 7.25269C5.00001 5.59583 6.34315 4.25269 8.00001 4.25269C9.65686 4.25269 11 5.59583 11 7.25269C11 7.69411 10.9047 8.11326 10.7335 8.49068C10.6299 8.71901 10.4986 8.93205 10.3438 9.12552L10.3427 9.12687L10.342 9.12769H10.3438L10.3431 9.12856ZM7.99986 7.61314C8.20607 7.61314 8.37324 7.44597 8.37324 7.23976C8.37324 7.03355 8.20607 6.86638 7.99986 6.86638C7.79365 6.86638 7.62648 7.03355 7.62648 7.23976C7.62648 7.44597 7.79365 7.61314 7.99986 7.61314ZM9.11999 7.23976C9.11999 7.85839 8.61849 8.35989 7.99986 8.35989C7.38123 8.35989 6.87973 7.85839 6.87973 7.23976C6.87973 6.62113 7.38123 6.11963 7.99986 6.11963C8.61849 6.11963 9.11999 6.62113 9.11999 7.23976Z" fill="currentColor"/>
</svg>
