<svg width="16" height="16" viewBox="0 0 16 16" fill="none" xmlns="http://www.w3.org/2000/svg">
<path fill-rule="evenodd" clip-rule="evenodd" d="M8 0C3.58172 0 0 3.58172 0 8C0 12.4183 3.58172 16 8 16C12.4183 16 16 12.4183 16 8C16 3.58172 12.4183 0 8 0ZM11.825 5.52421C12.0804 5.78881 12.1638 6.38969 12.1638 6.38969C12.1638 6.38969 12.249 7.09549 12.249 7.80101V8.46266C12.249 9.16845 12.1638 9.87398 12.1638 9.87398C12.1638 9.87398 12.0804 10.4749 11.825 10.7395C11.5331 11.0525 11.2094 11.0848 11.0264 11.1031C11.0063 11.1051 10.9878 11.107 10.9713 11.109C9.77893 11.1973 7.98846 11.2 7.98846 11.2C7.98846 11.2 5.77299 11.1793 5.09131 11.1123C5.05901 11.1061 5.01986 11.1013 4.97552 11.0958C4.75959 11.0693 4.42068 11.0277 4.1516 10.7395C3.89624 10.4749 3.81316 9.87398 3.81316 9.87398C3.81316 9.87398 3.72795 9.16845 3.72795 8.46266V7.80101C3.72795 7.09549 3.81316 6.38969 3.81316 6.38969C3.81316 6.38969 3.89624 5.78881 4.1516 5.52421C4.44421 5.21075 4.76824 5.17875 4.95124 5.16069C4.97108 5.15873 4.98926 5.15693 5.00557 5.15496C6.19798 5.06667 7.98659 5.06667 7.98659 5.06667H7.99032C7.99032 5.06667 9.77893 5.06667 10.9713 5.15496C10.9876 5.15693 11.0058 5.15873 11.0257 5.16069C11.2086 5.17876 11.5327 5.2108 11.825 5.52421ZM7.10839 6.81426L7.10866 9.26438L9.41067 8.04354L7.10839 6.81426Z" fill="currentColor"/>
</svg>
