<svg width="16" height="18" viewBox="0 0 16 18" fill="none" xmlns="http://www.w3.org/2000/svg">
<path fill-rule="evenodd" clip-rule="evenodd" d="M2.67419 5.6319C2.67419 5.26268 2.9735 4.96338 3.34271 4.96338L11.4223 4.96338L9.88944 3.43054C9.62836 3.16947 9.62836 2.74618 9.88944 2.48511C10.1505 2.22404 10.5738 2.22404 10.8349 2.48511L13.0362 4.68647C13.5584 5.20861 13.5584 6.05518 13.0362 6.57732L10.8349 8.77868C10.5738 9.03975 10.1505 9.03975 9.88944 8.77868C9.62836 8.51761 9.62836 8.09433 9.88944 7.83325L11.4223 6.30042H3.34271C2.9735 6.30042 2.67419 6.00111 2.67419 5.6319ZM6.15509 15.4635C6.41617 15.2024 6.41617 14.7791 6.15509 14.5181L4.62225 12.9852H12.7018C13.071 12.9852 13.3703 12.6859 13.3703 12.3167C13.3703 11.9475 13.071 11.6482 12.7018 11.6482L4.62225 11.6482L6.15509 10.1154C6.41617 9.85428 6.41617 9.431 6.15509 9.16993C5.89402 8.90885 5.47074 8.90885 5.20967 9.16993L3.00831 11.3713C2.48616 11.8934 2.48616 12.74 3.00831 13.2621L5.20967 15.4635C5.47074 15.7246 5.89402 15.7246 6.15509 15.4635Z" fill="currentColor"/>
</svg>
