<svg width="16" height="16" viewBox="0 0 16 16" fill="none" xmlns="http://www.w3.org/2000/svg">
<path fill-rule="evenodd" clip-rule="evenodd" d="M8.02209 1.33716C4.32997 1.33716 1.33691 4.33021 1.33691 8.02234C1.33691 11.7145 4.32997 14.7075 8.02209 14.7075C11.7142 14.7075 14.7073 11.7145 14.7073 8.02234C14.7073 4.33021 11.7142 1.33716 8.02209 1.33716ZM2.84244 6.6853C2.73245 7.11265 2.67395 7.56066 2.67395 8.02234C2.67395 8.48402 2.73245 8.93203 2.84244 9.35937H4.74256C4.70108 8.92622 4.6795 8.47886 4.6795 8.02234C4.6795 7.56582 4.70108 7.11846 4.74256 6.6853H2.84244ZM3.38944 5.34827H4.94235C5.08405 4.66403 5.27958 4.03812 5.52034 3.4964C5.56063 3.40576 5.60248 3.31679 5.64592 3.22973C4.70151 3.69887 3.91545 4.43894 3.38944 5.34827ZM6.08637 6.6853C6.04095 7.11153 6.01654 7.55919 6.01654 8.02234C6.01654 8.48549 6.04095 8.93314 6.08637 9.35937H9.95782C10.0032 8.93314 10.0276 8.48549 10.0276 8.02234C10.0276 7.55919 10.0032 7.11153 9.95782 6.6853H6.08637ZM9.7324 5.34827H6.31178C6.42789 4.85868 6.57395 4.41786 6.74214 4.03943C6.9614 3.54609 7.20517 3.18823 7.44209 2.96277C7.67556 2.74058 7.8704 2.67419 8.02209 2.67419C8.17378 2.67419 8.36862 2.74058 8.6021 2.96277C8.83902 3.18823 9.08279 3.54609 9.30205 4.03943C9.47024 4.41786 9.6163 4.85868 9.7324 5.34827ZM11.3016 6.6853C11.3431 7.11846 11.3647 7.56582 11.3647 8.02234C11.3647 8.47886 11.3431 8.92622 11.3016 9.35937H13.2017C13.3117 8.93203 13.3702 8.48402 13.3702 8.02234C13.3702 7.56066 13.3117 7.11265 13.2017 6.6853H11.3016ZM12.6548 5.34827H11.1018C10.9601 4.66403 10.7646 4.03812 10.5238 3.4964C10.4836 3.40576 10.4417 3.31679 10.3983 3.22973C11.3427 3.69887 12.1287 4.43894 12.6548 5.34827ZM5.64592 12.8149C4.70151 12.3458 3.91545 11.6057 3.38944 10.6964H4.94235C5.08405 11.3806 5.27958 12.0066 5.52034 12.5483C5.56063 12.6389 5.60248 12.7279 5.64592 12.8149ZM6.74214 12.0052C6.57395 11.6268 6.42789 11.186 6.31178 10.6964H9.7324C9.6163 11.186 9.47024 11.6268 9.30205 12.0052C9.08279 12.4986 8.83902 12.8564 8.6021 13.0819C8.36862 13.3041 8.17378 13.3705 8.02209 13.3705C7.8704 13.3705 7.67556 13.3041 7.44209 13.0819C7.20517 12.8564 6.9614 12.4986 6.74214 12.0052ZM10.5238 12.5483C10.7646 12.0066 10.9601 11.3806 11.1018 10.6964H12.6548C12.1287 11.6057 11.3427 12.3458 10.3983 12.8149C10.4417 12.7279 10.4836 12.6389 10.5238 12.5483Z" fill="currentColor"/>
</svg>
