<svg width="16" height="16" viewBox="0 0 16 16" fill="none" xmlns="http://www.w3.org/2000/svg">
<path fill-rule="evenodd" clip-rule="evenodd" d="M8.0224 8.69067C8.39161 8.69067 8.69092 8.39137 8.69092 8.02216C8.69092 7.65294 8.39161 7.35364 8.0224 7.35364C7.65319 7.35364 7.35388 7.65294 7.35388 8.02216C7.35388 8.39137 7.65319 8.69067 8.0224 8.69067ZM8.0224 10.0277C9.13004 10.0277 10.028 9.12979 10.028 8.02216C10.028 6.91452 9.13004 6.0166 8.0224 6.0166C6.91476 6.0166 6.01685 6.91452 6.01685 8.02216C6.01685 9.12979 6.91476 10.0277 8.0224 10.0277Z" fill="currentColor" />
<path fill-rule="evenodd" clip-rule="evenodd" d="M8.02209 1.33716C8.39131 1.33716 8.69061 1.63646 8.69061 2.00568V2.71557C11.1098 3.01724 13.0272 4.93464 13.3289 7.35382H14.0388C14.408 7.35382 14.7073 7.65313 14.7073 8.02234C14.7073 8.39155 14.408 8.69086 14.0388 8.69086H13.3289C13.0272 11.11 11.1098 13.0274 8.69061 13.3291V14.039C8.69061 14.4082 8.39131 14.7075 8.02209 14.7075C7.65288 14.7075 7.35358 14.4082 7.35358 14.039V13.3291C4.9344 13.0274 3.01699 11.11 2.71533 8.69086H2.00543C1.63622 8.69086 1.33691 8.39155 1.33691 8.02234C1.33691 7.65313 1.63622 7.35382 2.00543 7.35382H2.71533C3.01699 4.93464 4.9344 3.01724 7.35358 2.71557V2.00568C7.35358 1.63646 7.65288 1.33716 8.02209 1.33716ZM8.02209 12.0334C10.2374 12.0334 12.0332 10.2376 12.0332 8.02234C12.0332 5.80706 10.2374 4.01123 8.02209 4.01123C5.80682 4.01123 4.01099 5.80706 4.01099 8.02234C4.01099 10.2376 5.80682 12.0334 8.02209 12.0334Z" fill="currentColor" />
</svg>
