<svg width="16" height="17" viewBox="0 0 16 17" fill="none" xmlns="http://www.w3.org/2000/svg">
<path fill-rule="evenodd" clip-rule="evenodd" d="M4.67887 6.51663C4.67887 6.14742 4.97818 5.84811 5.34739 5.84811H10.6955C11.0647 5.84811 11.3641 6.14742 11.3641 6.51663C11.3641 6.88584 11.0647 7.18515 10.6955 7.18515H5.34739C4.97818 7.18515 4.67887 6.88584 4.67887 6.51663Z" fill="currentColor"/>
<path fill-rule="evenodd" clip-rule="evenodd" d="M4.67887 9.19073C4.67887 8.82152 4.97818 8.52221 5.34739 8.52221H8.02146C8.39068 8.52221 8.68998 8.82152 8.68998 9.19073C8.68998 9.55994 8.39068 9.85925 8.02146 9.85925H5.34739C4.97818 9.85925 4.67887 9.55994 4.67887 9.19073Z" fill="currentColor"/>
<path fill-rule="evenodd" clip-rule="evenodd" d="M4.49183 12.1746C4.73211 11.9743 5.035 11.8647 5.34778 11.8647H12.7015C13.0707 11.8647 13.37 11.5654 13.37 11.1962V4.51099C13.37 4.14177 13.0707 3.84247 12.7015 3.84247H3.34222C2.97301 3.84247 2.67371 4.14177 2.67371 4.51099V13.6897L4.49183 12.1746ZM5.34778 13.2017H12.7015C13.8091 13.2017 14.707 12.3038 14.707 11.1962V4.51099C14.707 3.40335 13.8091 2.50543 12.7015 2.50543H3.34222C2.23459 2.50543 1.33667 3.40335 1.33667 4.51099V13.6897C1.33667 14.8233 2.65881 15.4425 3.52965 14.7168L5.34778 13.2017Z" fill="currentColor"/>
</svg>
