<svg width="16" height="16" viewBox="0 0 16 16" fill="none" xmlns="http://www.w3.org/2000/svg">
<path fill-rule="evenodd" clip-rule="evenodd" d="M14.7065 8.02209C14.7065 11.7142 11.7135 14.7073 8.02136 14.7073C4.32924 14.7073 1.33618 11.7142 1.33618 8.02209C1.33618 4.32997 4.32924 1.33691 8.02136 1.33691C11.7135 1.33691 14.7065 4.32997 14.7065 8.02209ZM13.3695 8.02209C13.3695 10.9758 10.9751 13.3702 8.02136 13.3702C5.06766 13.3702 2.67322 10.9758 2.67322 8.02209C2.67322 5.0684 5.06766 2.67395 8.02136 2.67395C9.59784 2.67395 11.015 3.35605 11.9938 4.44123L7.35284 9.08222L5.48574 7.21512C5.22467 6.95405 4.80139 6.95405 4.54032 7.21512C4.27924 7.47619 4.27924 7.89948 4.54032 8.16055L6.40742 10.0276C6.92956 10.5498 7.77613 10.5498 8.29827 10.0276L12.7688 5.55711C13.1526 6.29475 13.3695 7.13309 13.3695 8.02209Z" fill="currentColor"/>
</svg>
