<svg width="16" height="16" fill="none" xmlns="http://www.w3.org/2000/svg"><path d="M7.68518 14.3704c3.69212 0 6.68522-2.9931 6.68522-6.68522 0-1.10842-.2698-2.15384-.7472-3.07418-.1-.19277-.3572-.22413-.5108-.07057l-5.15031 5.1503c-.52215.52217-1.36871.52217-1.89086 0l-1.86709-1.8671c-.26108-.26107-.26108-.68435 0-.94542.26107-.26108.68435-.26108.94542 0l1.8671 1.8671 5.36244-5.35866c.1268-.1267.1317-.33153.0041-.4575C11.1758 1.73636 9.5165 1 7.68518 1 3.99306 1 1 3.99306 1 7.68518s2.99306 6.68522 6.68518 6.68522Z" fill="currentColor"/></svg>
