<svg width="16" height="16" viewBox="0 0 16 16" fill="none" xmlns="http://www.w3.org/2000/svg">
<path d="M11.5028 6.21092C11.7639 6.47199 11.7639 6.89527 11.5028 7.15635C11.2418 7.41742 10.8185 7.41742 10.5574 7.15635L8.69158 5.29051V10.0278C8.69158 10.397 8.39227 10.6963 8.02306 10.6963C7.65385 10.6963 7.35454 10.397 7.35454 10.0278V5.29053L5.48742 7.15765C5.22635 7.41872 4.80307 7.41872 4.542 7.15765C4.28092 6.89658 4.28092 6.4733 4.542 6.21222L7.55035 3.20386C7.67573 3.07849 7.84577 3.00806 8.02307 3.00806C8.20037 3.00806 8.37041 3.07849 8.49578 3.20386L11.5028 6.21092Z" fill="currentColor"/>
<path fill-rule="evenodd" clip-rule="evenodd" d="M2.67438 9.35913C3.04359 9.35913 3.3429 9.65844 3.3429 10.0276V11.3647C3.3429 11.7339 3.6422 12.0332 4.01141 12.0332H12.0336C12.4028 12.0332 12.7021 11.7339 12.7021 11.3647V10.0276C12.7021 9.65844 13.0015 9.35913 13.3707 9.35913C13.7399 9.35913 14.0392 9.65844 14.0392 10.0276V11.3647C14.0392 12.4723 13.1413 13.3702 12.0336 13.3702H4.01141C2.90378 13.3702 2.00586 12.4723 2.00586 11.3647V10.0276C2.00586 9.65844 2.30517 9.35913 2.67438 9.35913Z" fill="currentColor"/>
</svg>
