<svg width="16" height="16" viewBox="0 0 16 16" fill="none" xmlns="http://www.w3.org/2000/svg">
<path d="M2.61044 4.18337C1.90788 5.23734 2.29364 7.13892 2.6103 7.98336H3.5603C3.5603 7.6667 3.68697 6.97003 4.19363 6.7167C4.82697 6.40003 5.45992 7.35003 6.40992 7.35003C7.04288 7.35003 7.67696 6.92781 7.99363 6.7167C8.41585 6.82225 8.94325 7.03336 9.89362 7.03336C11.1599 7.03336 11.7936 6.08336 11.7936 6.08336C11.7936 6.08336 14.3262 6.08337 14.0099 3.55004C13.6929 1.96671 11.7932 1.65004 11.1603 1.96671C11.1603 1.96671 9.89274 1.33337 8.62658 1.33337C7.36043 1.33337 6.64499 1.6614 6.09325 1.96671C5.40038 2.35011 4.93252 2.9167 4.82697 3.23337C4.61582 3.23337 3.24369 3.23337 2.61044 4.18337Z" fill="#8A5C66"/>
<path d="M3.77397 7.84531C3.76302 7.74374 3.67728 7.66675 3.57512 7.66675H2.5687C2.46654 7.66675 2.3808 7.74374 2.36985 7.84531L1.73017 13.7786C1.71742 13.8969 1.81008 14.0001 1.92902 14.0001H10.3266C10.437 14.0001 10.5266 13.9105 10.5266 13.8001V9.25702C10.5266 9.10834 10.3701 9.01164 10.2371 9.07813L7.63415 10.3796C7.50117 10.4461 7.34471 10.3494 7.34471 10.2007V9.25721C7.34471 9.10848 7.18816 9.01179 7.05517 9.07837L4.32564 10.4449C4.20093 10.5073 4.05221 10.4262 4.03726 10.2875L3.77397 7.84531Z" fill="#632F3C"/>
</svg>
