<svg width="16" height="16" viewBox="0 0 16 16" fill="none" xmlns="http://www.w3.org/2000/svg">
<path fill-rule="evenodd" clip-rule="evenodd" d="M15 2.8C15 2.35817 14.6418 2 14.2 2H1.8C1.35817 2 1 2.35817 1 2.8C1 3.24183 1.35817 3.6 1.8 3.6H14.2C14.6418 3.6 15 3.24183 15 2.8ZM15 12.8C15 12.3582 14.6418 12 14.2 12H1.8C1.35817 12 1 12.3582 1 12.8C1 13.2418 1.35817 13.6 1.8 13.6H14.2C14.6418 13.6 15 13.2418 15 12.8ZM14.2 7C14.6418 7 15 7.35817 15 7.8C15 8.24183 14.6418 8.6 14.2 8.6H5.8C5.35817 8.6 5 8.24183 5 7.8C5 7.35817 5.35817 7 5.8 7H14.2Z" fill="currentColor"/>
</svg>
