<svg width="16" height="16" viewBox="0 0 16 16" fill="none" xmlns="http://www.w3.org/2000/svg">
<path fill-rule="evenodd" clip-rule="evenodd" d="M10.4613 6.76942C11.1409 6.76942 11.6919 6.21845 11.6919 5.5388C11.6919 4.85914 11.1409 4.30817 10.4613 4.30817C9.78164 4.30817 9.23067 4.85914 9.23067 5.5388C9.23067 6.21845 9.78164 6.76942 10.4613 6.76942Z" fill="currentColor"/>
<path fill-rule="evenodd" clip-rule="evenodd" d="M1.84692 3.69286C1.84692 2.67338 2.67338 1.84692 3.69286 1.84692H12.3072C13.3267 1.84692 14.1532 2.67338 14.1532 3.69286V12.3072C14.1532 13.3267 13.3267 14.1532 12.3072 14.1532H3.69286C2.67338 14.1532 1.84692 13.3267 1.84692 12.3072V3.69286ZM3.69286 3.07755H12.3072C12.6471 3.07755 12.9225 3.35303 12.9225 3.69286V12.3072C12.9225 12.4474 12.8756 12.5767 12.7967 12.6802C12.7778 12.6551 12.7574 12.6305 12.7354 12.6065L7.11956 6.48014C6.3644 5.65633 5.05618 5.68722 4.34074 6.54575L3.07755 8.06158V3.69286C3.07755 3.35303 3.35303 3.07755 3.69286 3.07755ZM3.07755 9.98387V12.3072C3.07755 12.6471 3.35303 12.9225 3.69286 12.9225H11.3557L6.2124 7.31171C5.96068 7.0371 5.52461 7.0474 5.28613 7.33357L3.07755 9.98387Z" fill="currentColor"/>
</svg>
