<svg xmlns="http://www.w3.org/2000/svg" fill="none" width="9" height="12" viewBox="0 0 9 12"><path fill="currentColor" d="M7.2793.4066c-1.0028.2187-3.0239.6056-5.1066 2.2495C.1877 4.2224.3041 6.5687.4568 7.545a.9756.9756 0 0 0 .0102.0542c.0162.0718.0075.1507-.0249.2275-.4629 1.0826-.603 2.1566-.1837 3.1174.033.0741.0963.1306.1796.1604.0833.0299.1818.0313.2797.0041l.5035-.138a.5916.5916 0 0 0 .1908-.0932.5472.5472 0 0 0 .1413-.1515.4144.4144 0 0 0 .062-.1781.306.306 0 0 0-.03-.1674c-.2648-.5226-.3325-1.1083-.2037-1.7692.011-.0555.046-.1094.0974-.15a.306.306 0 0 1 .1765-.0666l.0023-.0002c1.2585-.0562 3.6508-.4539 5.1058-2.6763C8.1407 3.6157 8.1338 1.8314 8.1357.963c.0014-.7562-.2212-.6946-.8564-.5564Z"/></svg>
