<svg width="16" height="16" viewBox="0 0 16 16" fill="none" xmlns="http://www.w3.org/2000/svg">
<path fill-rule="evenodd" clip-rule="evenodd" d="M8 16C3.58172 16 0 12.4183 0 8C0 3.58172 3.58172 0 8 0C12.4183 0 16 3.58172 16 8C16 12.4183 12.4183 16 8 16ZM4.88349 5.93528C5.43425 5.93528 5.88074 5.5281 5.88074 5.02527C5.88074 4.522 5.43425 4.11429 4.88349 4.11429C4.3322 4.11429 3.88571 4.522 3.88571 5.02527C3.88571 5.5281 4.3322 5.93528 4.88349 5.93528ZM4.11429 11.7892H5.90362V6.62857H4.11429V11.7892ZM8.41497 8.91896C8.41497 8.32715 8.69497 7.74841 9.36448 7.74841C10.034 7.74841 10.1986 8.32715 10.1986 8.90481V11.7233H11.9799V8.78958C11.9799 6.75138 10.7751 6.4 10.034 6.4C9.29346 6.4 8.88502 6.65048 8.41497 7.25742V6.56266H6.62857V11.7233H8.41497V8.91896Z" fill="currentColor"/>
</svg>
