<svg width="16" height="16" viewBox="0 0 16 16" fill="none" xmlns="http://www.w3.org/2000/svg">
<path fill-rule="evenodd" clip-rule="evenodd" d="M11.1726 9.2294C11.7265 8.53847 12.0569 7.66393 12.0569 6.70855C12.0569 4.48044 10.2506 2.67419 8.02252 2.67419C5.7944 2.67419 3.98816 4.48044 3.98816 6.70855C3.98816 7.66384 4.31851 8.53831 4.87229 9.22921L4.87628 9.23417C4.99352 9.38025 5.10207 9.53404 5.21484 9.68356C5.41071 9.94323 5.68691 10.3079 6.00782 10.7273C6.60584 11.5089 7.35287 12.4723 8.023 13.2995C8.69522 12.4706 9.44396 11.5056 10.0432 10.723C10.3646 10.3031 10.6413 9.93812 10.8374 9.67822C10.9496 9.52954 11.0561 9.37471 11.1726 9.2294ZM12.2178 10.0672C12.2178 10.0672 12.2166 10.0688 12.2158 10.0698C12.1816 10.1156 11.8672 10.5357 11.4117 11.1339C10.7359 12.0214 9.74938 13.301 8.90595 14.3327C8.44458 14.897 7.60063 14.8968 7.13953 14.3322C5.69797 12.5672 3.83357 10.0711 3.83357 10.0711L3.82922 10.0657C3.09206 9.1461 2.65112 7.97882 2.65112 6.70855C2.65112 3.74201 5.05598 1.33716 8.02252 1.33716C10.9891 1.33716 13.3939 3.74201 13.3939 6.70855C13.3939 7.49891 13.2232 8.24939 12.9167 8.92515C12.7312 9.33395 12.4961 9.71541 12.2189 10.0618L12.217 10.0642L12.2158 10.0657H12.2189L12.2178 10.0672Z" fill="currentColor"/>
<path fill-rule="evenodd" clip-rule="evenodd" d="M8.02216 7.35376C8.39137 7.35376 8.69067 7.05445 8.69067 6.68524C8.69067 6.31603 8.39137 6.01672 8.02216 6.01672C7.65294 6.01672 7.35364 6.31603 7.35364 6.68524C7.35364 7.05445 7.65294 7.35376 8.02216 7.35376ZM10.0277 6.68524C10.0277 7.79288 9.12979 8.69079 8.02216 8.69079C6.91452 8.69079 6.0166 7.79288 6.0166 6.68524C6.0166 5.5776 6.91452 4.67969 8.02216 4.67969C9.12979 4.67969 10.0277 5.5776 10.0277 6.68524Z" fill="currentColor"/>
</svg>
