<svg width="16" height="16" viewBox="0 0 16 16" fill="none" xmlns="http://www.w3.org/2000/svg">
<path fill-rule="evenodd" clip-rule="evenodd" d="M8.02216 4.01123C8.39137 4.01123 8.69067 3.71192 8.69067 3.34271C8.69067 2.9735 8.39137 2.67419 8.02216 2.67419C7.65294 2.67419 7.35364 2.9735 7.35364 3.34271C7.35364 3.71192 7.65294 4.01123 8.02216 4.01123ZM8.02216 5.34827C9.12979 5.34827 10.0277 4.45035 10.0277 3.34271C10.0277 2.23508 9.12979 1.33716 8.02216 1.33716C6.91452 1.33716 6.0166 2.23508 6.0166 3.34271C6.0166 4.45035 6.91452 5.34827 8.02216 5.34827Z" fill="currentColor"/>
<path fill-rule="evenodd" clip-rule="evenodd" d="M8.02216 8.69067C8.39137 8.69067 8.69067 8.39137 8.69067 8.02216C8.69067 7.65294 8.39137 7.35364 8.02216 7.35364C7.65294 7.35364 7.35364 7.65294 7.35364 8.02216C7.35364 8.39137 7.65294 8.69067 8.02216 8.69067ZM8.02216 10.0277C9.12979 10.0277 10.0277 9.12979 10.0277 8.02216C10.0277 6.91452 9.12979 6.0166 8.02216 6.0166C6.91452 6.0166 6.0166 6.91452 6.0166 8.02216C6.0166 9.12979 6.91452 10.0277 8.02216 10.0277Z" fill="currentColor"/>
<path fill-rule="evenodd" clip-rule="evenodd" d="M8.02216 13.3701C8.39137 13.3701 8.69067 13.0708 8.69067 12.7016C8.69067 12.3324 8.39137 12.0331 8.02216 12.0331C7.65294 12.0331 7.35364 12.3324 7.35364 12.7016C7.35364 13.0708 7.65294 13.3701 8.02216 13.3701ZM8.02216 14.7072C9.12979 14.7072 10.0277 13.8092 10.0277 12.7016C10.0277 11.594 9.12979 10.696 8.02216 10.696C6.91452 10.696 6.0166 11.594 6.0166 12.7016C6.0166 13.8092 6.91452 14.7072 8.02216 14.7072Z" fill="currentColor"/>
</svg>
