<svg width="16" height="16" viewBox="0 0 16 16" fill="none" xmlns="http://www.w3.org/2000/svg">
<path fill-rule="evenodd" clip-rule="evenodd" d="M9.35962 4.01099C9.35962 4.74941 8.76101 5.34802 8.02258 5.34802C7.28416 5.34802 6.68555 4.74941 6.68555 4.01099C6.68555 3.27256 7.28416 2.67395 8.02258 2.67395C8.76101 2.67395 9.35962 3.27256 9.35962 4.01099ZM9.35962 8.02177C9.35962 8.7602 8.76101 9.35881 8.02258 9.35881C7.28416 9.35881 6.68555 8.7602 6.68555 8.02177C6.68555 7.28335 7.28416 6.68474 8.02258 6.68474C8.76101 6.68474 9.35962 7.28335 9.35962 8.02177ZM8.02258 13.3703C8.76101 13.3703 9.35962 12.7717 9.35962 12.0333C9.35962 11.2949 8.76101 10.6962 8.02258 10.6962C7.28416 10.6962 6.68555 11.2949 6.68555 12.0333C6.68555 12.7717 7.28416 13.3703 8.02258 13.3703Z" fill="currentColor"/>
</svg>
