<svg xmlns="http://www.w3.org/2000/svg" width="16" height="17" fill="none" viewBox="0 0 16 17"><path fill="currentColor" fill-rule="evenodd" d="M13.5 12.81A7.579 7.579 0 1 0 12.31 14l2.252 2.253a.842.842 0 0 0 1.191-1.19zm-.026-4.731a5.895 5.895 0 1 1-11.79 0 5.895 5.895 0 0 1 11.79 0" clip-rule="evenodd"/><path fill="currentColor" d="m8.152 4.252.822 2.223a.55.55 0 0 0 .324.324l2.223.822a.55.55 0 0 1 0 1.03l-2.223.823a.55.55 0 0 0-.324.324l-.822 2.223a.55.55 0 0 1-1.03 0l-.823-2.223a.55.55 0 0 0-.324-.324l-2.223-.822a.55.55 0 0 1 0-1.03l2.223-.823a.55.55 0 0 0 .324-.324l.822-2.223a.55.55 0 0 1 1.03 0"/></svg>