<svg width="16" height="16" viewBox="0 0 16 16" fill="none" xmlns="http://www.w3.org/2000/svg">
<path fill-rule="evenodd" clip-rule="evenodd" d="M8 0C3.58172 0 0 3.58172 0 8C0 12.4183 3.58172 16 8 16C12.4183 16 16 12.4183 16 8C16 5.87827 15.1571 3.84344 13.6569 2.34315C12.1566 0.842855 10.1217 0 8 0ZM8.64533 10.7129C8.04089 10.6667 7.78667 10.3573 7.312 10.0782C7.05067 11.4453 6.73244 12.7573 5.78844 13.4418C5.49689 11.3742 6.21511 9.82222 6.54933 8.17422C5.98044 7.216 6.61867 5.28711 7.81867 5.76178C9.296 6.34667 6.53867 9.31733 8.39111 9.69778C10.3236 10.0871 11.1129 6.34489 9.91467 5.12711C8.18311 3.37067 4.87467 5.088 5.28178 7.60178C5.38133 8.21689 6.016 8.40356 5.536 9.25156C4.42844 9.00622 4.09778 8.13156 4.14044 6.96711C4.20978 5.05956 5.85422 3.72444 7.504 3.53956C9.59111 3.30667 11.5502 4.30578 11.8204 6.26844C12.1227 8.48533 10.8764 10.8836 8.64533 10.7129Z" fill="currentColor"/>
</svg>
