<svg width="16" height="16" viewBox="0 0 16 16" fill="none" xmlns="http://www.w3.org/2000/svg">
  <path fill="currentColor" fill-rule="evenodd" clip-rule="evenodd" d="M12.7 1c1.2 0 2.1 1 2.1 2.1V13c0 1.1-1 2-2.1 2H8.4a2.1 2.1 0 0 1-2.2-2v-.7a.6.6 0 0 1 1.3 0v.7c0 .4.5.8 1 .8h4.1c.4 0 .9-.4.9-.8V3c0-.4-.5-.8-.9-.8H8.4c-.4 0-.9.4-.9.8v.7a.6.6 0 0 1-1.3 0V3c0-1 1-2 2.2-2ZM7.9 5.1c.3-.3.8-.3 1 0l2 2a1.3 1.3 0 0 1 0 2L9 11c-.5.7-1.7-.3-1-1l1-1.3H2.7c-1 0-1-1.3 0-1.3h6.4L7.8 6.1a.6.6 0 0 1 0-1z" />
</svg>
