<svg width="16" height="16" viewBox="0 0 16 16" fill="none" xmlns="http://www.w3.org/2000/svg">
  <path fill="currentColor" fill-rule="evenodd" clip-rule="evenodd" d="M5.4 1.5a2 2 0 0 0-1.9 2V13a2 2 0 0 0 2 2h3.8a2 2 0 0 0 1.9-2v-.7c0-.4-.3-.7-.7-.7a.6.6 0 0 0-.6.7v.6c0 .4-.3.7-.6.7H5.4a.6.6 0 0 1-.6-.6V3.5c0-.3.2-.7.6-.7h3.9c.3 0 .6.4.6.7v.7c0 .4.3.6.6.6.4 0 .7-.2.7-.6v-.7a2 2 0 0 0-2-2zm6.4 4a.6.6 0 0 1 1 0l1.8 1.8c.5.5.5 1.3 0 1.8L12.8 11a.6.6 0 0 1-1 0 .6.6 0 0 1 0-.9L13 9H7a.6.6 0 0 1-.6-.7c0-.4.3-.6.6-.6h6l-1-1.3a.6.6 0 0 1 0-.9z" />
</svg>
