<svg width="16" height="16" viewBox="0 0 16 17" fill="none" xmlns="http://www.w3.org/2000/svg">
<path fill-rule="evenodd" clip-rule="evenodd" d="M6.94765 3.02762C7.20799 2.69118 7.6027 2.52263 7.99768 2.52197C8.52585 2.5211 9.05449 2.82045 9.2629 3.42002L9.895 5.2385C10.0786 5.76672 10.5716 6.12487 11.1307 6.13627L13.0555 6.17549C14.3229 6.20132 14.8462 7.81184 13.836 8.5777L12.3019 9.7408C11.8562 10.0787 11.6679 10.6582 11.8299 11.1934L12.3874 13.0361C12.7545 14.2495 11.3845 15.2449 10.3439 14.5208L8.76368 13.4211C8.5335 13.261 8.26554 13.1811 7.99768 13.1816C7.73136 13.182 7.46515 13.2619 7.2363 13.4211L5.65605 14.5208C5.52598 14.6113 5.39077 14.6749 5.25444 14.7146C4.30015 14.9926 3.29141 14.0978 3.61261 13.0361L4.1701 11.1934C4.19034 11.1265 4.20511 11.0589 4.21459 10.9912C4.28094 10.5171 4.08804 10.0364 3.69811 9.7408L2.16397 8.5777C1.1538 7.81184 1.67709 6.20132 2.94449 6.17549L4.8693 6.13627C5.42841 6.12487 5.92136 5.76672 6.10497 5.2385L6.73707 3.42002C6.76305 3.34529 6.794 3.27523 6.8293 3.20983C6.8646 3.14443 6.90426 3.08369 6.94765 3.02762ZM7.99768 11.8445C8.53263 11.8441 9.06768 12.0038 9.52736 12.3237L11.1076 13.4233L10.5501 11.5806C10.2262 10.5101 10.6028 9.35106 11.4941 8.67535L13.0282 7.51225L11.1034 7.47302C9.98522 7.45024 8.99931 6.73393 8.63209 5.67748L7.99999 3.85901L7.99768 3.86564V11.8445Z" fill="currentColor"/>
</svg>
