<svg width="16" height="16" viewBox="0 -1 16 17" fill="none" xmlns="http://www.w3.org/2000/svg">
<path fill-rule="evenodd" clip-rule="evenodd" d="M8.65455 4.8269L8.02245 3.00842L7.39035 4.8269C7.02313 5.88334 6.03722 6.59965 4.919 6.62244L2.9942 6.66166L4.52834 7.82476C5.4196 8.50047 5.79619 9.65948 5.47231 10.73L4.91482 12.5727L6.49507 11.4731C7.41312 10.8343 8.63177 10.8343 9.54983 11.4731L11.1301 12.5727L10.5726 10.73C10.2487 9.65948 10.6253 8.50047 11.5166 7.82476L13.0507 6.66166L11.1259 6.62244C10.0077 6.59965 9.02177 5.88334 8.65455 4.8269ZM9.28536 2.56943C8.86915 1.37204 7.17575 1.37204 6.75953 2.56943L6.12743 4.38791C5.94382 4.91613 5.45087 5.27428 4.89176 5.28568L2.96696 5.3249C1.69955 5.35073 1.17626 6.96125 2.18643 7.72711L3.72057 8.89021C4.16621 9.22807 4.3545 9.80757 4.19256 10.3428L3.63507 12.1856C3.26798 13.3989 4.63797 14.3943 5.67851 13.6702L7.25876 12.5706C7.71779 12.2511 8.32711 12.2511 8.78614 12.5706L10.3664 13.6702C11.4069 14.3943 12.7769 13.3989 12.4098 12.1855L11.8523 10.3428C11.6904 9.80757 11.8787 9.22807 12.3243 8.89021L13.8585 7.72711C14.8686 6.96125 14.3454 5.35073 13.0779 5.3249L11.1531 5.28568C10.594 5.27428 10.1011 4.91613 9.91747 4.38791L9.28536 2.56943Z" fill="currentColor"/>
</svg>
