<svg width="16" height="17" viewBox="0 0 16 17" fill="none" xmlns="http://www.w3.org/2000/svg">
<path fill-rule="evenodd" clip-rule="evenodd" d="M4.01141 2.50586C2.90378 2.50586 2.00586 3.40378 2.00586 4.51141V12.5336C2.00586 13.6413 2.90378 14.5392 4.01141 14.5392H12.0336C13.1413 14.5392 14.0392 13.6413 14.0392 12.5336V9.19104C14.0392 8.82183 13.7399 8.52252 13.3707 8.52252C13.0015 8.52252 12.7021 8.82183 12.7021 9.19104V12.5336C12.7021 12.9028 12.4028 13.2021 12.0336 13.2021H4.01141C3.6422 13.2021 3.3429 12.9028 3.3429 12.5336V4.51141C3.3429 4.1422 3.6422 3.8429 4.01141 3.8429H7.354C7.72322 3.8429 8.02252 3.54359 8.02252 3.17438C8.02252 2.80517 7.72322 2.50586 7.354 2.50586H4.01141ZM13.3697 7.18549C13.0005 7.18549 12.7012 6.88618 12.7012 6.51697V4.78832L8.49426 8.99523C8.23319 9.25631 7.8099 9.25631 7.54883 8.99523C7.28776 8.73416 7.28776 8.31088 7.54883 8.04981L11.7557 3.8429L10.0271 3.8429C9.65789 3.8429 9.35858 3.54359 9.35858 3.17438C9.35858 2.80516 9.65789 2.50586 10.0271 2.50586H12.7012C13.4396 2.50586 14.0382 3.10447 14.0382 3.8429V6.51697C14.0382 6.88618 13.7389 7.18549 13.3697 7.18549Z" fill="currentColor"/>
</svg>
