<svg width="16" height="16" viewBox="0 0 16 16" fill="none" xmlns="http://www.w3.org/2000/svg">
<path fill-rule="evenodd" clip-rule="evenodd" d="M14.0392 12.702C14.0392 13.8096 13.1413 14.7075 12.0336 14.7075H4.01141C2.90378 14.7075 2.00586 13.8096 2.00586 12.702V3.34271C2.00586 2.23507 2.90378 1.33716 4.01141 1.33716H10.6966L10.7038 1.34432C11.1736 1.38412 11.6165 1.58859 11.9525 1.92457L13.4518 3.42382C13.7878 3.7598 13.9922 4.20273 14.032 4.67259L14.0392 4.67975V12.702ZM12.0336 13.3705H4.01141C3.6422 13.3705 3.3429 13.0712 3.3429 12.702V3.34271C3.3429 2.9735 3.6422 2.67419 4.01141 2.67419H10.0281V4.01123C10.0281 4.74965 10.6267 5.34827 11.3651 5.34827H12.7021V12.702C12.7021 13.0712 12.4028 13.3705 12.0336 13.3705Z" fill="currentColor"/>
<path d="M8.69025 6.68512C8.69025 6.31591 8.39094 6.0166 8.02173 6.0166C7.65252 6.0166 7.35321 6.31591 7.35321 6.68512V8.02216H6.01617C5.64696 8.02216 5.34766 8.32146 5.34766 8.69067C5.34766 9.05989 5.64696 9.35919 6.01617 9.35919H7.35321L7.35321 10.6962C7.35321 11.0654 7.65252 11.3647 8.02173 11.3647C8.39094 11.3647 8.69025 11.0654 8.69025 10.6962L8.69025 9.35919H10.0273C10.3965 9.35919 10.6958 9.05989 10.6958 8.69067C10.6958 8.32146 10.3965 8.02216 10.0273 8.02216H8.69025L8.69025 6.68512Z" fill="currentColor"/>
</svg>
