<svg width="13" height="14" viewBox="0 0 13 14" fill="none" xmlns="http://www.w3.org/2000/svg">
<path fill-rule="evenodd" clip-rule="evenodd" d="M7.93173 9.33777C7.51718 10.2982 7.05649 11.3739 6.88821 11.7991C6.84966 11.8043 6.76335 11.8006 6.64386 11.7482C6.36838 11.6274 6.20432 11.3905 6.20432 11.1897L6.20432 8.96099C6.20432 8.62946 5.93557 8.36068 5.60408 8.36068L2.55635 8.36068C2.53589 8.36068 2.42208 8.33561 2.29212 8.13443C2.16658 7.9401 2.12783 7.72804 2.1465 7.61384C2.19438 7.32089 2.3737 6.24652 2.55395 5.16658L2.55424 5.16488L2.55527 5.15867C2.73567 4.07786 2.91667 2.9934 2.96589 2.69233C2.98027 2.60439 3.04788 2.48485 3.21708 2.37329C3.38557 2.26221 3.60015 2.19868 3.78775 2.19868L8.6804 2.19868L8.6804 4.06528L8.6804 7.1326C8.6804 7.14888 8.68072 7.16509 8.68136 7.18122L8.68136 7.6088L8.66544 7.64537L8.489 8.05112C8.34161 8.39037 8.14172 8.85128 7.93173 9.33777ZM9.68246 8.31689L9.58998 8.52957C9.44283 8.86827 9.24333 9.32827 9.03383 9.81363C8.61246 10.7898 8.15754 11.8527 8.00115 12.2491C7.84057 12.6561 7.51124 12.8953 7.14324 12.9726C6.80161 13.0444 6.45238 12.9751 6.16194 12.8478C5.59844 12.6008 5.0039 12.0107 5.0039 11.1897L5.0039 9.56128L2.55635 9.56128C1.96052 9.56128 1.52502 9.15932 1.28385 8.78599C1.03825 8.4058 0.884042 7.89587 0.961807 7.42013C1.01006 7.1249 1.18956 6.04946 1.36931 4.97252L1.37124 4.96098C1.55193 3.8784 1.73241 2.79707 1.78121 2.4986C1.86484 1.98699 2.19678 1.60799 2.55639 1.37089C2.91671 1.13332 3.36022 0.998076 3.78775 0.998076L8.6804 0.998076L8.6804 0.997965L11.1444 0.997965C12.1389 0.997965 12.9451 1.80426 12.9451 2.79887L12.9451 6.53229C12.9451 7.52691 12.1389 8.3332 11.1444 8.3332L9.88081 8.3332C9.81325 8.3332 9.74698 8.32762 9.68246 8.31689ZM9.88178 7.1326L11.1444 7.1326C11.4759 7.1326 11.7447 6.86383 11.7447 6.53229L11.7446 2.79887C11.7446 2.46734 11.4759 2.19857 11.1444 2.19857L9.88178 2.19857L9.88178 7.1326Z" fill="currentColor"/>
</svg>
