<svg width="13" height="12" viewBox="0 0 13 12" fill="none" xmlns="http://www.w3.org/2000/svg">
<path fill-rule="evenodd" clip-rule="evenodd" d="M5.95509 3.66305C6.36944 2.70313 6.8299 1.62793 6.9981 1.20297C7.03663 1.19769 7.1229 1.20146 7.24233 1.25381C7.51767 1.37453 7.68165 1.61132 7.68165 1.81207V4.03964C7.68165 4.37101 7.95027 4.63966 8.28159 4.63966H11.3278C11.3483 4.63966 11.462 4.66471 11.5919 4.86579C11.7174 5.06002 11.7561 5.27198 11.7375 5.38613C11.6896 5.67902 11.5103 6.75345 11.33 7.83319L11.3299 7.83388L11.3289 7.84009C11.1486 8.92036 10.9677 10.0043 10.9185 10.3052C10.9041 10.3931 10.8365 10.5126 10.6674 10.6241C10.499 10.7351 10.2845 10.7986 10.097 10.7986H5.20715V8.93291V5.86711C5.20715 5.8481 5.2067 5.8292 5.20583 5.81041V5.39117L5.22175 5.35462L5.3981 4.94906C5.54541 4.60998 5.74521 4.14929 5.95509 3.66305ZM4.20526 4.68335L4.29767 4.47084C4.44474 4.13231 4.64414 3.67254 4.85354 3.18742C5.2747 2.21171 5.7294 1.14934 5.8857 0.753173C6.04621 0.346363 6.37538 0.107236 6.74319 0.0299859C7.08466 -0.04173 7.43371 0.0274805 7.72401 0.154748C8.28723 0.401666 8.88148 0.991477 8.88148 1.81207V3.43964H11.3278C11.9234 3.43964 12.3586 3.84141 12.5997 4.21456C12.8452 4.59455 12.9993 5.10423 12.9216 5.57974C12.8734 5.87462 12.6942 6.9483 12.5146 8.02399L12.5143 8.02614L12.5123 8.03768C12.3317 9.11973 12.1514 10.2005 12.1026 10.4988C12.019 11.0102 11.6872 11.389 11.3278 11.626C10.9676 11.8634 10.5243 11.9986 10.097 11.9986H5.20715V11.9987H2.74432C1.75035 11.9987 0.94458 11.1928 0.94458 10.1987V6.46712C0.94458 5.47299 1.75035 4.66709 2.74432 4.66709H4.00732C4.07474 4.66709 4.14087 4.67266 4.20526 4.68335ZM4.00601 5.86711H2.74432C2.413 5.86711 2.1444 6.13574 2.1444 6.46712V10.1987C2.1444 10.5301 2.41299 10.7987 2.74432 10.7987H4.00601V5.86711Z" fill="currentColor"/>
</svg>
