<svg width="16" height="16" viewBox="0 0 16 16" fill="none" xmlns="http://www.w3.org/2000/svg">
<path d="M8.66901 4.65729C8.66901 4.28808 8.3697 3.98877 8.00049 3.98877C7.63128 3.98877 7.33197 4.28808 7.33197 4.65729V7.72297C7.33197 8.07757 7.47284 8.41765 7.72358 8.6684L9.19907 10.1439C9.46014 10.405 9.88342 10.405 10.1445 10.1439C10.4056 9.88281 10.4056 9.45953 10.1445 9.19846L8.66901 7.72297V4.65729Z" fill="currentColor"/>
<path fill-rule="evenodd" clip-rule="evenodd" d="M14.6853 8C14.6853 11.6921 11.6922 14.6852 8.00012 14.6852C4.308 14.6852 1.31494 11.6921 1.31494 8C1.31494 4.30788 4.308 1.31482 8.00012 1.31482C11.6922 1.31482 14.6853 4.30788 14.6853 8ZM13.3483 8C13.3483 10.9537 10.9538 13.3481 8.00012 13.3481C5.04642 13.3481 2.65198 10.9537 2.65198 8C2.65198 5.0463 5.04642 2.65186 8.00012 2.65186C10.9538 2.65186 13.3483 5.0463 13.3483 8Z" fill="currentColor"/>
</svg>
