<svg width="36" height="36" viewBox="0 0 36 36" fill="none" xmlns="http://www.w3.org/2000/svg">
<path d="M17.2261 2.70801C20.0688 2.82573 22.543 4.34601 23.9858 6.59082C28.4324 7.1394 31.8754 10.9283 31.8755 15.5234L31.8638 15.9863C31.6305 20.59 27.9391 24.2814 23.3354 24.5146L22.8726 24.5264C21.5683 24.5263 20.3309 24.2434 19.2124 23.7441V31.3496C19.2123 32.1779 18.5407 32.8495 17.7124 32.8496C16.884 32.8496 16.2125 32.178 16.2124 31.3496V25.5488C15.2355 25.944 14.1684 26.164 13.0483 26.1641C8.37706 26.1637 4.59131 22.376 4.59131 17.7061C4.59141 14.7374 6.12011 12.1322 8.4292 10.624C8.70473 6.20149 12.3787 2.70032 16.8696 2.7002L17.2261 2.70801ZM16.8696 5.7002C13.856 5.70033 11.412 8.1436 11.4116 11.1572C11.4116 11.6037 11.4677 12.0378 11.5688 12.4531C9.2742 13.0983 7.59143 15.2052 7.59131 17.7061C7.59131 20.7199 10.0345 23.1638 13.0483 23.1641C14.2284 23.164 15.3199 22.7883 16.2124 22.1514V13.5576C16.2124 12.7292 16.884 12.0576 17.7124 12.0576C18.5407 12.0577 19.2124 12.7293 19.2124 13.5576V16.3916C19.7913 15.8754 20.6795 15.8826 21.2485 16.4287C21.846 17.0024 21.8641 17.9522 21.2905 18.5498L19.4575 20.46C20.427 21.1321 21.6036 21.5263 22.8726 21.5264C26.1878 21.5263 28.8754 18.8387 28.8755 15.5234C28.8754 12.2082 26.1878 9.5206 22.8726 9.52051C22.6081 9.52052 22.3477 9.5391 22.0923 9.57227C21.4129 7.33176 19.332 5.70024 16.8696 5.7002Z" fill="currentColor"/>
</svg>
