<svg width="16" height="16" viewBox="0 0 16 16" fill="none" xmlns="http://www.w3.org/2000/svg">
<path fill-rule="evenodd" clip-rule="evenodd" d="M11.4408 10.3946C12.1045 9.51425 12.498 8.41873 12.498 7.2313C12.498 4.32649 10.1432 1.97168 7.23838 1.97168C4.33357 1.97168 1.97876 4.32649 1.97876 7.2313C1.97876 10.1361 4.33357 12.4909 7.23838 12.4909C8.45099 12.4909 9.56775 12.0805 10.4574 11.3911L12.932 13.8791C13.2047 14.1532 13.6479 14.1544 13.922 13.8817C14.1961 13.6091 14.1973 13.1659 13.9246 12.8918L11.4408 10.3946ZM7.2384 11.1313C5.08449 11.1313 3.3384 9.38523 3.3384 7.23132C3.3384 5.07741 5.08449 3.33132 7.2384 3.33132C9.39231 3.33132 11.1384 5.07741 11.1384 7.23132C11.1384 9.38523 9.39231 11.1313 7.2384 11.1313Z" fill="currentColor"/>
</svg>
