<svg xmlns="http://www.w3.org/2000/svg" width="36" height="36" fill="none" viewBox="0 0 36 36"><path fill="currentColor" d="M15.75 3a1.5 1.5 0 0 1 0 3C10.365 6 6 10.365 6 15.75s4.365 9.75 9.75 9.75 9.75-4.365 9.75-9.75a1.5 1.5 0 0 1 3 0 12.7 12.7 0 0 1-2.74 7.89l6.8 6.8.103.114a1.5 1.5 0 0 1-2.11 2.11l-.114-.104-6.8-6.8a12.7 12.7 0 0 1-7.889 2.74C8.708 28.5 3 22.792 3 15.75S8.708 3 15.75 3"/><path fill="currentColor" d="M21.75 1.5q1.688 6.188 6.75 8.25-5.062 2.063-6.75 8.25-1.687-6.187-6.75-8.25 5.063-2.062 6.75-8.25"/></svg>