<svg width="36" height="36" viewBox="0 0 36 36" fill="none" xmlns="http://www.w3.org/2000/svg">
<path fill-rule="evenodd" clip-rule="evenodd" d="M28.502 16.4997H13.502C12.6736 16.4997 12.002 17.1713 12.002 17.9997V23.9997C12.002 24.8281 12.6736 25.4997 13.502 25.4997H28.502C29.3304 25.4997 30.002 24.8281 30.002 23.9997V17.9997C30.002 17.1713 29.3304 16.4997 28.502 16.4997ZM13.502 13.4997C11.0167 13.4997 9.002 15.5144 9.002 17.9997V23.9997C9.002 26.485 11.0167 28.4997 13.502 28.4997H28.502C30.9873 28.4997 33.002 26.485 33.002 23.9997V17.9997C33.002 15.5144 30.9873 13.4997 28.502 13.4997H13.502Z" fill="#333333"/>
<path fill-rule="evenodd" clip-rule="evenodd" d="M7.50098 10.4991H22.501C23.3294 10.4991 24.001 11.1707 24.001 11.9991V13.4991H27.001V11.9991C27.001 9.51386 24.9863 7.49915 22.501 7.49915H7.50098C5.0157 7.49915 3.00098 9.51386 3.00098 11.9991V17.9991C3.00098 20.4844 5.0157 22.4991 7.50098 22.4991H9.00098V19.4991H7.50098C6.67255 19.4991 6.00098 18.8276 6.00098 17.9991V11.9991C6.00098 11.1707 6.67255 10.4991 7.50098 10.4991Z" fill="#333333"/>
<path fill-rule="evenodd" clip-rule="evenodd" d="M21.0001 24C22.657 24 24.0001 22.6568 24.0001 21C24.0001 19.3431 22.657 18 21.0001 18C19.3432 18 18.0001 19.3431 18.0001 21C18.0001 22.6568 19.3432 24 21.0001 24Z" fill="#333333"/>
<path d="M16.5011 20.9995C16.5011 21.8279 15.8295 22.4995 15.0011 22.4995C14.1726 22.4995 13.5011 21.8279 13.5011 20.9995C13.5011 20.1711 14.1726 19.4995 15.0011 19.4995C15.8295 19.4995 16.5011 20.1711 16.5011 20.9995Z" fill="#333333"/>
<path d="M28.5006 20.9995C28.5006 21.8279 27.8291 22.4995 27.0006 22.4995C26.1722 22.4995 25.5006 21.8279 25.5006 20.9995C25.5006 20.1711 26.1722 19.4995 27.0006 19.4995C27.8291 19.4995 28.5006 20.1711 28.5006 20.9995Z" fill="#333333"/>
</svg>
