<svg width="36" height="36" viewBox="0 0 36 36" fill="none" xmlns="http://www.w3.org/2000/svg">
<path fill-rule="evenodd" clip-rule="evenodd" d="M3 18C3 9.71573 9.61518 3 17.7754 3C25.9357 3 32.5508 9.71573 32.5508 18C32.5508 26.2843 25.9357 33 17.7754 33C9.61518 33 3 26.2843 3 18ZM12.0377 17.8457C12.6446 17.6297 13.0046 16.9611 13.0046 16.3131C13.0046 15.1714 12.12 14.4514 10.5977 14.4514H7.28571V21.4457H10.8034C12.3771 21.4457 13.3131 20.664 13.3131 19.5017C13.3131 18.7509 12.8914 18.0309 12.0377 17.8457ZM14.1463 14.1429V21.4457H15.8229V14.1429H14.1463ZM19.4434 16.3234C17.8594 16.3234 16.6971 17.4446 16.6971 18.9463C16.6971 20.4686 17.8594 21.5794 19.4434 21.5794C21.0171 21.5794 22.1794 20.4686 22.1794 18.9463C22.1794 17.4446 21.0171 16.3234 19.4434 16.3234ZM26.6126 16.4571V16.704C26.2423 16.4674 25.8 16.3234 25.2446 16.3234C23.8971 16.3234 22.7657 17.3417 22.7657 18.864C22.7657 20.2114 23.8971 21.2709 25.2446 21.2709C25.8 21.2709 26.2423 21.1371 26.6126 20.9109V21.5074C26.6126 22.1863 26.1703 22.536 25.6046 22.536C24.9874 22.536 24.6377 22.248 24.5554 21.7851H22.9097C22.992 23.0811 24.0926 23.9451 25.6046 23.9451C27.168 23.9451 28.2789 23.04 28.2789 21.4766V16.4571H26.6126ZM10.3303 15.8709C10.9989 15.8709 11.3486 16.1074 11.3486 16.5497C11.3486 17.0023 10.9886 17.3314 10.3303 17.3314H9.024V15.8709H10.3303ZM10.5771 20.0057H9.024V18.5966H10.608C11.256 18.5966 11.616 18.8434 11.616 19.2754C11.616 19.6869 11.2971 20.0057 10.5771 20.0057ZM19.4434 20.1909C18.7337 20.1909 18.2606 19.6663 18.2606 18.9566C18.2606 18.2674 18.7337 17.7223 19.4434 17.7223C20.1429 17.7223 20.616 18.2674 20.616 18.9566C20.616 19.6663 20.1429 20.1909 19.4434 20.1909ZM25.584 19.944C24.9051 19.944 24.4011 19.4091 24.4011 18.864C24.4011 18.144 24.9051 17.6914 25.584 17.6914C25.944 17.6914 26.2937 17.7943 26.6126 18.1543V19.4709C26.2937 19.8309 25.944 19.944 25.584 19.944Z" fill="currentColor"/>
</svg>
