<svg width="36" height="36" fill="none" xmlns="http://www.w3.org/2000/svg"><path fill-rule="evenodd" clip-rule="evenodd" d="M15.56 9.922a5.511 5.511 0 0 0-7.908 0c-2.203 2.244-2.203 5.895 0 8.14l9.277 9.455a1.5 1.5 0 0 0 2.142 0l9.277-9.455c2.203-2.245 2.203-5.896 0-8.14a5.511 5.511 0 0 0-7.907 0l-1.37 1.396a1.5 1.5 0 0 1-2.142 0l-1.37-1.396ZM17.7 7.82l.3.306.3-.306a8.511 8.511 0 0 1 12.19 0c3.347 3.412 3.347 8.931 0 12.343l-9.278 9.455a4.5 4.5 0 0 1-6.424 0L5.51 20.163c-3.347-3.412-3.347-8.931 0-12.343a8.511 8.511 0 0 1 12.19 0Z" fill="currentColor"/></svg>
