<svg width="36" height="36" viewBox="0 0 36 36" fill="none" xmlns="http://www.w3.org/2000/svg">
<path fill-rule="evenodd" clip-rule="evenodd" d="M17.9985 30.001C24.6259 30.001 29.9985 24.6284 29.9985 18.001C29.9985 11.3736 24.6259 6.00098 17.9985 6.00098C11.3711 6.00098 5.99853 11.3736 5.99853 18.001C5.99853 24.6284 11.3711 30.001 17.9985 30.001ZM17.9985 33.001C26.2828 33.001 32.9985 26.2852 32.9985 18.001C32.9985 9.7167 26.2828 3.00098 17.9985 3.00098C9.71426 3.00098 2.99854 9.7167 2.99854 18.001C2.99854 26.2852 9.71426 33.001 17.9985 33.001Z" fill="currentColor"/>
<path fill-rule="evenodd" clip-rule="evenodd" d="M15.001 21.8036L21.5894 17.9997L15.001 14.1959L15.001 21.8036ZM23.0894 20.5978C25.0894 19.4431 25.0894 16.5564 23.0894 15.4017L16.501 11.5978C14.501 10.4431 12.001 11.8865 12.001 14.1959V21.8036C12.001 24.113 14.501 25.5564 16.501 24.4017L23.0894 20.5978Z" fill="currentColor"/>
</svg>
