<svg width="36" height="36" viewBox="0 0 36 36" fill="none" xmlns="http://www.w3.org/2000/svg">
<path fill-rule="evenodd" clip-rule="evenodd" d="M3 18C3 9.71573 9.71573 3 18 3C26.2843 3 33 9.71573 33 18C33 26.2843 26.2843 33 18 33C9.71573 33 3 26.2843 3 18ZM17.5508 15.1922L17.5822 15.7112L17.0576 15.6477C15.148 15.404 13.4798 14.5778 12.0633 13.1902L11.3709 12.5017L11.1925 13.0101C10.8148 14.1435 11.0561 15.3405 11.843 16.1455C12.2627 16.5904 12.1683 16.654 11.4443 16.3891C11.1925 16.3044 10.9721 16.2408 10.9512 16.2726C10.8777 16.3468 11.1295 17.3107 11.3289 17.692C11.6017 18.2217 12.1578 18.7407 12.7663 19.0479L13.2804 19.2915L12.6719 19.3021C12.0843 19.3021 12.0633 19.3127 12.1263 19.5351C12.3361 20.2236 13.165 20.9545 14.0883 21.2723L14.7388 21.4947L14.1723 21.8337C13.3329 22.321 12.3466 22.5964 11.3604 22.6175C10.8882 22.6281 10.5 22.6705 10.5 22.7023C10.5 22.8082 11.78 23.4014 12.525 23.6344C14.7598 24.3229 17.4144 24.0264 19.4079 22.8506C20.8243 22.0138 22.2408 20.3507 22.9018 18.7407C23.2585 17.8827 23.6152 16.315 23.6152 15.5629C23.6152 15.0757 23.6467 15.0121 24.2343 14.4295C24.5805 14.0906 24.9058 13.7198 24.9687 13.6139C25.0737 13.4126 25.0632 13.4126 24.5281 13.5927C23.6362 13.9105 23.5103 13.8681 23.951 13.3915C24.2762 13.0525 24.6645 12.4381 24.6645 12.2581C24.6645 12.2263 24.5071 12.2792 24.3287 12.3746C24.1398 12.4805 23.7202 12.6394 23.4054 12.7347L22.8388 12.9148L22.3247 12.5652C22.0414 12.3746 21.6427 12.1627 21.4329 12.0992C20.8978 11.9509 20.0794 11.9721 19.5967 12.1415C18.2852 12.6182 17.4563 13.8469 17.5508 15.1922Z" fill="currentColor"/>
</svg>
