<svg width="24" height="24" xmlns="http://www.w3.org/2000/svg">
    <path d="M8.316 8.316V3.579A1.58 1.58 0 019.895 2h4.21c.872 0 1.58.707 1.58 1.579v4.737h4.736A1.58 1.58 0 0122 9.895v4.21a1.58 1.58 0 01-1.579 1.58h-4.738l.001 4.736A1.58 1.58 0 0114.105 22h-4.21a1.579 1.579 0 01-1.58-1.579v-4.737H3.579A1.579 1.579 0 012 14.105v-4.21c0-.872.707-1.58 1.579-1.58h4.737zm5.79-4.737H9.894v6.316H3.579v4.21h6.315v6.316h4.211v-6.316h6.316v-4.21h-6.316V3.579z" fill="currentColor" fill-rule="evenodd"/>
</svg>
