<svg viewBox="0 0 36 36" xmlns="http://www.w3.org/2000/svg" style="background:#a4d24f;">
  <path d="M39.4 9.34c-1.33-3.53-7.64-4.64-11.3-2.73-2.89 1.52-4.11 4.96-4.34 4.83-.24-.13 2.33-3.44 2.26-7.25a11.25 11.25 0 0 0-7.43-9.98C13.34-7.54 7-4.73 4.4 1.13c-1.72 5.29-1.72 5.51-.64 12.42-4.35 1.25-7.39 4.68-5.97 10.46 2.5 5.74 11.2 8.26 16.86 5.56.5 2.16-.52 6.43-.52 6.43h6.77s-.35-4.76-.23-6.76l1.46.07c5.1 3.34 10.4 2.42 11.95-.17 1.15-1.9.58-5.31-1.3-6.92-1.72-1.49-4.16-1.1-4.2-1.6-.03-.6 3.41-.54 6.3-2.42 2.79-1.8 5.67-5.8 4.51-8.86z" fill="#008009"/>
  <path d="M25.73 12.92c-.1-.7-.5-1.37-1.16-1.67a4.78 4.78 0 0 0-2.2-.39c-.73 0-1.4.46-1.8 1.06a3.36 3.36 0 0 0-.55 2.65c.22.82.98 1.34 1.74 1.62.64.23 1.34.35 2.01.23a2.57 2.57 0 0 0 1.86-2c.12-.49.18-1 .1-1.5z" fill="#f0f0eb"/>
  <path d="M23.18 13.43c-1.22-.78-3.04-.17-3.04 1.46.55 1.1 2.08 1.73 3.3 1.57.92-.76.59-2.44-.26-3.03z" fill="#1a1a1a"/>
  <path d="M17.03 11.32c-.1-.7-.5-1.37-1.16-1.67a4.78 4.78 0 0 0-2.2-.39c-.73 0-1.4.46-1.8 1.06a3.36 3.36 0 0 0-.55 2.65c.22.82.99 1.34 1.74 1.62.64.23 1.34.35 2.02.23a2.57 2.57 0 0 0 1.85-2c.12-.49.18-1 .1-1.5z" fill="#f0f0eb"/>
  <path d="M14.48 11.83c-1.22-.78-3.04-.17-3.04 1.46.55 1.1 2.09 1.73 3.3 1.57.92-.76.59-2.44-.26-3.03z" fill="#1a1a1a"/>
  <path style="fill:none;stroke:#1a1a1a;stroke-width:1.2;stroke-linecap:round;" d="M12.93 18.16c1.35 11.2 7.22 6.25 8.35 1.02"/>
</svg>
