<svg width="185" height="185" viewBox="0 0 185 185" fill="none" xmlns="http://www.w3.org/2000/svg">
<path d="M39.4638 83.139C37.3444 121.668 45.1143 170.094 37.9806 170.992C37.8563 171.006 37.8479 170.992 32.1531 170.992C25.1606 170.992 25.0363 171.011 24.8467 170.992C17.2895 170.224 20.5213 116.55 19.3584 83.8495C19.3584 83.8495 16.9861 17.161 24.4653 15.4702C26.6185 14.9832 28.818 15.0001 28.818 15.0001C28.818 15.0001 32.2311 15.0275 35.6273 16.2987C42.9907 19.0583 39.4659 83.139 39.4659 83.139H39.4638Z" fill="#333333"/>
<path d="M45.5803 24.1726C44.8757 23.8625 44.0872 24.4186 44.1518 25.1858C44.8219 33.1464 45.1451 41.6592 45.5438 50.1366C46.7205 75.1605 46.2291 98.3538 44.7862 119.323C44.6965 120.627 45.4531 121.845 46.6773 122.303C53.2508 124.758 62.8461 127.522 74.4618 127.946C103.527 129.003 109.424 114.102 137.834 115.615C149.824 116.254 172.845 120.19 173.61 115.996C173.707 115.462 173.665 113.58 173.547 112.07C173.547 112.07 173.349 109.57 172.75 107.067C171.98 103.846 157.173 87.7992 134.855 68.5556C134.428 68.1872 134.386 67.5327 134.77 67.1194C144.492 56.6551 153.049 51.2065 159.435 48.1214C161.5 47.1237 172.95 41.7317 174.261 34.795C174.859 31.6286 174.958 27.7963 174.958 27.7963C175.011 25.7291 175.074 23.2931 174.733 21.9612C173.33 16.4628 161.586 16.1657 153.391 16.0914C138.439 15.9552 130.962 15.8884 126.778 16.5098C102.375 20.1416 97.9062 27.6676 81.1319 30.1358C72.7082 31.3758 60.8732 30.9042 45.5803 24.1726Z" fill="#333333"/>
</svg>
