<svg width="185" height="185" viewBox="0 0 185 185" fill="none" xmlns="http://www.w3.org/2000/svg">
<path d="M171.813 126.427C165.749 119.057 144.761 127.092 134.239 131.219C114.144 139.103 76.1502 157.96 79.2477 168.139C80.6521 172.758 88.6821 169.559 142.499 171.778C152.298 172.181 165.28 172.835 170.092 165.409C171.537 163.179 171.397 161.53 171.811 151.257C172.655 130.308 173.581 128.575 171.811 126.423L171.813 126.427Z" fill="currentColor"/>
<path d="M171.813 111.546C168.679 121.468 151.477 120.868 131.986 127.459C105.709 136.343 80.3699 159.521 75.5062 164.049C74.1513 165.309 71.5149 167.847 67.2155 169.689C60.3702 172.617 55.8102 170.99 44.2131 170.671C29.6867 170.269 25.9 172.52 24.1854 170.055C20.5258 164.796 34.1648 149.338 38.0807 144.957C63.2242 116.817 92.303 102.764 108.171 96.1357C119.351 91.4651 161.689 73.7822 170.437 85.6356C172.961 89.0565 173.288 98.4904 172.825 104.728C172.709 106.288 172.474 109.463 171.815 111.546H171.813Z" fill="currentColor"/>
<path d="M17.2323 78.5218C26.4708 69.2152 46.1129 74.7318 57.9814 78.0405C71.4575 81.7973 82.3711 87.8158 90.7591 93.7702C92.1015 94.7231 91.7214 96.7842 90.1508 97.2775C74.7643 102.111 56.3136 110.802 41.553 127.457C24.3103 146.912 20.8144 167.407 15.7246 166.294C11.5221 165.374 14.3331 151.492 13.2109 104.821C12.8533 89.9306 12.3751 83.4168 17.2345 78.5218H17.2323Z" fill="currentColor"/>
<path d="M13.7793 66.6001C13.826 67.7181 14.7837 68.5746 15.9014 68.5206C26.2044 68.0227 41.1906 68.5137 58.3734 73.4066C75.8328 78.3773 88.9668 86.016 97.4347 91.8882C98.0971 92.3476 98.9649 92.3706 99.6559 91.9554C103.628 89.569 109.491 86.5264 116.977 84.2758C128.397 80.842 133.722 82.2211 134.7 79.765C136.989 74.0217 111.887 56.4596 83.3446 44.4185C55.7585 32.7831 20.0713 24.2405 13.8678 34.5852C13.0493 35.9493 13.1419 41.6494 13.3638 52.9934C13.4681 58.3503 13.6278 62.9766 13.7793 66.6001Z" fill="currentColor"/>
<path d="M141.407 75.4382C141.61 75.7265 141.947 75.8884 142.299 75.865C146.405 75.592 152.32 75.3887 159.456 75.8196C166.346 76.2362 167.003 76.7973 168.642 76.0268C173.553 73.7131 172.724 66.2821 172.821 33.9356C172.847 25.324 172.937 15.5555 168.257 13.5202C166.745 12.8619 164.623 12.9634 161.65 13.108C157.935 13.2871 155.568 13.3993 153.31 14.7224C152.582 15.1476 150.738 16.3605 147.079 24.2362C145.823 26.9405 144.574 29.9492 143.421 33.2557C140.946 32.3687 136.354 31.16 131.042 32.4097C121.03 34.7644 116.214 44.0222 114.474 48.3555C113.956 49.647 114.548 51.0611 115.747 51.7683C120.045 54.3039 125.089 57.8009 130.198 62.572C135.032 67.0854 138.691 71.5849 141.407 75.4382Z" fill="currentColor"/>
</svg>
