<svg width="185" height="185" viewBox="0 0 185 185" fill="none" xmlns="http://www.w3.org/2000/svg">
<path d="M37.3043 170.297C30.184 167.113 26.9225 160.254 25.4331 157.009C12.0604 127.865 21.1854 111.517 19.3792 54.3808C19.2129 49.1121 18.7458 38.2736 25.7659 31.3204C30.9979 26.1381 38.0561 25.4253 42.5704 25.0297C62.3077 23.3029 72.1783 22.4396 94.0545 21.6284C105.791 21.1927 138.089 19.4298 153.581 24.7546C154.864 25.1964 156.935 25.9955 159.027 27.7223C166.076 33.5371 166.27 44.0141 166.37 48.9736C167.415 100.128 169.447 99.8511 166.37 121.44C160.93 159.621 153.144 166.332 147.992 169.109C146.539 169.892 142.576 171.97 137.284 171.994C112.669 172.102 103.131 127.602 86.441 128.897C70.6989 130.118 66.3269 170.711 45.7678 171.97C42.1695 172.191 39.1686 171.139 37.3043 170.297Z" fill="#333333"/>
</svg>
