<svg width="185" height="185" viewBox="0 0 185 185" fill="none" xmlns="http://www.w3.org/2000/svg">
<path fill-rule="evenodd" clip-rule="evenodd" d="M131.416 117.099C133.853 109.818 154.62 106.804 159.004 113.848C160.384 116.065 159.82 118.761 159.626 119.537C157.358 128.602 141.503 131.019 141.972 133.239C142.42 135.353 156.577 132.08 159.812 137.782C161.018 139.905 160.236 142.443 159.905 143.523C156.472 154.69 136.583 158.057 136.938 159.358C137.277 160.597 154.456 154.457 159.606 160.818C160.464 161.876 161.296 163.66 160.712 164.998C159.735 167.238 155.634 166.299 143.949 166.599C137.07 166.776 132.254 167.263 129.643 164.4C129.322 164.048 128.597 163.232 128.457 162.044C128.148 159.413 130.972 157.1 132.371 155.983C144.735 146.111 149.073 143.453 148.745 141.489C148.149 137.931 132.728 139.646 131.658 135.516C130.41 130.703 149.638 121.781 148.764 119.915C148.032 118.355 134.556 124.619 131.658 120.631L131.656 120.625C130.683 119.287 131.323 117.377 131.416 117.099ZM16.1012 72.596C19.5026 83.5206 26.8062 97.157 40.9919 115.612C54.774 133.543 71.6459 155.085 91.7018 166.245C85.1389 166.362 77.1942 166.477 67.5651 166.603C41.1268 166.947 27.7736 166.984 21.2506 160.366C13.9038 152.911 14.7317 142.767 15.4587 120.015C16.1431 98.5729 16.1758 83.4069 16.1012 72.596ZM19.0534 44.3684C42.9191 30.9698 140.355 139.726 124.137 163.222C123.656 163.918 123.145 164.434 121.299 164.838C119.194 163.563 117.163 162.463 115.98 161.812C74.7814 139.121 22.9703 83.9556 17.5348 52.7483L17.4157 52.0169C17.2916 51.2003 17.0266 49.2768 16.6921 47.2923C17.1548 45.8225 17.893 45.0202 19.0534 44.3684ZM109.277 103.462C109.285 100.421 120.385 93.2404 129.646 94.5247C131.51 94.7836 135.852 95.3848 136.248 98.8089C136.501 100.999 135.085 103.864 133.385 105.544C131.403 107.502 129.058 107.825 118.799 106.056C112.449 104.96 109.274 104.393 109.275 103.463L109.277 103.462ZM118.823 21.7766C120.758 21.18 121.061 21.4144 132.277 21.5178C138.56 21.5755 141.017 21.5259 141.861 23.0911C142.584 24.4316 141.852 26.4587 140.929 27.6878C135.963 34.302 118.616 26.7468 116.838 30.5354C115.178 34.0696 129.188 40.738 128.18 49.9895C127.822 53.285 125.58 56.7164 122.509 58.0569C114.792 61.426 103.667 50.7716 102.817 51.8694C101.927 53.0235 116.349 61.963 115.105 71.0257C114.576 74.884 111.228 78.611 107.544 79.4085C99.9932 81.0411 91.597 70.246 91.1598 70.7093C90.7122 71.1866 101.503 80.4301 99.6676 83.8372C99.01 85.0583 96.9575 85.1041 95.4381 85.138L95.4362 85.1341C90.1751 85.2513 84.0959 82.2227 80.8512 76.7239C77.3352 70.7635 77.0005 61.6527 80.8512 59.2063C87.679 54.865 104.84 73.2729 107.222 70.9524C110.003 68.2378 87.2055 42.5316 90.5671 38.9026C93.7424 35.4779 118.402 53.7283 120.507 51.0462C122.2 48.8883 105.973 36.673 109.206 28.3518C110.798 24.2509 116.581 22.4687 118.823 21.7766ZM127.793 68.5344C132.366 68.2421 137.398 71.8282 137.503 76.3548C137.582 79.7813 134.806 82.4537 132.487 83.6389C131.981 83.8977 127.822 85.9379 124.058 83.6389C120.582 81.5147 119.021 76.652 120.857 72.9251C122.826 68.9298 127.563 68.5484 127.793 68.5344ZM144.475 63.1721C149.368 58.9897 157.225 61.4875 159.352 65.137C159.865 66.0179 160.031 66.9388 160.356 68.7503C160.725 70.7987 161.17 73.285 160.198 75.9798C159.826 77.0139 159.162 78.8524 157.397 80.0735C154.737 81.915 151.381 81.1032 149.028 80.5344H149.024C147.118 80.073 145.707 79.7307 144.475 78.6966C140.9 75.6913 139.517 67.4102 144.475 63.1721ZM139.211 37.3606C142.982 31.1021 152.066 29.6846 156.388 33.0755C159.744 35.7085 160.2 41.2208 160.23 41.6448C160.341 43.212 160.775 45.1572 159.966 47.4085C159.289 49.3018 158.167 50.4578 157.064 51.5735C155.325 53.3315 153.289 55.3896 150.201 55.8948C145.425 56.6784 141.657 53.1642 141.257 52.7884C137.287 49.0474 136.233 42.2968 139.211 37.3606ZM47.6852 21.3841C50.605 19.8208 54.4505 19.9139 62.1383 20.1009C68.6929 20.26 71.9697 20.3399 73.3424 21.3841C81.5741 27.6456 70.3978 56.4427 67.068 55.8938C64.3927 55.4524 68.2683 36.2861 60.2145 32.4876C57.7424 31.3222 54.1375 31.5983 52.1784 33.4358C48.6961 36.7014 52.0651 43.3479 49.8151 44.5891C47.5688 45.8282 40.592 41.206 39.651 34.8596C38.7658 28.8835 43.5592 23.5957 47.6852 21.3841Z" fill="currentColor"/>
</svg>
