<svg width="185" height="185" viewBox="0 0 185 185" fill="none" xmlns="http://www.w3.org/2000/svg">
<path d="M22.9627 50.2073C35.6852 36.7497 54.7478 37.2324 92.3523 38.7474C132.52 40.3656 154.536 41.2521 166.454 57.8587C176.507 71.8661 175.234 91.2845 174.541 101.856C173.785 113.376 173.092 123.984 166.454 132.744C163.507 136.632 154.249 146.938 101.173 147.755C56.6518 148.44 34.3935 148.781 21.1619 132.964C10.8818 120.674 10.3816 104.574 10.0945 95.4261C9.8411 87.2339 9.14377 64.8298 22.9627 50.2073ZM96.909 45.1009C60.8477 43.3502 39.0785 42.291 26.4861 57.4183C16.6006 69.2913 16.5895 86.0668 16.5828 95.4261C16.5761 105.712 16.5645 119.498 24.7254 129.66C35.6717 143.295 55.1382 142.705 91.7156 141.055C127.436 139.443 152.834 137.966 162.053 121.29C165.655 114.775 166.025 107.321 166.532 97.0618C167.041 86.7419 167.718 73.0662 162.053 63.3636H162.052C152.982 47.8256 130.129 46.7146 96.909 45.1009Z" fill="#333333"/>
<path d="M95.5102 66.9461C103.866 77.6813 103.936 90.1357 103.902 94.3597C103.88 97.1496 103.27 122.72 83.4246 133.826C66.1181 143.513 43.6917 136.874 31.7295 122.507C16.6096 104.35 16.9393 72.3261 37.7734 57.3422C56.8672 43.6084 83.3214 51.2822 95.5102 66.9461Z" fill="#333333"/>
</svg>
