<svg width="185" height="185" viewBox="0 0 185 185" fill="none" xmlns="http://www.w3.org/2000/svg">
<path d="M25.9176 125.268C28.5412 125.423 30.7906 126.587 32.0953 127.734C36.949 132.009 32.8586 139.737 34.9722 145.005C38.5464 153.916 58.3357 151.973 93.5836 151.803C126.179 151.645 144.525 153.133 149.035 143.572C151.372 138.618 148.88 133.06 153.088 129.822C157.064 126.763 164.699 127.562 167.833 131.408C168.547 132.285 168.98 133.261 168.984 149.342V156.766C168.984 162.115 169.021 162.202 168.984 162.425C167.848 169.44 120.652 167.918 101.518 167.719C66.659 167.354 19.5769 170.266 18.2476 162.787C18.135 162.15 18.1721 162.26 18.1803 158.132C18.2171 137.727 14.9321 130.748 19.1656 127.177V127.181C21.676 125.065 25.5248 125.245 25.9176 125.268Z" fill="currentColor"/>
<path d="M67.0816 19.668C70.6187 16.9392 74.9155 18.2446 83.5767 18.8428C85.1476 18.9514 89.8849 19.2435 95.3287 19.0489C105.715 18.676 109.394 16.8568 114.092 19.461C114.912 19.916 117.343 21.3035 118.85 24.0919C118.866 24.1208 120.18 26.5746 120.152 29.8946C120.107 34.9785 116.027 56.832 109.436 86.336C126.656 81.7649 141.528 82.6009 146.296 88.3233C146.663 88.7638 146.973 89.2336 147.216 89.7315V89.7335C151.443 98.3758 135.659 113.752 128.165 121.055C117.129 131.805 108.861 139.864 96.7056 140.612C81.0456 141.577 69.4859 129.761 53.4859 113.408C44.9638 104.698 37.455 97.0235 39.6217 91.8233C40.0047 90.9033 40.6644 90.1365 41.5328 89.4952C47.1366 85.3667 61.6213 86.5988 69.441 87.6417C70.9811 87.531 72.5725 87.4217 74.2232 87.3214C71.7919 78.5329 59.8109 34.0081 64.1119 23.8087C65.2691 21.0654 67.0816 19.668 67.0816 19.668Z" fill="currentColor"/>
</svg>
