<svg width="185" height="185" viewBox="0 0 185 185" fill="none" xmlns="http://www.w3.org/2000/svg">
<path d="M67.9542 142.587C70.587 138.395 77.185 140.479 94.9705 140.805C111.459 141.106 118.24 139.544 120.494 143.692C121.471 145.49 120.918 149.016 119.814 156.066C119.021 161.134 118.624 163.669 117.8 164.852C114.939 168.959 109.536 167.715 91.5308 167.874C78.7849 167.988 74.1378 168.676 71.154 165.054C69.7424 163.341 69.3003 161.008 68.4141 156.343C67.0224 149.012 66.3007 145.213 67.9522 142.585L67.9542 142.587Z" fill="currentColor"/>
<path d="M139.339 65.8449C133.711 55.278 124.73 50.3505 120.132 47.8747C103.833 39.0938 83.3185 39.0938 67.019 47.8747C62.4213 50.3526 53.4404 55.278 47.8121 65.8449C38.1996 83.8914 43.7558 106.59 53.9758 113.533C56.1894 115.035 60.1074 116.306 62.7802 120.598C65.6595 125.22 63.9432 128.035 65.832 131.41C66.8065 133.15 69.8061 136.943 94.094 137.156C117.123 137.357 120.112 133.996 121.175 132.217C123.288 128.679 121.297 125.533 124.373 120.598C127.026 116.344 130.83 115.127 133.177 113.533C143.396 106.592 148.952 83.8914 139.341 65.8449H139.339Z" fill="currentColor"/>
<path d="M60.6929 19.1526C63.9812 19.8585 65.5472 22.9396 67.9794 27.7203C70.5239 32.7221 72.2002 36.0205 70.7966 39.4456C69.7499 41.9998 67.0049 44.5923 64.3361 44.3449C61.7536 44.1056 60.0292 40.5276 56.6866 33.3818C52.3757 24.1705 53.1597 22.4006 53.5908 21.6887C54.9181 19.4945 58.1985 18.6156 60.6949 19.1505L60.6929 19.1526Z" fill="currentColor"/>
<path d="M20.5388 67.601C22.2832 65.6602 25.5656 66.1791 28.5492 66.6517C32.2486 67.237 36.2368 67.8826 38.2038 71.2191C39.5773 73.5481 39.8961 77.1582 38.2038 78.7109C37.0108 79.805 35.7034 79.0347 30.3718 78.5279C23.7891 77.9024 21.5414 78.6686 20.1638 76.8485C19.3077 75.7162 19.2996 74.2601 19.2916 72.6511C19.2836 71.2071 19.2716 69.0149 20.5408 67.603L20.5388 67.601Z" fill="currentColor"/>
<path d="M43.8502 117.261C46.4147 118.546 47.2709 122.667 46.9621 125.666C46.6413 128.802 44.979 131.366 33.4677 140.831C22.9249 149.499 21.3529 149.784 20.3523 149.235C17.7657 147.813 18.7683 140.678 20.3523 136.263C22.5359 130.177 26.7245 126.754 30.7348 123.474C35.4508 119.618 40.4294 115.548 43.8502 117.261Z" fill="currentColor"/>
<path d="M129.691 19.1526C126.402 19.8585 124.836 22.9396 122.404 27.7203C119.86 32.7221 118.183 36.0205 119.587 39.4456C120.634 41.9998 123.379 44.5923 126.047 44.3449C128.63 44.1056 130.354 40.5276 133.697 33.3818C138.008 24.1705 137.224 22.4006 136.793 21.6887C135.465 19.4945 132.185 18.6156 129.689 19.1505L129.691 19.1526Z" fill="currentColor"/>
<path d="M165.349 65.9994C163.493 63.9621 160.244 64.4126 157.405 64.8068C154.063 65.2714 149.808 65.8848 147.751 69.3742C146.377 71.7032 146.058 75.3133 147.751 76.866C148.882 77.9037 150.055 77.1958 155.583 76.6829C161.742 76.1118 163.467 76.687 165.049 75.0237C166.482 73.5153 166.625 71.4015 166.665 70.8042C166.705 70.1988 166.875 67.6727 165.349 65.9994Z" fill="currentColor"/>
<path d="M142.106 115.418C139.542 116.703 138.685 120.824 138.994 123.822C139.315 126.958 140.977 129.522 152.489 138.987C163.031 147.655 164.603 147.941 165.604 147.392C168.191 145.97 167.188 138.834 165.604 134.419C163.42 128.333 159.232 124.91 155.222 121.63C150.506 117.775 145.527 113.704 142.106 115.418Z" fill="currentColor"/>
<path d="M91.0021 33.6314C93.4103 35.5219 98.5133 35.4737 100.601 33.6314C101.886 32.4971 100.895 31.6805 101.018 26.025C101.1 22.1494 101.603 20.7798 100.266 19.8024C99.1268 18.9697 97.4165 18.9858 95.2109 19.0059C92.909 19.0281 91.2047 19.0441 90.0297 19.8949C89.2076 20.4902 88.7905 21.3912 89.4221 27.3786C89.9735 32.5936 90.4247 33.1809 91.0021 33.6334V33.6314Z" fill="currentColor"/>
<path d="M159.372 20.8439C156.595 21.9219 153.182 24.0236 145.764 35.1656C139.125 45.1352 138.69 48.2083 138.934 50.7364C139.022 51.6434 139.472 56.3014 142.148 57.3492C144.968 58.4514 148.597 54.9076 154.907 48.6045C161.197 42.3215 164.381 39.0674 166.32 33.5265C166.727 32.362 169.891 23.0481 166.32 20.4014C164.325 18.9232 161.105 20.1741 159.372 20.8439Z" fill="currentColor"/>
<path d="M28.3848 20.8443C33.0146 22.751 34.4322 25.8884 41.5684 36.8736C47.8524 46.5475 49.7071 48.6653 49.0113 52.2312C48.3657 55.5316 45.735 59.0512 42.585 59.4836C40.4876 59.7712 38.6169 58.6288 31.1499 50.5257C24.0839 42.857 20.5268 38.9432 19.2896 35.0334C17.9402 30.7656 16.7913 22.8998 20.5168 20.3999C23.0993 18.6662 26.9331 20.245 28.3848 20.8423V20.8443Z" fill="currentColor"/>
<path d="M166.318 94.1386C165.245 92.6382 163.202 92.4431 159.158 92.1153C154.235 91.7171 151.775 91.516 150.015 92.9681C147.294 95.2106 146.566 100.062 148.527 103.205C150.025 105.606 152.557 106.156 156.645 107.044C159.497 107.664 164.548 108.76 166.318 106.405C166.799 105.765 166.665 105.365 166.691 101.286C166.725 95.6792 166.984 95.0718 166.318 94.1386Z" fill="currentColor"/>
<path d="M35.6132 95.3127C37.7727 96.8392 38.5366 100.216 37.9532 102.778C37.2614 105.811 34.6046 107.4 29.3212 110.457C24.547 113.218 21.1062 115.21 19.2896 113.87C18.2951 113.138 18.3833 110.598 18.6019 105.552C18.8746 99.2788 19.6345 98.0017 20.5147 97.2334C21.1965 96.6401 21.8461 96.439 24.7676 95.9543C31.1117 94.9004 34.3099 94.3936 35.6132 95.3148V95.3127Z" fill="currentColor"/>
</svg>
