<svg width="185" height="185" viewBox="0 0 185 185" fill="none" xmlns="http://www.w3.org/2000/svg">
<path d="M22.9732 19.731C18.2573 25.1198 20.2853 33.9544 21.4375 38.6892C31.944 81.8455 38.0824 89.8228 39.1593 104.017C41.6754 137.136 12.9422 155.423 21.8984 166.245C26.4216 171.711 33.2723 166.463 68.2319 170.124C77.9171 171.139 80.7936 171.589 84.5206 169.707C97.0719 163.36 88.7798 128.288 94.1703 126.913C99.7891 125.482 107.05 164.017 130.232 169.707C133.705 170.56 138.93 170.451 149.38 170.235C164.764 169.917 172.457 169.757 174.424 166.551C176.23 163.608 175 158.712 152.156 121.967C146.053 112.153 143.064 106.385 143.946 98.9655C144.75 92.206 148.301 89.456 155.881 79.1145C167.257 63.5916 173.724 54.7675 174.424 44.0863C175.289 30.8628 167.224 16.1615 160.199 16.0148C154.096 15.887 152.397 26.8196 136.471 48.3957C127.686 60.2967 123.153 66.3143 116.281 69.5651C104.279 75.2432 86.8964 74.1658 74.8689 65.4864C53.7385 50.2318 60.43 21.6404 42.3647 16.0106C35.7884 13.9628 27.1653 14.9417 22.9732 19.731Z" fill="currentColor"/>
<path d="M76.5426 46.7102C76.463 52.9248 83.7013 58.4016 89.9675 60.1413C96.46 61.9438 107.128 61.183 110.717 53.4258C114.18 45.9389 108.934 36.5091 102.173 33.2791C91.6498 28.2488 76.6558 37.8463 76.5426 46.7102Z" fill="currentColor"/>
</svg>
