<svg width="185" height="185" viewBox="0 0 185 185" fill="none" xmlns="http://www.w3.org/2000/svg">
<path d="M20.5623 19.9176C25.5326 14.9929 30.9807 18.6002 57.9969 18.3586C75.5752 18.2017 78.6751 16.6262 82.9945 19.8928C86.317 22.4057 88.5127 26.3888 90.6157 54.5575C92.8135 84.0003 90.9638 87.0232 89.4252 88.8073C84.2942 94.7582 72.4834 94.3452 48.8597 93.5172C26.6449 92.7387 23.4604 90.0813 22.0268 88.609C17.1204 83.5646 19.0031 78.2579 18.6735 52.4101C18.3604 27.9354 16.5601 23.8841 20.5623 19.9176Z" fill="currentColor"/>
<path d="M150.292 83.7736C137.28 91.9835 120.658 90.8271 109.698 82.6834C91.2173 68.9542 90.7847 36.823 107.16 23.482C117.863 14.7621 133.276 16.0836 143.404 20.2133C146.154 21.3345 163.712 28.8588 166.964 47.4528C169.491 61.9006 162.2 76.2596 150.292 83.7736Z" fill="currentColor"/>
<path d="M19.4995 162.322C15.588 155.31 21.825 144.854 34.297 123.939C44.4065 106.989 49.5972 98.5061 56.3121 98.1034C66.2032 97.5108 74.0427 111.236 84.4632 129.475C93.8661 145.934 99.6892 156.126 95.652 163.06C92.1586 169.06 81.1243 169.11 59.1999 168.965C35.1148 168.806 22.9991 168.598 19.4995 162.322Z" fill="currentColor"/>
<path d="M131.4 109.177C130.508 107.461 126.728 100.672 118.759 98.0868C110.946 95.5512 101.001 97.6718 96.5316 104.347C92.6057 110.21 94.478 117.23 96.7047 125.574C97.407 128.207 100.896 140.534 112.687 152.933C120.837 161.505 126.193 167.379 133.534 167.115C141.831 166.815 147.369 158.946 155.264 147.736C163.088 136.627 166.258 126.633 167.465 118.5C169.038 107.882 166.764 103.784 165.497 101.989C162.433 97.647 157.689 96.2636 156.09 95.8919C147.757 93.9551 137.968 99.2844 131.398 109.179L131.4 109.177Z" fill="currentColor"/>
</svg>
