<svg width="185" height="185" viewBox="0 0 185 185" fill="none" xmlns="http://www.w3.org/2000/svg">
<path d="M96.9966 9.04738C119.075 8.89634 130.116 8.82238 139.531 13.3062C160.226 23.1642 171.566 46.3921 174.062 63.5855C175.029 70.2446 175.016 78.236 174.996 89.7778C174.982 97.2146 174.964 107.499 174.062 115.035C171.602 135.569 158.976 165.678 135.566 173.969C134.997 174.172 134.393 174.331 134.378 174.334C128.585 176.023 123.814 176.02 121.594 175.991C87.9781 175.551 71.1708 175.333 60.5464 170.632C32.9801 158.439 20.2035 128.238 22.6392 126.027C24.9225 123.954 39.6541 147.26 69.0708 153.389C79.4276 155.546 90.9155 155.394 103.312 155.229C115.929 155.062 122.238 154.976 126.934 152.92C143.601 145.621 149.375 125.247 152.366 115.501C153.416 112.081 156.272 101.919 155.631 88.3736C155.157 78.3622 153.879 51.3339 134.167 37.3911C122.912 29.4312 110.723 29.3251 97.0689 29.2056C83.3092 29.0861 70.7796 28.9758 59.7368 37.6255C44.79 49.332 43.3841 68.6107 43.1704 73.1734C57.8971 75.5606 59.8026 78.879 60.023 80.5269C60.6497 85.2495 49.2939 90.2924 35.7056 96.3247C23.2421 101.859 16.9358 104.571 13.3081 101.938C10.6093 99.9858 10.9707 96.7281 11.0786 78.7886C11.1888 60.2967 10.8542 55.9592 13.4361 54.7847H13.4341C14.4714 54.3135 18.1848 53.3522 27.7691 64.0542C29.845 53.9413 37.4762 23.0214 61.4575 12.7261C69.5922 9.23429 78.7257 9.17361 96.9966 9.04738Z" fill="currentColor"/>
<path d="M87.564 59.8735C91.3199 57.378 96.682 57.8447 100.157 59.8735C107.236 64.0036 109.985 76.6434 104.032 90.0855C123.389 86.3546 139.096 89.7404 143.097 98.3833C144.489 101.39 144.908 105.994 142.774 109.386C141.476 111.449 138.258 114.62 119.528 114.564C101.729 114.512 92.8271 114.485 87.8882 109.064C84.1166 104.925 83.7606 98.6469 83.0454 86.0884C82.2988 72.9687 81.7751 63.726 87.5659 59.8755L87.564 59.8735Z" fill="currentColor"/>
</svg>
