<svg width="185" height="185" viewBox="0 0 185 185" fill="none" xmlns="http://www.w3.org/2000/svg">
<path d="M73.5578 95.1477C80.0514 95.1479 84.8281 101.247 83.0646 107.496C82.7032 108.777 82.3368 110.045 81.9679 111.299C85.4391 111.237 88.9534 111.204 92.509 111.204C96.3163 111.204 100.076 111.241 103.786 111.312C103.446 110.119 103.102 108.904 102.757 107.667C100.997 101.361 105.776 95.148 112.323 95.1477H164.305C169.571 95.1479 173.946 99.2569 174.228 104.516C177.027 156.732 171.747 170.769 165.583 172.431C164.916 172.612 164.593 172.55 161.024 172.431C145.726 171.921 136.644 172.539 134.529 172.431C128.059 172.099 118.719 161.481 105.697 117.862C102.23 117.63 98.424 117.488 94.0754 117.473C88.6706 117.454 84.0855 117.637 79.9377 117.951C69.9551 149.478 57.8383 170.911 48.0842 172.431L48.0832 172.434C47.0108 172.6 40.98 173.304 33.5012 173.647C23.724 174.093 18.833 174.291 16.7004 173.156C11.4318 170.349 9.3009 162.262 10.2004 129.719C10.4644 120.14 10.9053 111.595 11.3781 104.361C11.7185 99.1556 16.0663 95.1479 21.2824 95.1477H73.5578Z" fill="#333333"/>
<path d="M92.9377 125.871C95.5808 125.871 97.9129 127.601 98.6799 130.13C102.205 141.759 105.732 153.388 109.258 165.016C110.396 168.771 107.684 172.589 103.764 172.751C96.3939 173.056 89.0244 173.36 81.6545 173.664C77.6135 173.831 74.568 170.034 75.6086 166.125L85.1408 130.327C85.8404 127.7 88.2197 125.871 90.9387 125.871H92.9377Z" fill="#333333"/>
<path d="M169.109 72.1516C171.728 72.1516 173.852 74.2751 173.853 76.8948C173.853 79.5147 171.728 81.6389 169.109 81.6389H16.5422C13.9224 81.6387 11.799 79.5146 11.799 76.8948C11.7992 74.2752 13.9226 72.1518 16.5422 72.1516H169.109Z" fill="#333333"/>
<path d="M51.7717 12.6262C61.8647 9.27457 68.1613 20.3856 88.5265 22.3587C112.456 24.6762 124.251 11.0725 135.922 14.5344C144.497 17.0776 152.595 28.7132 146.562 72.1516V72.1497H32.7345C34.1976 27.6947 43.4112 15.4036 51.7717 12.6262Z" fill="#333333"/>
</svg>
