<svg width="185" height="185" viewBox="0 0 185 185" fill="none" xmlns="http://www.w3.org/2000/svg">
<path d="M89.8545 15.0337C114.701 14.9154 127.299 14.9241 135.858 18.2563C140.862 20.2047 163.011 28.8281 169.19 48.2192C171.445 55.2895 170.989 66.3095 170.909 74.187C170.848 80.1796 170.497 84.9405 170.366 86.3901C168.816 103.597 156.017 126.655 136.006 145.055C119.965 159.804 108.296 170.535 91.9521 169.979V169.983C77.3128 169.484 67.7335 160.231 50.625 143.703C27.6136 121.473 17.948 97.9274 15.9824 85.2427C15.1714 80.0107 14.7119 73.7896 14.7119 73.7896C14.4548 70.2898 13.2457 58.0026 14.7119 51.0171C18.8894 31.1173 41.4104 20.3661 44.252 19.0552C47.7048 17.464 53.5054 15.207 89.8545 15.0337ZM100.67 44.4858C89.6856 40.7478 74.6483 43.5774 67.7383 55.8628C60.7947 68.2115 66.0632 82.9919 75.0566 89.9946C81.2924 94.8483 88.1876 95.0857 90.6504 95.1343H90.6484C100.999 95.3413 116.082 89.9251 119.697 76.4165C123.317 62.8929 113.415 48.824 100.67 44.4858Z" fill="currentColor"/>
</svg>
