<svg width="185" height="185" viewBox="0 0 185 185" fill="none" xmlns="http://www.w3.org/2000/svg">
<path d="M80.8916 14.29C88.2722 13.3867 95.2643 12.5663 104.205 13.2578C108.921 13.6213 118.495 14.4371 129.686 19.0078C137.185 22.0711 153.031 28.5431 162.065 44.6602C166.454 52.4889 167.83 60.0892 168.271 62.6377C169.308 68.6269 169.026 72.6273 168.707 81.9248C167.996 102.698 168.797 100.601 168.194 107.226C166.953 120.843 165.472 137.112 153.844 150.376C151.772 152.739 145.147 160.118 134.18 164.041C129.097 165.858 124.91 166.279 113.23 166.572C95.1674 167.025 86.1349 167.251 80.8945 166.572C69.5894 165.106 54.2778 163.119 40.2334 151.815C27.505 141.569 22.3046 128.892 20.5391 124.438C14.5177 109.244 15.6357 95.9262 17.4053 74.8809C18.4123 62.8963 18.9163 56.9045 21.3301 51.1396C30.5713 29.0668 53.1436 20.3352 56.7354 19.0078C63.863 16.3726 70.0904 15.6129 80.8916 14.29ZM93.3887 117.65C88.3163 113.952 75.8436 118.008 70.3691 125.403C66.6189 130.47 66.8654 136.138 61.752 138.296C58.4472 139.689 56.0183 138.304 53.3311 140.472C50.1713 143.02 50.0774 147.72 50.0732 148.258C50.0691 149.016 50.1713 149.784 50.3682 150.557C56.7645 155.046 63.9213 158.322 71.3682 159.902C73.7305 160.403 79.4832 160.381 90.0752 160.145C90.2803 158.932 90.5021 157.53 90.7549 155.9C96.1002 121.557 95.3277 119.07 93.3887 117.655V117.65ZM162.065 58.5195C153.943 56.6297 141.094 64.5654 136.925 67.1387C129.926 71.4602 122.907 75.7941 120.508 83.8223C119.938 85.7266 120.064 86.3813 120.508 103.36C120.806 114.773 120.792 116.095 119.994 118.271C117.195 125.924 111.248 126.342 107.425 132.154C102.738 139.282 103.415 151.215 107.843 159.7C122.456 159.308 130.171 158.934 132.954 157.724C154.23 148.457 160.596 119.057 161.597 114.432L161.599 114.43C162.715 109.267 163.018 102.681 163.619 89.5107C164.315 74.2845 164.622 66.5447 162.69 60.3623C162.494 59.7351 162.285 59.1218 162.065 58.5195ZM77.7881 20.3311C74.7244 20.4328 72.7782 20.4662 71.8496 20.5098C58.6133 21.1245 37.5878 33.6991 28.0645 54.0674C22.5445 65.8736 22.8007 76.2097 23.1592 90.5723C23.3726 99.1324 23.564 106.673 25.2568 114.155C35.6231 118.529 49.7228 117.04 54.9219 110.368V110.363C60.34 103.408 55.0409 92.168 60.0879 89.5137C64.1097 87.3979 68.0618 94.2295 77.7568 94.8359C85.1456 95.2968 92.8204 91.9533 97.6006 86.6621C104.37 79.1714 103.869 69.398 103.581 63.7764C102.883 50.1781 95.9162 28.0526 77.7881 20.3311Z" fill="currentColor"/>
</svg>
