<svg width="185" height="185" viewBox="0 0 185 185" fill="none" xmlns="http://www.w3.org/2000/svg">
<path fill-rule="evenodd" clip-rule="evenodd" d="M47.4957 100.212C61.528 98.1337 72.8411 96.4584 79.6627 103.618C83.6813 107.836 84.5967 113.502 84.7409 117.434C87.6532 115.4 91.6705 116.096 93.6901 118.888C95.6242 121.563 95.1771 125.404 92.5934 127.615C93.3951 128.518 102.792 139.466 99.0905 152.339C98.6176 153.981 96.0971 162.043 88.61 165.914C83.262 168.678 77.9155 167.994 75.5348 167.71C41.8516 163.684 27.2603 171.113 20.1627 161.066C17.6466 157.505 19.9602 157.247 18.0768 131.736C17.066 118.048 16.2258 115.772 18.1803 112.102H18.1823C22.5461 103.911 33.64 102.265 47.4957 100.212ZM119.57 104.346C124.812 100.789 132.004 103.542 146.174 109.193C157.105 113.554 162.624 115.827 165.281 120.344V120.342C166.549 122.501 167.038 124.462 166.732 140.704C166.379 159.344 165.642 161.605 163.83 163.491C160.276 167.187 155.502 166.41 143.03 166.158C113.337 165.56 107.763 169.312 104.089 164.461C100.662 159.934 102.369 150.616 105.783 131.98C106.349 128.886 107.138 125.183 106.265 120.344C105.048 113.59 101.539 109.88 102.638 108.71C103.347 107.955 105.889 108.341 114.248 113.798C114.773 110.981 116.047 106.736 119.57 104.346ZM126.334 126.8C126.12 126.953 125.929 127.125 125.764 127.318C123.343 130.16 126.241 137.649 130.925 141.708C136.616 146.638 146.137 147.535 148.407 144.08C150.121 141.467 147.48 136.696 145.255 133.883C143.314 136.355 140.305 137.944 136.923 137.944C131.068 137.944 126.321 133.187 126.321 127.318C126.321 127.145 126.325 126.972 126.334 126.8ZM62.5729 120.981C54.5474 123.366 47.7938 130.554 49.1334 134.869C50.4204 139.012 59.1949 140.59 65.7037 139.039C66.4033 138.872 67.0993 138.659 67.7877 138.415C63.6672 136.429 60.822 132.207 60.8219 127.318C60.822 125 61.4614 122.832 62.5729 120.981ZM143.841 18.0748C161.182 16.6225 163.259 16.6612 165.266 18.0748C171.365 22.3729 168.509 33.5306 167.009 51.15C163.75 89.4355 171.355 105.784 163.16 109.959C161.014 111.049 152.803 107.453 136.466 100.215C122.312 93.9442 117.43 91.2409 113.137 85.647C110.702 82.4717 106.862 77.3084 107.489 70.3336C108.112 63.3914 112.781 58.8731 114.338 57.4859C101.665 57.2479 98.2175 53.9099 97.1276 51.5015C93.3292 43.1104 108.277 24.2806 125.533 19.7466H125.535C126.32 19.5411 132.162 19.053 143.841 18.0748ZM23.6354 21.2418C30.9988 16.3843 45.6973 17.1879 53.694 17.6822C73.1324 18.8863 74.053 19.0675 75.6989 20.3345H75.695C81.0044 24.419 83.077 31.4836 86.3649 42.6773C87.6049 46.9 88.3799 50.4947 88.861 53.0455C92.3215 57.966 91.6456 64.083 88.1871 67.0142C84.8769 69.819 80.227 68.6781 79.6871 68.5357C84.7853 77.5548 83.7705 82.5225 82.7233 84.9634C78.8768 93.9234 60.8174 93.4982 24.6989 92.65C24.3335 92.6418 23.4203 92.6094 22.5397 92.0504C20.8857 90.9987 20.508 88.8235 20.3639 87.9224C18.3608 75.394 18.8693 45.0394 18.1813 35.066C18.0432 33.0744 17.5807 27.8685 20.7955 23.8004C21.0777 23.4443 22.0037 22.3177 23.6354 21.2418ZM58.8659 42.1509C49.7115 42.3913 39.5092 46.327 39.3551 49.7213V49.8843C39.5054 52.9416 48.0319 55.2586 54.3034 55.5699C56.5816 55.6834 58.8952 55.5457 61.1266 55.2291C59.4851 53.4908 58.4762 51.1463 58.4762 48.564C58.4763 46.106 59.3895 43.8624 60.8932 42.1529C60.2048 42.1341 59.5262 42.1335 58.8659 42.1509ZM150.068 38.898C142.719 33.7257 131.132 34.6044 129.266 38.898C128.518 40.6192 129.323 42.9186 130.929 45.1998C131.042 40.4604 134.909 36.6521 139.665 36.6519C144.491 36.6521 148.404 40.5746 148.404 45.4117C148.404 49.3831 145.765 52.7347 142.15 53.8082C148.054 56.0456 155.023 56.2848 157.002 53.025C159.144 49.4935 155.083 42.427 150.068 38.898Z" fill="currentColor"/>
</svg>
