<svg width="185" height="185" viewBox="0 0 185 185" fill="none" xmlns="http://www.w3.org/2000/svg">
<path d="M79.1576 73.0403C77.5752 64.8078 140.081 27.8573 163.167 49.18C174.122 59.2957 174.064 80.5584 173.989 109.658C173.982 112.263 173.902 115.615 173.3 119.806C172.864 122.842 170.275 139.396 160.112 151.901C145.814 169.49 122.478 171.737 104.731 173.448C93.2716 174.552 83.7028 173.753 77.0433 173.199C61.7784 171.927 52.8227 171.181 44.8969 167.343C19.6381 155.107 11.8165 114.914 17.9535 111.056C22.1602 108.413 31.9039 130.478 52.3822 133.719C86.1527 139.056 122.334 88.915 117.795 82.6419C115.214 79.0792 100.208 89.8196 86.6342 82.264C81.3495 79.3224 79.3522 74.0452 79.1596 73.0403H79.1576Z" fill="currentColor"/>
<path d="M24.8695 78.1321C28.7658 77.5888 30.6502 79.9846 45.8392 94.3411C60.5506 108.243 65.7119 112.545 64.8353 118.337C64.4213 121.084 62.6412 124.221 59.8539 125.749C57.4274 127.085 54.4602 127.071 49.7357 125.567C41.9674 123.091 37.2453 119.049 31.6576 114.644C15.7704 102.13 13.306 102.751 12.3119 98.4495C10.4414 90.2995 17.2532 79.2084 24.8666 78.1321H24.8695Z" fill="currentColor"/>
<path d="M27.8119 67.2483C27.8386 59.3311 37.9558 50.4818 46.8978 51.1028C52.4061 51.491 57.0911 57.6471 66.2279 69.93C75.13 81.9022 79.5577 88.0187 78.2406 94.0569C76.8724 100.392 70.6801 106.547 64.7689 106.418C58.9485 106.276 57.4893 100.147 46.599 88.1741C34.0684 74.4006 27.7959 73.5064 27.809 67.262H27.8119V67.2483Z" fill="currentColor"/>
<path d="M53.1547 42.2952C54.3812 34.0807 65.3997 25.7102 75.9047 29.053C84.291 31.7217 88.9755 40.7794 87.9174 48.761C86.5248 59.1917 75.464 66.6673 68.5609 64.7884C66.5996 64.2559 65.3751 63.0002 63.0131 60.5247C57.8901 55.1475 52.1227 49.0828 53.141 42.2815L53.1547 42.2952Z" fill="currentColor"/>
<path d="M83.9721 24.929C85.6502 15.0817 97.4442 8.85052 107.239 11.6878C117.706 14.7203 124.093 27.5595 119.55 36.6946C115.638 44.5609 104.865 47.1895 96.6957 44.2103C89.1596 41.4638 82.5131 33.4426 83.9721 24.931V24.929Z" fill="currentColor"/>
</svg>
