<svg width="185" height="185" viewBox="0 0 185 185" fill="none" xmlns="http://www.w3.org/2000/svg">
<path fill-rule="evenodd" clip-rule="evenodd" d="M47.1079 25.6807C62.1148 16.6788 77.0612 17.6182 93.0035 18.6182C105.78 19.4202 120.302 20.3318 134.345 28.8731C157.462 42.9354 164.827 68.8879 167.139 80.9776C167.688 83.8466 165.501 86.441 162.584 86.584C155.405 86.9359 148.225 87.2878 141.046 87.6397C143.317 92.3348 166.194 140.821 147.112 159.72C142.241 164.544 136.39 165.703 109.346 166.754C57.303 168.776 31.1193 169.573 23.1734 159.186C19.0706 153.822 21.5267 152.149 19.856 111.848C18.4499 77.9052 16.4984 74.0479 19.856 62.9151C21.3429 57.9778 27.5413 37.4199 47.1079 25.6807ZM80.4654 62.2637C66.3124 63.5846 51.6016 69.7316 51.0181 77.5557C50.3482 86.5368 68.3899 96.4825 84.2456 97.8301C88.5465 98.1959 92.9975 97.9552 97.2954 97.253C86.211 94.536 78.0005 84.7089 78.0005 73C78.0005 69.157 78.8851 65.5167 80.4654 62.2637Z" fill="currentColor"/>
</svg>
