<svg width="185" height="185" viewBox="0 0 185 185" fill="none" xmlns="http://www.w3.org/2000/svg">
<path fill-rule="evenodd" clip-rule="evenodd" d="M135.656 20.3842C154.227 13.9545 163.579 10.7175 170.347 14.8296C178.257 19.6343 176.165 30.5467 174.155 83.9223C172.799 119.925 173.053 133.467 162.224 143.989C159.89 146.255 153.458 149.518 140.69 155.95C117.138 167.814 105.27 173.704 100.906 171.568C98.201 170.244 96.6922 167.694 95.9031 163.224C97.6833 162.6 99.3464 161.475 100.766 159.797C101.958 158.39 102.771 156.84 103.33 154.416C101.514 154.339 99.4703 154.204 97.1658 154.069C88.8918 153.584 82.7481 153.436 78.1345 153.261C78.4949 154.076 78.8977 154.816 79.3464 155.538L79.3493 155.537C81.9384 159.697 85.6007 162.449 89.363 163.423C88.5709 167.716 87.0734 170.188 84.4314 171.49C80.0713 173.635 68.1905 167.775 44.6072 155.969C31.8236 149.569 25.3821 146.322 23.0437 144.062C12.1906 133.567 12.4103 120.025 10.9675 84.0249C8.82656 30.6549 6.70794 19.7482 14.6062 14.9233C21.3638 10.7958 30.7243 14.0101 49.3103 20.393C64.776 25.7052 72.7867 28.458 79.3738 34.8745V34.8715C81.6443 37.0833 83.3598 39.3579 84.6618 41.9848C82.5534 42.6896 80.5975 44.0517 78.9939 46.1108C77.5663 47.9455 76.5545 50.1608 75.8952 56.5844C82.6638 55.9049 89.8152 55.8628 89.8152 55.8628C95.5227 55.8294 99.9212 55.4486 103.392 55.2046C102.913 53.4464 102.284 51.8589 101.459 50.3442C100.649 48.8586 99.7083 47.5482 98.6755 46.4204C100.044 41.7825 102.204 38.2916 105.629 34.9389C112.198 28.507 120.204 25.7341 135.656 20.3842ZM75.3103 65.5122C74.9552 74.2309 74.851 87.2003 74.9607 106.946C75.0463 122.471 75.2106 132.582 75.6579 139.523C79.8044 140.022 85.117 140.725 91.8445 140.911C96.9129 141.051 101.071 140.847 104.444 140.688C104.673 129.98 104.493 112.796 104.764 83.9321C104.834 76.5038 104.909 70.7288 104.739 66.0385C101.231 66.0771 96.836 66.0419 91.3855 66.0678C91.3855 66.0678 82.8542 66.1081 75.3103 65.5122Z" fill="#333333"/>
</svg>
