<svg width="185" height="185" viewBox="0 0 185 185" fill="none" xmlns="http://www.w3.org/2000/svg">
<path d="M85.0703 89.5583C86.6435 88.7992 91.5922 86.4167 96.9502 87.9374C100.804 89.0303 107.134 92.7872 116.052 131.42C122.826 160.765 120.564 164.617 118.596 166.466C114.54 170.278 109.979 167.231 86.3492 166.688C70.6174 166.326 67.9135 167.411 64.7644 164.707C58.5933 159.408 62.4337 145.82 67.9294 127.133C76.2216 98.9438 78.8828 92.5394 85.0703 89.5603L85.0703 89.5583Z" fill="#333333"/>
<path d="M81.9746 80.3847C109.486 83.7424 136.997 87.0982 164.509 90.4559C162.335 71.6126 148.52 56.3619 130.777 52.7362C110.748 48.6435 89.7176 60.1834 81.9746 80.3847Z" fill="#333333"/>
<path d="M106.31 17.9441C96.5117 38.3826 86.7139 58.8231 76.9181 79.2616C63.4003 70.1739 57.5569 53.684 62.2077 39.6122C67.7491 22.8453 87.2188 12.4579 106.31 17.9441Z" fill="#333333"/>
<path d="M14.4878 87.9832C35.6545 86.2498 56.8191 84.5163 77.9858 82.7828C77.3419 96.8229 69.5949 109.054 58.4898 113.306C42.9153 119.27 21.3712 109.297 14.4878 87.9832Z" fill="#333333"/>
</svg>
