<svg width="185" height="185" viewBox="0 0 185 185" fill="none" xmlns="http://www.w3.org/2000/svg">
<path d="M81.0723 134.812C74.3344 133.683 63.7345 131.91 55.4272 123.068C40.7558 107.456 46.8507 84.3066 47.1958 83.0793C52.7525 63.2434 71.8036 50.6557 90.2158 48.8025C93.9463 48.4277 114.031 46.8442 128.881 61.8061C142.983 76.0123 147.535 100.269 136.479 117.749C121.416 141.564 88.0218 135.975 81.0723 134.812Z" fill="#333333"/>
<path d="M87.6932 167.958C81.4113 164.105 84.8788 150.043 85.4294 147.811C85.9306 145.779 86.4832 144.397 87.6932 143.293C90.5979 140.645 95.9944 140.779 99.2483 143.293C101.444 144.992 102.001 147.263 102.987 151.573C103.854 155.36 106.048 164.95 101.781 167.958C100.697 168.722 99.1825 168.784 96.1525 168.903C92.0851 169.066 89.6591 169.163 87.6952 167.958H87.6932Z" fill="#333333"/>
<path d="M129.018 138.292C128.511 141.201 130.276 143.538 140.569 153.534C153.801 166.383 155.97 167.46 158.602 167.038C163.289 166.284 166.938 161.171 168.209 156.824C168.563 155.618 169.333 152.135 168.209 148.244C166.999 144.053 163.359 143.413 149.863 136.051C142.223 131.884 140.38 130.446 137.149 131.072C133.558 131.768 129.653 134.653 129.018 138.292Z" fill="#333333"/>
<path d="M151.007 88.6597C149.737 90.5953 149.67 92.6874 149.655 93.4266C149.641 94.1288 149.67 96.4062 151.007 98.6034C153.443 102.606 158.326 103.232 160.53 103.514C163.049 103.836 166.41 104.245 168.207 102.291C169.23 101.177 168.895 100.121 168.867 94.0382C168.836 87.5024 169.212 86.5408 168.207 85.4783C166.239 83.3985 162.439 84.0183 159.294 84.5619C156.541 85.0376 152.983 85.6512 151.009 88.6597H151.007Z" fill="#333333"/>
<path d="M134.302 49.2555C134.4 49.5026 135.682 52.614 138.626 53.59C142.009 54.7123 145.584 52.3504 148.836 49.9062C162.305 39.7751 169.29 34.5222 168.209 27.591C167.429 22.5832 162.566 17.5197 157.277 16.8916C154.526 16.5663 152.338 17.5217 151.167 18.0489C147.749 19.5891 145.841 22.0519 139.924 33.0025C134.078 43.8214 133.205 46.4818 134.304 49.2555H134.302Z" fill="#333333"/>
<path d="M87.1323 38.0722C90.7273 41.1177 96.853 41.4554 100.766 38.6096C103.837 36.3754 104.513 32.9284 105.393 28.4374C106.216 24.2346 106.837 21.0676 105.056 18.7284C103.112 16.175 99.5051 16.1668 92.8924 16.1915C87.3932 16.2121 84.6118 16.2595 83.0773 18.191C81.5427 20.1245 82.0584 22.7541 82.9869 27.4922C84.0962 33.1467 84.6508 35.9718 87.1323 38.0742V38.0722Z" fill="#333333"/>
<path d="M33.759 16.8916C42.2738 19.6468 47.0849 27.5663 51.181 34.3101C55.4128 41.2742 55.6963 43.6093 55.4703 45.3266C55.0327 48.6254 52.8162 52.4472 49.4082 53.8783C41.1461 57.348 29.9361 45.0713 23.1447 37.6336C20.616 34.8661 17.7729 31.3017 17.5777 26.5203C17.5284 25.326 17.3908 22.1384 19.5539 19.5356C21.6513 17.0069 24.8806 16.4551 26.2528 16.2203C27.4792 16.0103 30.1394 15.722 33.757 16.8937L33.759 16.8916Z" fill="#333333"/>
<path d="M17.397 103.543C19.2191 105.648 22.1135 105.648 26.9163 105.629C31.3514 105.613 36.8609 105.59 38.5125 102.483C38.6974 102.133 38.7652 101.877 38.8885 97.6912C39.0138 93.4884 39.0733 91.3778 38.8659 90.9597C37.5861 88.3796 33.2413 88.116 24.5539 87.593C20.0264 87.3212 18.6377 87.5971 17.5757 88.5835C16.0679 89.9878 16.0473 92.0923 16.0124 95.7144C15.9734 99.8203 15.9528 101.873 17.399 103.543H17.397Z" fill="#333333"/>
<path d="M30.5215 138.92C35.5216 135.549 46.7993 127.944 52.9066 132.153C55.0697 133.644 55.7826 136.064 55.9982 136.836C59.6096 149.755 36.1132 170.514 27.5018 166.578C25.9899 165.889 24.5539 164.262 22.6908 162.155C20.2996 159.45 17.9927 156.841 17.5757 154.176C16.6513 148.272 25.0819 142.587 30.5215 138.922V138.92Z" fill="#333333"/>
<path d="M17.5757 48.8046C19.4553 47.6082 22.1957 51.0058 32.6867 57.7125C40.6243 62.7863 43.1387 63.4493 44.1946 66.7955C45.4456 70.7552 43.907 76.0988 40.3983 78.125C38.4057 79.274 36.2796 78.9178 32.1095 78.16C25.8481 77.0213 19.8477 75.9279 17.5757 71.548C16.6985 69.8574 17.1936 69.2479 17.2511 62.9469C17.3477 52.4678 16.0206 49.7971 17.5757 48.8087V48.8046Z" fill="#333333"/>
<path d="M17.5757 117.628C18.194 116.718 19.0897 115.966 26.2384 114.07C36.0659 111.465 37.7956 111.978 39.0014 112.7C40.4949 113.596 42.2143 115.425 42.3457 117.626C42.4341 119.117 41.8342 121.462 33.0626 127.477C25.7885 132.466 19.9545 136.467 17.5736 134.591C17.1463 134.256 16.8855 133.772 16.8136 126.655C16.7396 119.349 16.9984 118.472 17.5736 117.624L17.5757 117.628Z" fill="#333333"/>
<path d="M56.3721 167.064C54.7534 164.995 57.9292 162.127 61.4646 151.575C63.4901 145.532 63.6236 142.964 66.2982 141.354C68.6483 139.939 72.1364 139.762 74.4536 141.354C77.3624 143.351 77.2987 147.356 77.1713 155.175C77.0666 161.688 76.9577 165.252 74.4536 167.062C73.7202 167.594 72.9786 167.83 66.6803 167.882C60.2793 167.935 57.0644 167.944 56.3742 167.062L56.3721 167.064Z" fill="#333333"/>
<path d="M110.397 141.356C106.968 144.772 108.698 151.345 109.996 156.283C111.245 161.031 111.909 163.554 114.322 165.504C116.549 167.303 119.745 167.528 126.05 167.905C131.946 168.257 134.891 168.432 135.769 167.064C137.009 165.127 133.957 162.635 129.569 154.077C125.425 145.999 125.078 142.233 120.968 140.225C120.224 139.863 117.841 138.697 114.834 139.231C114.32 139.321 112.026 139.729 110.397 141.354V141.356Z" fill="#333333"/>
<path d="M146.73 121.701C147.712 125.292 150.83 126.948 156.812 130.123C162.122 132.942 166.196 135.102 168.209 133.492C169.132 132.753 168.807 131.873 168.945 123.593C169.025 118.719 169.162 117.577 168.209 116.368C167.194 115.079 165.853 114.875 161.013 114.121C150.966 112.558 150.041 112.394 148.868 113.279C146.523 115.05 145.97 118.913 146.732 121.701H146.73Z" fill="#333333"/>
<path d="M146.41 65.2779C146.831 60.5294 151.461 57.6507 156.099 54.7679C159.195 52.8426 164.699 49.4223 166.892 51.2426C167.64 51.8624 167.531 52.7005 167.299 59.1333C167.042 66.2251 167.108 67.0034 166.262 68.0721C165.81 68.6446 165.072 69.3303 157.704 70.9817C150.808 72.5282 149.746 72.312 148.866 71.7313C146.822 70.3866 146.221 67.3885 146.41 65.2758V65.2779Z" fill="#333333"/>
<path d="M112.884 38.6467C111.311 36.5463 111.925 33.6038 113.149 27.7167C114.427 21.5783 115.066 18.5101 117.667 16.8916C118.979 16.0741 121.377 16.0597 126.169 16.0268C130.76 15.9959 133.071 15.998 133.893 16.8257C136.681 19.6324 133.053 27.3048 131.216 31.1884C128.864 36.1613 127.472 39.11 124.043 40.5617C120.446 42.0855 115.183 41.7148 112.884 38.6446V38.6467Z" fill="#333333"/>
<path d="M66.5776 41.4348C62.1774 40.4402 59.9609 36.5361 55.5237 28.7277C52.1958 22.8694 49.9629 18.8417 51.5097 16.8278C52.1445 16.0021 53.0689 15.9568 60.2793 16.0185C69.0879 16.0947 69.8479 16.1812 70.9059 16.8916C73.2888 18.4937 73.9996 21.5103 75.4232 27.5478C76.82 33.4741 77.5185 36.4352 75.9552 38.6446C74.016 41.3854 69.7452 42.1493 66.5797 41.4327L66.5776 41.4348Z" fill="#333333"/>
</svg>
