<svg width="185" height="185" viewBox="0 0 185 185" fill="none" xmlns="http://www.w3.org/2000/svg">
<path fill-rule="evenodd" clip-rule="evenodd" d="M91.1331 17.0212C108.683 16.4539 125.84 27.3462 130.96 41.3688C132.514 45.6223 133.758 57.2904 131.996 64.0524C152.872 64.4232 158.775 65.6838 163.552 71.7146C168.354 77.7811 168.189 93.2506 167.857 124.185C167.644 144.063 167.475 154.089 164.492 158.301C156.594 169.449 142.108 167.845 84.9603 167.919C37.5718 167.978 28.1028 169.106 21.1946 160.652C16.1877 154.526 16.6153 137.973 17.6741 105.124C18.5507 77.9119 20.0585 74.8558 21.8997 72.4187L21.9017 72.4206C26.8372 65.8858 34.0582 63.9254 50.3733 63.4948C49.635 56.36 53.0177 44.5596 55.0354 39.9333C60.6268 27.119 75.4778 17.5293 91.1331 17.0212ZM97.0872 102.964C96.444 102.601 92.2112 100.312 88.0804 102.267C83.149 104.602 82.7366 110.913 82.6546 112.185C82.4314 115.636 83.5781 118.338 84.2581 119.663C84.0226 121.909 83.5723 126.178 82.9661 131.611C81.8438 141.675 81.444 144.492 83.2894 146.142V146.144C83.7174 146.527 84.3937 146.961 93.0735 146.807C100.153 146.682 101.018 146.372 101.696 145.659C103.355 143.916 102.586 141.153 101.533 135.003C100.968 131.701 100.212 126.788 99.596 120.632C100.022 120.158 103.528 116.108 102.461 110.594C102.308 109.794 101.36 105.362 97.0872 102.964ZM114.904 42.4011C110.901 34.3322 99.7269 29.5452 89.5481 30.5446C82.5704 31.2308 73.4994 34.8871 69.6224 42.4011C66.6411 48.1778 67.8766 57.4167 66.8978 63.4304C73.8096 63.4922 81.8017 63.6182 91.0804 63.7146C101.183 63.8191 109.772 63.8572 117.104 63.9021C116.305 57.2728 117.457 47.5524 114.904 42.4011Z" fill="currentColor"/>
</svg>
