<svg width="185" height="185" viewBox="0 0 185 185" fill="none" xmlns="http://www.w3.org/2000/svg">
<path d="M170.455 31.1851C162.943 24.7147 145.19 34.4687 139.753 37.3547C108.053 54.1722 79.2523 91.2433 87.9606 104.824C94.7266 115.38 122.19 108.699 133.228 104.824C139.47 102.633 161.807 94.7331 170.455 73.5963C174.256 64.3065 174.252 55.2939 174.248 49.6981C174.243 40.8015 174.239 34.4472 170.455 31.1851Z" fill="#333333"/>
<path d="M21.3104 15.7023C30.9727 7.90603 49.093 16.8692 52.3103 18.4615C80.4929 32.4038 87.5006 69.2578 89.0515 78.8442C87.4621 80.3721 85.6674 82.4952 84.247 85.3254C79.7207 94.338 82.4908 103.49 83.3358 105.979C80.0565 105.845 43.1549 103.765 25.3854 75.1352C15.092 58.5519 15.0557 41.2101 15.169 36.5813C15.3637 28.8129 15.5755 20.3311 21.3104 15.7023Z" fill="#333333"/>
<path d="M78.4606 110.5C79.8083 109.977 80.1933 110.792 86.3839 112.337C95.1093 114.514 97.1029 113.581 99.5714 115.309C103.405 117.991 103.253 123.501 103.604 132.324C104.654 158.704 108.286 166.305 103.24 169.87C101.533 171.076 98.1768 171.129 91.4621 171.233C84.0373 171.349 80.326 171.407 78.035 169.87C73.6434 166.926 74.5932 160.668 74.837 140.967C75.0851 120.999 74.298 112.113 78.4606 110.5Z" fill="#333333"/>
</svg>
