<svg width="185" height="185" viewBox="0 0 185 185" fill="none" xmlns="http://www.w3.org/2000/svg">
<path fill-rule="evenodd" clip-rule="evenodd" d="M86.5947 28.1041C143.757 27.5534 154.173 28.984 160.075 37.357C162.805 41.2292 161.57 42.3328 161.791 75.0289C162.006 106.965 163.261 117.313 155.772 123.276C152.2 126.119 148.805 126.242 137.236 126.911C127.096 127.498 111.674 128.444 91.9511 129.885C88.6585 142.943 81.4774 169.6 76.996 168.989C72.9324 168.434 72.7403 145.685 72.9736 131.588L73.0243 128.895C67.4454 128.485 58.5757 127.963 47.538 127.904C36.0155 127.843 33.7061 128.35 30.6572 126.583C23.7981 122.606 22.5618 112.546 22.2118 87.9176C21.7744 57.1092 21.639 41.6051 25.6923 36.6959C31.4805 29.6845 39.2451 28.5599 86.5947 28.1041ZM93.8495 63.026C88.674 52.2131 80.0004 46.607 74.1552 48.3385C66.0065 50.7522 65.6728 66.7356 65.6366 68.4391C65.2945 84.79 76.0381 107.193 91.9511 107.605C110.073 108.074 119.758 79.6336 120.351 77.8199C121.934 72.9887 125.793 61.2049 119.836 55.5533C114.774 50.7508 105.72 53.3162 105.125 53.4928C97.753 55.6842 94.4548 61.8422 93.8495 63.026Z" fill="currentColor"/>
</svg>
