<svg width="185" height="185" viewBox="0 0 185 185" fill="none" xmlns="http://www.w3.org/2000/svg">
<path fill-rule="evenodd" clip-rule="evenodd" d="M124.193 108.397C129.785 107.808 132.422 110.779 147.003 120.822C162.168 131.264 165.173 132.083 167.039 137.217C167.62 138.812 170.652 145.847 167.787 153.661C163.68 164.86 151.371 167.495 150.644 167.638C146.819 168.39 143.663 167.758 142.011 167.638C135.919 167.197 130.696 162.109 117.058 144.683C104.488 128.619 102.365 124.56 103.844 120.824L103.842 120.822C104.948 118.028 107.724 116.282 112.169 113.486C115.036 111.683 119.468 108.896 124.193 108.397ZM63.7906 17.9137C85.9486 16.6115 97.0306 15.9605 108.985 21.2331C114.756 23.7778 122.922 27.3777 128.45 35.945C135.214 46.4249 133.98 58.0553 132.48 72.1823C131.364 82.7076 130.633 89.5925 125.974 97.0085C119.052 108.024 108.305 112.493 101.64 115.162C78.5962 124.389 45.4145 123.259 29.0563 104.846V104.848C22.1565 97.0821 18.7408 87.0407 18.7408 87.0407C16.0985 79.2666 16.024 72.9627 16.0055 66.6803C15.9725 56.1719 15.9484 48.5602 20.3951 40.071C25.7132 29.9189 34.1824 24.7032 38.065 22.6735C41.1443 21.0622 46.125 18.9523 63.7906 17.9137ZM113.896 33.5798C101.064 20.1846 78.4128 23.8668 58.7057 27.071C47.085 28.9605 41.1605 30.0008 35.5973 34.7008H35.5953C22.4299 45.8277 20.0802 68.4651 27.9684 84.7516C33.3934 95.9502 42.4086 101.564 46.3697 103.961C69.9388 118.215 95.943 107.857 101.556 105.401C106.508 103.235 112.229 100.649 116.812 94.6286C123.234 86.1928 123.222 76.5327 123.094 68.1442C122.909 55.884 122.709 42.7821 113.896 33.5798ZM48.7643 56.196C62.2411 44.54 86.0599 40.9015 99.2975 52.6647C100.633 53.8526 108.853 61.4084 107.534 70.4489C105.791 82.3958 88.6445 88.3328 78.3727 89.6022C61.5015 91.6854 40.4286 83.9807 38.9703 72.6764C38.042 65.473 45.3782 59.126 48.7643 56.196ZM61.5065 55.2321C51.7054 58.8685 44.0227 65.6691 44.7828 70.9665L44.8404 71.2917C45.9402 76.49 55.2013 80.0231 64.7027 81.1276C59.9368 78.1849 56.7604 72.9134 56.7604 66.8991C56.7605 62.3599 58.5698 58.2434 61.5065 55.2321ZM83.5387 53.5729C87.5638 56.6237 90.1645 61.4576 90.1646 66.8991C90.1646 71.9716 87.9035 76.5153 84.3365 79.5798C93.8591 76.9397 102.248 71.8901 102.191 66.5133C102.133 61.096 93.5042 55.6719 83.5387 53.5729Z" fill="currentColor"/>
</svg>
