<svg width="24" height="24" xmlns="http://www.w3.org/2000/svg">
    <path d="M20.5 20.375a.5.5 0 01.5.5 1.5 1.5 0 01-1.5 1.5H18a1.5 1.5 0 01-1.5-1.5.5.5 0 01.5-.5zm-13.5 0a.5.5 0 01.5.5 1.5 1.5 0 01-1.5 1.5H4.5a1.5 1.5 0 01-1.5-1.5.5.5 0 01.5-.5zm12-18.75a3 3 0 013 3v14a.5.5 0 01-.5.5h-19a.5.5 0 01-.5-.5v-14a3 3 0 013-3zm-13.5 13a1.5 1.5 0 100 3 1.5 1.5 0 000-3zm13 0a1.5 1.5 0 100 3 1.5 1.5 0 000-3zm.5-10.5H5a1 1 0 00-1 1v7a1 1 0 001 1h14a1 1 0 001-1v-7a1 1 0 00-1-1z" fill="currentColor" fill-rule="evenodd"/>
</svg>
