<svg viewBox="0 0 70 20" fill="none" xmlns="http://www.w3.org/2000/svg">
<path d="M63.1531 4.53356L64.4292 12.4429H61.8747L63.1531 4.53356ZM69.9983 18.3444L67.054 1.6556H59.2522L56.3078 18.3444H60.924L61.5376 14.499H64.7759L65.3851 18.3444H69.9983ZM50.1991 18.3444H55.1055V1.6556H50.1991V18.3444ZM43.5498 9.15329C42.2247 8.64864 41.9548 8.35522 41.9548 7.89598C41.9548 7.31491 42.4455 7.00059 43.476 7.00059C44.8991 7.00059 46.4693 7.48433 47.9905 8.08919V2.6959C46.9359 1.82502 45.0469 1.29297 43.1081 1.29297C39.744 1.29297 37.735 2.88911 37.735 5.71877C37.735 8.1858 39.0105 9.34722 41.9307 10.4113L43.0101 10.7985C44.1875 11.231 44.5803 11.5482 44.5803 12.0803C44.5803 12.4912 44.3353 12.9995 43.1081 12.9995C41.4151 12.9995 39.3783 12.1769 37.98 11.4271V17.4498C39.3052 18.1267 41.3909 18.7071 43.4518 18.7071C46.9622 18.7071 48.9719 17.2558 48.9719 14.1602C48.9719 12.0558 48.1133 10.8705 44.826 9.63703L43.5498 9.15329ZM32.8278 9.99966C32.8278 11.9109 32.0673 13.0233 30.3011 13.0233C28.5349 13.0233 27.7736 11.9094 27.7736 9.99966C27.7736 8.08991 28.5342 6.9768 30.3011 6.9768C32.068 6.9768 32.8278 8.08919 32.8278 9.99966ZM30.3011 1.29297C25.1482 1.29297 23.8457 5.21123 23.8457 9.99966C23.8457 14.8133 25.146 18.7071 30.2989 18.7071C35.4518 18.7071 36.7514 14.814 36.7514 9.99966C36.7514 5.21123 35.4511 1.29297 30.2989 1.29297H30.3011ZM18.4017 7.21831C19.8738 7.21831 20.9774 7.65087 22.5476 8.50012V3.01023C21.64 2.01823 19.8 1.29297 17.9599 1.29297C13.7395 1.29297 11.4862 3.95321 11.4862 9.99966C11.4862 15.4665 13.3263 18.7071 17.9877 18.7071C19.8036 18.7071 21.6444 17.9818 22.5512 16.966V11.4992C20.9811 12.3463 19.8775 12.7817 18.4053 12.7817C16.4666 12.7817 15.412 12.1041 15.412 9.97587C15.412 7.84768 16.8593 7.21831 18.4053 7.21831H18.4017ZM10.3607 1.6556H0V18.3444H10.3541V13.0233H3.92577V11.0155H8.09433V8.98387H3.92577V6.9768H10.3541L10.3607 1.6556Z" fill="currentColor"/>
</svg>
