<svg xmlns="http://www.w3.org/2000/svg" width="80" height="80" viewBox="0 0 80 80" fill="none">
  <path d="M68.2 11.3H14a2.6 2.6 0 0 0-2.6 2.6v51.7c0 1.5 1.1 2.6 2.6 2.6h22.4c.3-2 .7-5 1.1-6.5a9 9 0 0 0 .1-4.3c-5.4 2.5-13.8.1-16.2-5.4-1.3-5.6 1.6-8.9 5.8-10-1-6.7-1-7 .6-12 2.5-5.7 8.6-8.4 13.6-6.7a11 11 0 0 1 7.2 9.6c0 3.7-2.4 6.9-2.2 7 .2.1 1.4-3.2 4.2-4.7 3.5-1.8 9.6-.7 10.8 2.7 1.2 3-1.6 6.8-4.3 8.5-2.8 1.8-6 1.8-6 2.3 0 .5 2.3.2 4 1.6a5.8 5.8 0 0 1 1.2 6.7c-1.5 2.4-6.6 3.3-11.5.1h-1.4c-.2 3.4.4 8.3.8 11.1h24c1.5 0 2.6-1.1 2.6-2.6V14c0-1.5-1.1-2.6-2.6-2.6Z" fill="#A4D24F"/>
  <path d="m43.4 57 1.4.1c5 3.2 10 2.3 11.5-.1 1.1-1.9.6-5.2-1.2-6.7-1.7-1.4-4-1-4-1.6 0-.5 3.2-.5 6-2.3 2.7-1.7 5.5-5.6 4.3-8.5-1.2-3.4-7.3-4.5-10.8-2.7-2.8 1.5-4 4.8-4.2 4.7-.2-.1 2.2-3.3 2.2-7s-2.8-8.1-7.2-9.6c-5-1.7-11.1 1-13.6 6.7-1.7 5-1.7 5.3-.6 12-4.2 1-7.2 4.3-5.8 10 2.4 5.5 10.8 8 16.2 5.4.2.9.4 2.7 0 4.3-.5 1.4-1 4.4-1.2 6.5h7.8a64 64 0 0 1-.8-11.2Z" fill="#008009"/>
  <path d="M15.1 15.5a1.1 1.1 0 1 0 0-2.2 1.1 1.1 0 0 0 0 2.2Z" fill="#FF8A8C"/>
  <path d="M18.2 15a1.1 1.1 0 1 0 0-2.2 1.1 1.1 0 0 0 0 2.2Z" fill="#F7BC00"/>
  <path d="M21.3 15.5a1.1 1.1 0 1 0 0-2.2 1.1 1.1 0 0 0 0 2.2Z" fill="#008009"/>
  <path fill-rule="evenodd" clip-rule="evenodd" d="M70.8 17.7H11.4v-1.2h59.4v1.2Z" fill="#275243"/>
  <path d="M16.8 29.4.5 56.4C-.5 58 0 60 1.7 61l12 7.4c1.7 1 3.8.4 4.8-1.2l16.2-27c1-1.6.5-3.7-1.1-4.7l-12.1-7.3c-1.7-1-3.8-.5-4.7 1.2Z" fill="#FD4256"/>
  <path d="M18.3 31 4 55c-.3.5-.1 1.2.4 1.6l12 7.2c.6.3 1.3.1 1.6-.4l14.5-24c.3-.5.1-1.2-.4-1.6l-12-7.2c-.6-.3-1.3-.2-1.7.4Z" fill="#F7BC00"/>
  <path d="M9.7 63.3a1 1 0 1 0 0-2 1 1 0 0 0 0 2Z" fill="#FFAF87"/>
  <path d="M24.7 49.7c.2-1.1-1.3-2.4-2.6-2.5-1-.1-1.9.6-1.9.5 0 0 1.2-.5 1.8-1.5.6-1 .6-2.7-.4-3.9-1-1.3-3.2-1.6-4.9-.4-1.3 1-1.3 1.1-2.2 3.1-1.3-.3-2.7 0-3.2 1.9-.3 1.9 1.6 4 3.5 4.2 0 .3-.3.8-.7 1.2a24 24 0 0 0-1.7 2.1v.1l.1.1 1.7 1a.3.3 0 0 0 .4 0v-.1c.4-.7 1.1-2.5 1.9-3.5l.4.2c.8 1.7 2.3 2.4 3.2 2 .6-.4 1-1.4.7-2.1-.2-.7-.9-1-.8-1.1 0-.2 1 .4 2 .4s2.5-.7 2.7-1.7Z" fill="#008009"/>
  <path d="M75.8 42.6H35.4a4 4 0 0 0-4 4.1v17.6a4 4 0 0 0 4 4h40.4a4 4 0 0 0 4.1-4V46.7a4 4 0 0 0-4-4Z" fill="#F7BC00"/>
  <path d="M75 44.8h-8l.1.8c0 2.4-1.5 4.4-1.4 4.5.1 0 1-2 2.7-3 2.3-1.2 6.3-.5 7.1 1.8.7 1.9-1 4.4-2.8 5.5-1.9 1.2-4 1.1-4 1.5 0 .3 1.5 0 2.6 1 1.2 1 1.5 3.2.8 4.4-1 1.6-4.3 2.1-7.5 0h-.9c0 1.5 0 3.4.2 5h11c1 0 1.8-.7 1.8-1.7v-18c0-1-.8-1.8-1.7-1.8ZM60 61.5c-3.6 1.6-9 0-10.6-3.6-1-3.6 1-5.8 3.7-6.5-.5-3.7-.6-4.4 0-6.6h-17c-1 0-1.7.8-1.7 1.8v18c0 1 .8 1.7 1.7 1.7h23.3l.4-2a7 7 0 0 0 .1-2.8Z" fill="#FF8A8C"/>
  <path d="M63.7 61.3h1c3.1 2.1 6.4 1.6 7.4 0 .7-1.2.4-3.4-.8-4.4-1-1-2.6-.7-2.6-1 0-.4 2.1-.3 4-1.5 1.7-1.1 3.5-3.6 2.8-5.5-.8-2.3-4.8-3-7-1.8-1.9 1-2.7 3-2.8 3-.1 0 1.5-2.1 1.4-4.5v-.8H53c-.6 2.2-.5 2.9 0 6.6-2.7.7-4.6 2.9-3.7 6.5 1.5 3.6 7 5.2 10.5 3.6a7 7 0 0 1 0 2.8l-.5 2H64c-.2-1.6-.3-3.5-.2-5Z" fill="#008009"/>
</svg>
