<svg width="24" height="24" viewBox="0 0 24 24" fill="none" xmlns="http://www.w3.org/2000/svg">
<path fill-rule="evenodd" clip-rule="evenodd" d="M3.99988 7C3.99988 6.44772 4.44759 6 4.99988 6L17.0857 6L14.7928 3.70711C14.4022 3.31658 14.4022 2.68342 14.7928 2.29289C15.1833 1.90237 15.8165 1.90237 16.207 2.29289L19.4999 5.58579C20.2809 6.36683 20.2809 7.63316 19.4999 8.41421L16.207 11.7071C15.8165 12.0976 15.1833 12.0976 14.7928 11.7071C14.4022 11.3166 14.4022 10.6834 14.7928 10.2929L17.0857 8L4.99988 8C4.44759 8 3.99988 7.55229 3.99988 7ZM9.20696 21.7071C9.59748 21.3166 9.59748 20.6834 9.20696 20.2929L6.91406 18L18.9998 18C19.5521 18 19.9998 17.5523 19.9998 17C19.9998 16.4477 19.5521 16 18.9998 16L6.91406 16L9.20696 13.7071C9.59748 13.3166 9.59748 12.6834 9.20696 12.2929C8.81643 11.9024 8.18327 11.9024 7.79274 12.2929L4.49985 15.5858C3.7188 16.3668 3.7188 17.6332 4.49985 18.4142L7.79274 21.7071C8.18327 22.0976 8.81643 22.0976 9.20696 21.7071Z" fill="currentColor"/>
</svg>
