<svg width="32" height="32" viewBox="0 0 32 32" fill="none" xmlns="http://www.w3.org/2000/svg">
<g clip-path="url(#clip0_5470_15893)">
<path d="M0 16C0 7.16344 7.16344 0 16 0C24.8366 0 32 7.16344 32 16C32 24.8366 24.8366 32 16 32C7.16344 32 0 24.8366 0 16Z" fill="white"/>
<rect width="32" height="32" fill="#333333"/>
<path d="M17.8398 16.6398C20.2257 16.6398 22.1602 18.5742 22.1602 20.9601V21.6798C22.1602 22.0774 21.8371 22.3995 21.4395 22.3995C21.042 22.3993 20.7197 22.0773 20.7197 21.6798V20.9601C20.7197 19.3695 19.4304 18.0802 17.8398 18.0802H13.5195C11.9292 18.0804 10.6396 19.3697 10.6396 20.9601V21.6798C10.6396 22.0774 10.3176 22.3995 9.91992 22.3995C9.52231 22.3995 9.2002 22.0774 9.2002 21.6798V20.9601C9.2002 18.5744 11.1339 16.64 13.5195 16.6398H17.8398ZM15.6807 8.00012C17.6688 8.00012 19.2811 9.61168 19.2812 11.5997C19.2812 13.5879 17.6689 15.2003 15.6807 15.2003C13.6925 15.2002 12.0811 13.5879 12.0811 11.5997C12.0812 9.61174 13.6926 8.00022 15.6807 8.00012ZM15.6807 9.44055C14.4879 9.44065 13.5207 10.407 13.5205 11.5997C13.5205 12.7926 14.4878 13.7598 15.6807 13.7599C16.8736 13.7599 17.8408 12.7927 17.8408 11.5997C17.8406 10.407 16.8735 9.44055 15.6807 9.44055Z" fill="white"/>
</g>
<defs>
<clipPath id="clip0_5470_15893">
<path d="M0 16C0 7.16344 7.16344 0 16 0C24.8366 0 32 7.16344 32 16C32 24.8366 24.8366 32 16 32C7.16344 32 0 24.8366 0 16Z" fill="white"/>
</clipPath>
</defs>
</svg>
