<svg width="16" height="16" viewBox="0 0 16 16" fill="none" xmlns="http://www.w3.org/2000/svg">
<path fill-rule="evenodd" clip-rule="evenodd" d="M1.33691 11.0948C1.33692 10.8402 1.44034 10.5965 1.62346 10.4196L2.31134 9.75525C2.57319 9.50234 2.72059 9.15359 2.7195 8.78954L2.71317 6.68169C2.70432 3.73259 5.09257 1.33716 8.04169 1.33716C10.9846 1.33716 13.3702 3.72282 13.3702 6.66569L13.3702 8.80556C13.3702 9.16016 13.5111 9.50024 13.7618 9.75098L14.4304 10.4195C14.6077 10.5968 14.7073 10.8373 14.7073 11.088C14.7073 11.6102 14.284 12.0334 13.7618 12.0334H10.6962C10.6962 13.5103 9.49894 14.7075 8.02209 14.7075C6.54524 14.7075 5.34802 13.5103 5.34802 12.0334H2.27557C1.75716 12.0334 1.33691 11.6132 1.33691 11.0948ZM6.68506 12.0334C6.68506 12.7719 7.28367 13.3705 8.02209 13.3705C8.76052 13.3705 9.35913 12.7719 9.35913 12.0334H6.68506ZM12.0332 8.80556C12.0332 9.51476 12.3149 10.1949 12.8164 10.6964L3.26125 10.6964C3.7718 10.1923 4.05869 9.50381 4.05653 8.78552L4.0502 6.67768C4.04357 4.46856 5.83256 2.67419 8.04169 2.67419C10.2461 2.67419 12.0332 4.46125 12.0332 6.66569L12.0332 8.80556Z" fill="currentColor"/>
</svg>
