<svg width="24" height="24" viewBox="0 0 24 24" fill="none" xmlns="http://www.w3.org/2000/svg">
<circle cx="12" cy="12" r="10" fill="#F7BC00"/>
<path d="M15.2266 10.5533H13.8985C13.8606 10.3355 13.7908 10.1425 13.689 9.97443C13.5872 9.80398 13.4605 9.65956 13.309 9.54119C13.1575 9.42282 12.9847 9.33404 12.7906 9.27486C12.5988 9.21331 12.3916 9.18253 12.1691 9.18253C11.7737 9.18253 11.4234 9.28196 11.118 9.48082C10.8126 9.67732 10.5735 9.96615 10.4006 10.3473C10.2278 10.7261 10.1414 11.1889 10.1414 11.7358C10.1414 12.2921 10.2278 12.7609 10.4006 13.142C10.5758 13.5208 10.8149 13.8073 11.118 14.0014C11.4234 14.1932 11.7726 14.2891 12.1656 14.2891C12.3834 14.2891 12.587 14.2607 12.7764 14.2038C12.9681 14.1446 13.1398 14.0582 13.2913 13.9446C13.4451 13.831 13.5742 13.6913 13.6783 13.5256C13.7849 13.3598 13.8583 13.1705 13.8985 12.9574L15.2266 12.9645C15.1769 13.3101 15.0692 13.6345 14.9035 13.9375C14.7401 14.2405 14.5259 14.508 14.2607 14.7401C13.9956 14.9697 13.6854 15.1496 13.3303 15.2798C12.9752 15.4077 12.581 15.4716 12.1478 15.4716C11.5086 15.4716 10.938 15.3236 10.4362 15.0277C9.93426 14.7318 9.5389 14.3045 9.25007 13.7457C8.96125 13.187 8.81683 12.517 8.81683 11.7358C8.81683 10.9522 8.96243 10.2822 9.25362 9.72585C9.54482 9.16714 9.94136 8.73982 10.4433 8.44389C10.9451 8.14796 11.5133 8 12.1478 8C12.5526 8 12.929 8.05682 13.2771 8.17045C13.6251 8.28409 13.9352 8.45099 14.2075 8.67116C14.4797 8.88897 14.7034 9.15649 14.8786 9.47372C15.0562 9.78859 15.1722 10.1484 15.2266 10.5533Z" fill="black"/>
</svg>
