<svg width="24" height="24" viewBox="0 0 24 24" fill="none" xmlns="http://www.w3.org/2000/svg">
<circle cx="12" cy="12" r="10" fill="#FF8A8C"/>
<path d="M11.9645 15.2727H9.5V8H12.0142C12.7363 8 13.3565 8.1456 13.875 8.43679C14.3958 8.72562 14.7959 9.1411 15.0753 9.68324C15.3546 10.2254 15.4943 10.8741 15.4943 11.6293C15.4943 12.3868 15.3535 13.0379 15.0717 13.5824C14.7924 14.1269 14.3887 14.5447 13.8608 14.8359C13.3352 15.1271 12.7031 15.2727 11.9645 15.2727ZM10.8175 14.1328H11.9006C12.4072 14.1328 12.8298 14.0405 13.1683 13.8558C13.5069 13.6688 13.7614 13.3906 13.9318 13.0213C14.1023 12.6496 14.1875 12.1856 14.1875 11.6293C14.1875 11.0729 14.1023 10.6113 13.9318 10.2443C13.7614 9.875 13.5092 9.5992 13.1754 9.4169C12.844 9.23224 12.4321 9.13991 11.9396 9.13991H10.8175V14.1328Z" fill="black"/>
</svg>
