<svg width="24" height="24" viewBox="0 0 24 24" fill="none" xmlns="http://www.w3.org/2000/svg">
<path fill-rule="evenodd" clip-rule="evenodd" d="M18.7643 14.9027C18.4346 15.1134 18.0205 14.8286 17.9483 14.4441C17.8407 13.8706 17.5651 13.3224 17.1213 12.8787L14.123 9.88032L14.1079 9.86534C13.5661 9.33029 12.8216 9 12 9C11.5932 9 11.2054 9.08096 10.8516 9.22764C10.5018 9.37237 10.1738 9.58613 9.88849 9.86891L9.87739 9.87997L6.87868 12.8787C6.26361 13.4938 5.97145 14.3095 6.0022 15.1151C6.01654 15.491 5.70094 15.8443 5.346 15.7199C3.3974 15.0371 2 13.1818 2 11C2 8.23858 4.23858 6 7 6C7.54527 6 8.07015 6.08728 8.56143 6.24864C9.63037 3.75042 12.1108 2 15 2C18.866 2 22 5.13401 22 9C22 11.4803 20.71 13.6594 18.7643 14.9027ZM8.29289 15.7071C8.68342 16.0976 9.31658 16.0976 9.70711 15.7071L11 14.4142V20C11 20.5523 11.4477 21 12 21C12.5523 21 13 20.5523 13 20V14.4142L14.2929 15.7071C14.6834 16.0976 15.3166 16.0976 15.7071 15.7071C16.0976 15.3166 16.0976 14.6834 15.7071 14.2929L12.7071 11.2929C12.6112 11.197 12.5007 11.1247 12.3828 11.0759C12.2657 11.0273 12.1375 11.0004 12.003 11L12 11L11.997 11C11.7421 11.0008 11.4874 11.0984 11.2929 11.2929L8.29289 14.2929C7.90237 14.6834 7.90237 15.3166 8.29289 15.7071Z" fill="currentColor"/>
</svg>
