<svg width="24" height="24" viewBox="0 0 24 24" fill="none" xmlns="http://www.w3.org/2000/svg">
<path d="M3.91575 6.27499C2.86191 7.85595 3.44055 10.7083 3.91555 11.975H5.34055C5.34055 11.5 5.53055 10.455 6.29055 10.075C7.24054 9.59999 8.18998 11.025 9.61498 11.025C10.5644 11.025 11.5155 10.3917 11.9905 10.075C12.6239 10.2333 13.415 10.55 14.8405 10.55C16.74 10.55 17.6905 9.12499 17.6905 9.12499C17.6905 9.12499 21.4894 9.12499 21.015 5.32499C20.5394 2.95 17.69 2.475 16.7405 2.95C16.7405 2.95 14.8392 2 12.94 2C11.0407 2 9.96758 2.49204 9.13998 2.95C8.10067 3.52511 7.39888 4.375 7.24054 4.84999C6.92383 4.84999 4.86563 4.84999 3.91575 6.27499Z" fill="var(--color-fossil-fuel-icon-color-top)" class="top"/>
<path d="M5.65145 11.6785C5.6405 11.577 5.55476 11.5 5.4526 11.5H3.76338C3.66122 11.5 3.57548 11.577 3.56453 11.6785L2.58344 20.7785C2.57069 20.8968 2.66335 21 2.78229 21H15.59C15.7004 21 15.79 20.9104 15.79 20.8V13.7236C15.79 13.5749 15.6335 13.4782 15.5005 13.5447L11.3066 15.6417C11.1736 15.7081 11.0172 15.6114 11.0172 15.4628V13.7238C11.0172 13.5751 10.8606 13.4784 10.7277 13.5449L6.35983 15.7317C6.23512 15.7941 6.0864 15.7129 6.07145 15.5743L5.65145 11.6785Z" fill="var(--color-fossil-fuel-icon-color-bottom)" class="bottom"/>
</svg>
