<svg width="24" height="24" viewBox="0 0 24 24" fill="none" xmlns="http://www.w3.org/2000/svg">
<path fill-rule="evenodd" clip-rule="evenodd" d="M11.9997 4.00024C7.58906 4.00024 4 7.58874 4 12C4 16.4112 7.58906 19.9997 11.9997 19.9997C16.4109 19.9997 20 16.4117 20 12C20 7.58874 16.4109 4.00024 11.9997 4.00024ZM19.3083 12C19.3083 12.14 19.2959 12.2767 19.2874 12.415C19.236 12.2851 19.1581 12.1157 19.1394 12.0429C19.1123 11.9322 18.9469 11.5465 18.9469 11.5465C18.9469 11.5465 18.7814 11.3263 18.6713 11.271C18.5618 11.2156 18.4788 11.0779 18.2857 10.9683C18.0925 10.8576 18.0107 10.8029 17.8458 10.8029C17.6798 10.8029 17.5154 10.5821 17.3218 10.472C17.1286 10.3624 17.1015 10.4172 17.1015 10.4172C17.1015 10.4172 17.3218 10.7475 17.3218 10.83C17.3218 10.9124 17.5691 11.0502 17.8181 10.9948C17.8181 10.9948 17.983 11.2981 18.0654 11.3805C18.1479 11.463 18.0378 11.546 17.8729 11.6561C17.7074 11.7656 17.7351 11.7385 17.6515 11.821C17.5691 11.9034 17.2941 12.0423 17.2111 12.0965C17.1286 12.1513 16.7983 12.3167 16.6334 12.1513C16.5527 12.0717 16.5775 11.904 16.5233 11.7933C16.468 11.6832 15.8897 10.8294 15.6142 10.4443C15.5662 10.3765 15.4487 10.1676 15.3669 10.114C15.2844 10.0581 15.56 10.0581 15.56 10.0581C15.56 10.0581 15.56 9.86493 15.5323 9.72772C15.5041 9.58994 15.56 9.39739 15.56 9.39739C15.56 9.39739 15.2844 9.56227 15.2008 9.61761C15.119 9.67295 15.036 9.50806 14.9264 9.36972C14.8163 9.2325 14.7056 9.06649 14.6785 8.92871C14.6509 8.79149 14.8163 8.73615 14.8163 8.73615L15.0636 8.59894C15.0636 8.59894 15.3669 8.54417 15.56 8.57127C15.7525 8.59894 16.0552 8.62661 16.0552 8.62661C16.0552 8.62661 16.1376 8.43349 16.0275 8.35105C15.918 8.2686 15.669 8.13082 15.5588 8.15849C15.4493 8.1856 15.6136 8.02071 15.7508 7.9106L15.4459 7.85526C15.4459 7.85526 15.1687 7.99304 15.0857 8.02071C15.0032 8.04782 14.8598 8.10316 14.7491 8.24094C14.6396 8.37872 14.7932 8.57127 14.683 8.62661C14.5735 8.68195 14.499 8.70905 14.416 8.73615C14.3335 8.76382 14.0715 8.73615 14.0715 8.73615C13.7869 8.73615 13.9693 8.9959 14.0433 9.08794L13.823 8.81916L13.6599 8.43405C13.6599 8.43405 13.425 8.26917 13.3148 8.2144C13.2047 8.15906 12.8654 7.96651 12.8654 7.96651L12.8891 8.2144L13.2081 8.53739L13.2364 8.54473L13.4024 8.76495L13.0359 8.79262V8.57466C12.6903 8.49109 12.7807 8.40526 12.7417 8.37872C12.6598 8.32394 12.4684 8.1856 12.4684 8.1856C12.4684 8.1856 12.1443 8.24094 12.0613 8.2686C11.9783 8.29627 11.9551 8.37872 11.7908 8.43349C11.6248 8.48883 11.5502 8.57127 11.4955 8.65371C11.4407 8.73615 11.2611 8.98405 11.1521 9.09416C11.0415 9.20483 10.8371 9.1766 10.7546 9.1766C10.6716 9.1766 10.2741 9.06649 10.2741 9.06649V8.5995C10.2741 8.5995 10.3277 8.33749 10.3006 8.25505L10.5417 8.2144L10.9443 8.13139L11.0624 8.04838L11.2318 7.82816C11.2318 7.82816 11.0415 7.69038 11.1787 7.49783C11.2448 7.40522 11.4825 7.38772 11.5926 7.30527C11.7021 7.22283 11.8687 7.16749 11.8687 7.16749C11.8687 7.16749 12.0618 7.00261 12.2544 6.80949C12.2544 6.80949 12.3922 6.72648 12.557 6.67115C12.557 6.67115 13.0257 7.08449 13.1087 7.08449C13.1917 7.08449 13.4944 6.89193 13.4944 6.89193C13.4944 6.89193 13.5768 6.64461 13.5497 6.5616C13.5221 6.47916 13.3843 6.2036 13.3843 6.2036C13.3843 6.2036 13.3019 6.34138 13.2194 6.45149C13.137 6.5616 13.0816 6.69938 13.0816 6.69938C13.0816 6.69938 12.696 6.67284 12.6689 6.5904C12.6406 6.50739 12.5864 6.3713 12.5582 6.28943C12.5316 6.20642 12.3109 6.20924 12.1465 6.26458C11.9805 6.31992 12.1731 5.96756 12.1731 5.96756C12.1731 5.96756 12.3391 5.75976 12.4486 5.75976C12.5582 5.75976 12.8072 5.6186 12.9162 5.59149C13.0269 5.56382 13.3583 5.4379 13.495 5.4379C13.6328 5.4379 13.7982 5.49719 13.8812 5.49719C13.9642 5.49719 14.294 5.49719 14.294 5.49719L14.8716 5.45089C14.8716 5.45089 15.368 5.63441 15.202 5.74508C15.202 5.74508 15.3957 5.86423 15.4781 5.94667C15.5555 6.0246 15.7554 5.87496 15.87 5.81115C17.9305 7.10425 19.3083 9.39174 19.3083 12ZM6.16778 7.69038C6.16778 7.80049 6.01758 7.82703 6.16778 8.10372C6.35977 8.46172 6.19488 8.62717 6.19488 8.62717C6.19488 8.62717 5.7262 8.95751 5.64376 9.01284C5.56132 9.06818 5.3411 9.37085 5.47831 9.28784C5.61609 9.2054 5.78098 9.12295 5.64376 9.34318C5.50598 9.56396 5.25809 9.9214 5.20332 10.0597C5.14854 10.1981 4.87298 10.5279 4.87298 10.6933C4.87298 10.8588 4.76287 11.1897 4.79054 11.3274C4.80918 11.4234 4.74819 11.7063 4.70019 11.8227C4.73746 10.2743 5.25866 8.84739 6.11922 7.68022C6.14745 7.68304 6.16778 7.69038 6.16778 7.69038ZM7.05262 6.63444C7.72627 6.01274 8.51569 5.51696 9.38641 5.18154C9.30058 5.29165 9.19668 5.40459 9.19668 5.40459C9.19668 5.40459 9.00413 5.40402 8.64556 5.79026C8.28812 6.17593 8.37057 6.06582 8.28812 6.17536C8.20568 6.28491 8.23279 6.31314 8.03967 6.45149C7.84768 6.5887 7.76467 6.75415 7.76467 6.75415L7.46144 6.86426L7.21412 6.75415C7.21412 6.75415 6.99277 6.83716 7.02043 6.72648C7.02834 6.69712 7.0402 6.66663 7.05262 6.63444ZM10.3537 7.27704L10.2442 7.11216L10.3537 6.86426L10.6191 6.97042V6.47859L10.8726 6.34138L11.0833 6.64404L11.4074 7.00261L11.1922 7.16749L10.6185 7.2776V6.98567L10.3537 7.27704ZM13.9349 9.86606C13.9992 9.81524 14.2098 9.94851 14.2098 9.94851C14.2098 9.94851 14.8982 10.0863 15.0083 10.1687C15.119 10.2517 15.3115 10.3071 15.3669 10.3901C15.4222 10.4725 15.6142 10.7204 15.6413 10.8029C15.6695 10.8853 15.8073 11.1891 15.835 11.2986C15.8626 11.4087 15.9451 11.6843 16.0275 11.8221C16.11 11.9604 16.5786 12.5658 16.7435 12.8413L17.2404 12.7589C17.2404 12.7589 17.1845 13.0062 17.1298 13.0892C17.075 13.1717 16.9095 13.3919 16.8271 13.502C16.7441 13.6121 16.6346 13.7776 16.4691 13.9148C16.3042 14.052 16.3031 14.1898 16.2212 14.3004C16.1388 14.4105 16.0281 14.6584 16.0281 14.6584C16.0281 14.6584 16.0834 15.2096 16.1105 15.3197C16.1376 15.4298 15.918 15.7324 15.918 15.7324L15.6695 15.9809L15.3375 16.4208L15.3646 16.8336C15.3646 16.8336 15.1139 17.0272 14.9755 17.1368C14.8389 17.2463 14.8603 17.3293 14.7502 17.44C14.6407 17.5496 14.2098 17.7427 14.0997 17.7704C13.9896 17.798 13.382 17.8805 13.382 17.8805V17.6331L13.3696 17.3576C13.3696 17.3576 13.286 17.0272 13.203 16.9171C13.12 16.807 13.1562 16.641 13.0184 16.5038C12.8806 16.366 12.8298 16.2565 12.8021 16.1729C12.7744 16.0905 12.832 15.8431 12.832 15.8431C12.832 15.8431 12.9433 15.5399 12.9981 15.4298C13.0534 15.3197 12.9986 15.1548 12.9433 15.0441C12.8879 14.9334 12.8614 14.6579 12.8614 14.576C12.8614 14.4936 12.6401 14.3552 12.5576 14.2728C12.4752 14.1903 12.5028 14.0797 12.5028 13.9707C12.5028 13.8594 12.4204 13.6121 12.4475 13.419C12.4752 13.2264 12.2002 13.3636 12.0347 13.419C11.8693 13.4743 11.7597 13.3636 11.7597 13.1982C11.7597 13.0327 11.4571 13.1711 11.2639 13.2806C11.0703 13.3908 10.8506 13.3908 10.6293 13.4738C10.4096 13.5562 10.3001 13.3913 10.3001 13.3913C10.3001 13.3913 10.1064 13.2264 9.96972 13.1434C9.83137 13.061 9.69359 12.8961 9.58292 12.7583C9.47337 12.62 9.19725 12.2066 9.17071 12.0423C9.14304 11.8763 9.17071 11.7656 9.17071 11.5731C9.17071 11.3805 9.17071 11.2704 9.19781 11.1326C9.22548 10.9948 9.30792 10.8294 9.39093 10.6916C9.47337 10.5538 9.7766 10.389 9.85848 10.3336C9.94092 10.2788 10.134 10.114 10.134 10.0033C10.134 9.89317 10.2447 9.8384 10.2989 9.72772C10.3548 9.61761 10.5474 9.34261 10.7953 9.45272C10.7953 9.45272 11.0149 9.42562 11.0974 9.39795C11.1798 9.37028 11.4 9.2884 11.509 9.23307C11.6191 9.17773 11.8936 9.15175 11.8936 9.15175C11.8936 9.15175 12.1104 9.23815 12.1928 9.23815C12.2753 9.23815 12.5441 9.19015 12.5441 9.19015C12.5441 9.19015 12.6683 9.58937 12.6683 9.67238C12.6683 9.75539 12.7507 9.83727 12.8891 9.8926C13.0252 9.94851 13.6593 10.0869 13.9349 9.86606ZM17.1021 15.2649C17.1021 15.3473 17.0744 15.5681 17.0468 15.6782C17.018 15.7884 16.9638 15.9815 16.9367 16.0905C16.909 16.2011 16.7712 16.4213 16.6893 16.4767C16.6069 16.532 16.4685 16.6975 16.3867 16.7246C16.3042 16.7522 16.2483 16.5315 16.276 16.4213C16.3042 16.3112 16.4414 16.0086 16.4414 16.0086C16.4414 16.0086 16.4691 15.8437 16.4962 15.733C16.5244 15.6235 16.8548 15.4857 16.8548 15.4857L17.0756 15.0723C17.0744 15.0718 17.1021 15.183 17.1021 15.2649ZM4.87976 13.624C4.91533 13.633 4.96615 13.659 5.03787 13.7228C5.14177 13.8131 5.20332 13.8594 5.3411 13.9153C5.47831 13.9712 5.53365 14.0525 5.6991 14.1356C5.86455 14.2186 5.80978 14.1638 6.02943 14.4111C6.25022 14.6584 6.22255 14.6584 6.27732 14.7968C6.3321 14.9351 6.4151 15.0718 6.47044 15.1554C6.52578 15.2378 6.69067 15.2926 6.77311 15.3479C6.85555 15.4032 6.99333 15.458 7.07577 15.458C7.15878 15.458 7.40667 15.7059 7.54445 15.733C7.68223 15.7612 7.68223 16.0368 7.68223 16.0368L7.54445 16.4219L7.43377 16.8347L7.54445 17.165C7.54445 17.165 7.37844 17.3034 7.26945 17.3034C7.16781 17.3034 7.13337 17.3677 7.02213 17.3372C5.97184 16.3564 5.21009 15.0735 4.87976 13.624Z" fill="currentColor"/>
</svg>
