<svg width="16" height="21" fill="none" xmlns="http://www.w3.org/2000/svg"><path fill-rule="evenodd" clip-rule="evenodd" d="M0 1.334a1 1 0 0 1 1-1h14a1 1 0 1 1 0 2v.578a8 8 0 0 1-1.344 4.437l-1.99 2.985 1.99 2.985A8 8 0 0 1 15 17.756v.578a1 1 0 1 1 0 2H1a1 1 0 1 1 0-2v-.578a8 8 0 0 1 1.344-4.437l1.99-2.985-1.99-2.985A8 8 0 0 1 1 2.912v-.578a1 1 0 0 1-1-1Zm3 17h1.25l1.63-2.608c.98-1.567 3.26-1.567 4.24 0l1.63 2.608H13v-.578a6 6 0 0 0-1.008-3.328L9.93 11.334H6.07l-2.062 3.094A6 6 0 0 0 3 17.756v.578Zm0-16h10v.578a6 6 0 0 1-.51 2.422H3.51A6 6 0 0 1 3 2.912v-.578Z" fill="currentColor"/></svg>
