<svg width="24" height="24" viewBox="0 0 24 24" fill="currentColor" xmlns="http://www.w3.org/2000/svg">
<path fill-rule="evenodd" clip-rule="evenodd" d="M7.49589 9.21196C6.10231 10.8326 4.55958 13.7153 4.11926 16.0872C4.02384 16.6012 3.99174 17.0294 4.00157 17.3793C4.05005 19.1047 21.0292 14.1959 19.7407 5.76039C19.7311 5.74682 19.7215 5.7335 19.7118 5.72043C19.4126 5.3156 19.0879 5.15222 18.6341 5.067C18.0154 4.95081 17.2722 5.00166 16.1485 5.09194C15.2805 5.16167 14.4398 5.29766 13.6331 5.51419C11.2081 6.17566 9.02277 7.43628 7.49589 9.21196ZM13.1106 3.58363C10.3728 4.32974 7.81312 5.7755 5.97946 7.90796C2.80696 11.5973 -0.923771 20.6993 5.59385 20.9791C7.87606 21.0769 10.3332 20.8281 12.5501 20.3051C14.6492 19.8099 16.6916 18.912 18.2457 17.4497C19.7689 16.0163 20.8402 14.1714 21.444 12.221C22.2695 9.55481 22.1004 5.67907 21.4294 4.68628C20.131 2.76512 18.126 2.92641 16.0519 3.09325L15.9883 3.09837C15.0156 3.17652 14.0518 3.3307 13.1106 3.58363Z"/>
<path d="M20.7966 3.95261C20.6379 4.20444 20.4815 4.46735 20.3287 4.72429C20.1155 5.08268 19.909 5.4298 19.7118 5.72043C19.5836 5.90938 19.4593 6.07445 19.3396 6.2032C18.3414 7.27748 17.1567 8.16879 15.9278 8.97996C15.2757 9.40942 14.0314 9.97324 12.7798 10.5404C11.4928 11.1236 10.198 11.7103 9.53138 12.158C7.0107 13.851 5.51293 15.4616 4.00157 17.3793C3.48381 18.0362 2.98191 18.7055 2.478 19.373C2.63981 19.6343 3.18108 20.8755 5.59385 20.9791C7.87606 21.0769 10.3332 20.8281 12.5501 20.3051C14.6492 19.8099 16.6916 18.912 18.2457 17.4497C19.7689 16.0163 20.8402 14.1714 21.444 12.221C22.2695 9.55481 22.1004 5.67907 21.4294 4.68628C21.2338 4.39682 21.0221 4.15463 20.7966 3.95261Z"/>
</svg>
