<svg width="18" height="20" fill="none" xmlns="http://www.w3.org/2000/svg"><path fill-rule="evenodd" clip-rule="evenodd" d="M11.793.793a1 1 0 0 1 1.414 0l2.145 2.145a1.5 1.5 0 0 1 0 2.121l-2.145 2.145a1 1 0 1 1-1.414-1.414l.794-.794H7a5 5 0 0 0-5 5v1a1 1 0 0 1-2 0v-1a7 7 0 0 1 7-7h5.582l-.79-.789a1 1 0 0 1 0-1.414ZM17.998 10a7 7 0 0 1-7 7H5.417l.789.789a1 1 0 1 1-1.415 1.414l-2.145-2.145a1.5 1.5 0 0 1 0-2.121l2.145-2.145a1 1 0 1 1 1.415 1.414L5.412 15h5.586a5 5 0 0 0 5-5V9a1 1 0 1 1 2 0v1Z" fill="currentColor"/></svg>