<svg width="24" height="24" viewBox="0 0 24 24" fill="none" xmlns="http://www.w3.org/2000/svg">
    <circle cx="12" cy="12" r="9" fill="#AFE9B0" />
    <path
        d="M16.8627 8.83916C15.97 8.47506 14.1954 7.68708 11.7983 8.13308C9.5138 8.55767 8.53481 10.9962 8.20997 12.0716C8.20384 12.0916 8.19842 12.1121 8.19324 12.1323C8.17324 12.2143 8.13041 12.2889 8.06971 12.3477C7.20953 13.1714 6.60842 14.1747 6.5014 15.3901C6.49371 15.4843 6.51792 15.5783 6.57017 15.657C6.62241 15.7358 6.69964 15.7947 6.78946 15.8244L7.25055 15.9785C7.31284 15.9991 7.37905 16.005 7.444 15.9957C7.50895 15.9864 7.57086 15.9623 7.62486 15.9251C7.67887 15.8879 7.72349 15.8387 7.75524 15.7813C7.78698 15.724 7.80498 15.6601 7.80782 15.5947C7.83705 14.9121 8.05086 14.2809 8.45443 13.6883C8.48842 13.6387 8.54074 13.6046 8.59988 13.5935C8.65903 13.5825 8.72016 13.5953 8.76983 13.6292L8.77172 13.6304C9.79243 14.3077 11.8655 15.3014 14.0304 13.9048C16.0789 12.584 16.8879 10.7771 17.2858 9.90086C17.6321 9.13759 17.428 9.07004 16.8627 8.83916Z"
        fill="#008009" />
</svg>
