<svg width="24" height="25" viewBox="0 0 24 25" fill="none" xmlns="http://www.w3.org/2000/svg">
<path d="M9.32157 8.90187C9.02134 9.31754 8.76563 9.76749 8.56143 10.2447C8.07015 10.0834 7.54527 9.99609 7 9.99609C4.23858 9.99609 2 12.2347 2 14.9961C2 17.7575 4.23858 19.9961 7 19.9961H15C16.5287 19.9961 17.9429 19.5061 19.0942 18.6745L17.654 17.2343C16.8849 17.717 15.975 17.9961 15 17.9961H7C5.34315 17.9961 4 16.6529 4 14.9961C4 13.3392 5.34315 11.9961 7 11.9961C7.33064 11.9961 7.64499 12.0488 7.93736 12.1449C8.92281 12.4685 9.99215 11.9851 10.4002 11.0315C10.503 10.7912 10.624 10.5607 10.7614 10.3417L9.32157 8.90187Z" fill="currentColor"/>
<path d="M19.1028 15.8547C19.6683 15.0445 20 14.059 20 12.9961C20 10.2347 17.7614 7.99609 15 7.99609C13.938 7.99609 12.9521 8.32729 12.1413 8.89314L10.7114 7.46325C11.8961 6.54361 13.3841 5.99609 15 5.99609C18.866 5.99609 22 9.1301 22 12.9961C22 14.612 21.4525 16.1 20.5328 17.2847L19.1028 15.8547Z" fill="currentColor"/>
<path fill-rule="evenodd" clip-rule="evenodd" d="M2.29289 3.28899C2.68342 2.89846 3.31658 2.89846 3.70711 3.28899L21.7071 21.289C22.0976 21.6795 22.0976 22.3127 21.7071 22.7032C21.3166 23.0937 20.6834 23.0937 20.2929 22.7032L2.29289 4.7032C1.90237 4.31268 1.90237 3.67951 2.29289 3.28899Z" fill="currentColor"/>
</svg>
