<svg width="24" height="24" viewBox="0 0 16 16" fill="none" xmlns="http://www.w3.org/2000/svg">
<path fill-rule="evenodd" clip-rule="evenodd" d="M5.72586 4.49311L4.71798 3.11873C4.64944 3.02526 4.51992 3.00144 4.42261 3.06441C3.10401 3.91762 2.74155 5.22096 3.27056 6.18175C3.84912 7.23251 4.74143 8.52115 6.11013 9.88985C7.47883 11.2585 8.76746 12.1509 9.81822 12.7294C10.779 13.2584 12.0824 12.896 12.9356 11.5774C12.9985 11.4801 12.9747 11.3505 12.8812 11.282L11.5069 10.2741C11.3048 10.1259 11.0367 10.1032 10.8126 10.2153L10.2647 10.4892C9.7988 10.7221 9.16008 10.804 8.55545 10.4929C8.15122 10.285 7.5282 9.88977 6.8192 9.18078C6.1102 8.47178 5.715 7.84875 5.50704 7.44452C5.19598 6.8399 5.27783 6.20118 5.5108 5.73523L5.78471 5.18742C5.89679 4.96325 5.87408 4.69522 5.72586 4.49311ZM3.69627 1.94187C1.99789 3.04082 1.12363 5.05458 2.09933 6.82664C2.73611 7.98315 3.70335 9.37392 5.1647 10.8353C6.62605 12.2966 8.01682 13.2639 9.17334 13.9006C10.9454 14.8763 12.9592 14.0021 14.0581 12.3037C14.5057 11.6119 14.3364 10.6911 13.6719 10.2038L12.2975 9.19592C11.6912 8.75128 10.8871 8.68313 10.2146 9.01938L9.6668 9.29329C9.50821 9.37259 9.32477 9.38512 9.16711 9.30401C8.87987 9.15624 8.37083 8.84156 7.76463 8.23535C7.15842 7.62914 6.84373 7.12011 6.69596 6.83287C6.61485 6.6752 6.62739 6.49176 6.70668 6.33318L6.98059 5.78536C7.31684 5.11285 7.24869 4.30876 6.80406 3.70243L5.79618 2.32805C5.3089 1.66358 4.38807 1.49424 3.69627 1.94187Z" fill="currentColor"/>
</svg>
