<svg width="24" height="24" viewBox="0 0 24 24" fill="none" xmlns="http://www.w3.org/2000/svg">
<path fill-rule="evenodd" clip-rule="evenodd" d="M12 1C5.92487 1 1 5.92487 1 12C1 18.0751 5.92487 23 12 23C18.0751 23 23 18.0751 23 12C23 9.08262 21.8411 6.28473 19.7782 4.22183C17.7153 2.15893 14.9174 1 12 1ZM12.8873 15.7302C12.0562 15.6667 11.7067 15.2413 11.054 14.8576C10.6947 16.7373 10.2571 18.5413 8.95911 19.4824C8.55822 16.6396 9.54578 14.5056 10.0053 12.2396C9.22311 10.922 10.1007 8.26978 11.7507 8.92244C13.782 9.72667 9.99067 13.8113 12.5378 14.3344C15.1949 14.8698 16.2802 9.72422 14.6327 8.04978C12.2518 5.63467 7.70267 7.996 8.26244 11.4524C8.39933 12.2982 9.272 12.5549 8.612 13.7209C7.08911 13.3836 6.63444 12.1809 6.69311 10.5798C6.78844 7.95689 9.04955 6.12111 11.318 5.86689C14.1878 5.54667 16.8816 6.92044 17.2531 9.61911C17.6687 12.6673 15.9551 15.9649 12.8873 15.7302Z" fill="currentColor"/>
</svg>
