<svg width="24" height="24" viewBox="0 0 24 24" fill="none" xmlns="http://www.w3.org/2000/svg">
<path fill-rule="evenodd" clip-rule="evenodd" d="M10.7518 2C15.5852 2 19.5035 5.91829 19.5035 10.7518C19.5035 12.799 18.8005 14.6821 17.6228 16.1728L21.6881 20.239C22.0787 20.6295 22.0787 21.2627 21.6881 21.6532C21.3277 22.0137 20.7604 22.0414 20.3681 21.7364L20.2739 21.6532L16.2116 17.592C14.7149 18.7883 12.8168 19.5035 10.7518 19.5035C5.91829 19.5035 2 15.5852 2 10.7518C2 5.91829 5.91829 2 10.7518 2ZM10.7518 4C7.02286 4 4 7.02286 4 10.7518C4 14.4806 7.02286 17.5035 10.7518 17.5035C14.4806 17.5035 17.5035 14.4806 17.5035 10.7518C17.5035 7.02286 14.4806 4 10.7518 4Z" fill="currentColor"/>
</svg>
