<svg width="24" height="24" xmlns="http://www.w3.org/2000/svg">
    <g fill="none" fill-rule="evenodd">
        <path d="M9.66 4.418a7.665 7.665 0 00-4.32 3.778 7.534 7.534 0 00-.664 1.916 7.634 7.634 0 00.66 4.925 7.685 7.685 0 002.07 2.542 7.599 7.599 0 002.77 1.397c1.27.34 2.623.331 3.902.04a6.92 6.92 0 003.123-1.62c.922-.848 1.582-1.962 1.93-3.161.381-1.306.43-2.702.193-4.045h-7.172v2.972h4.155a3.586 3.586 0 01-1.524 2.354 4.37 4.37 0 01-1.68.663 5.034 5.034 0 01-1.82-.004 4.516 4.516 0 01-1.697-.733 4.709 4.709 0 01-1.746-2.337 4.616 4.616 0 010-2.964c.23-.672.607-1.29 1.107-1.797a4.523 4.523 0 012.278-1.265 4.553 4.553 0 012.238.09 4.11 4.11 0 011.644.966l1.401-1.4c.246-.25.504-.492.742-.75a7.435 7.435 0 00-2.455-1.518 7.702 7.702 0 00-5.135-.05z" fill="#FFF"/>
        <path d="M9.63 4.417a7.727 7.727 0 015.134.045A7.41 7.41 0 0117.22 5.98c-.237.258-.496.5-.742.749l-1.401 1.4a4.153 4.153 0 00-1.644-.966 4.505 4.505 0 00-2.237-.09 4.558 4.558 0 00-2.28 1.265 4.724 4.724 0 00-1.106 1.797c-.832-.647-1.664-1.29-2.5-1.936a7.657 7.657 0 014.32-3.783z" fill="#EA4335"/>
        <path d="M4.65 10.107a7.59 7.59 0 01.663-1.916c.832.647 1.664 1.29 2.5 1.937a4.589 4.589 0 000 2.964 881.04 881.04 0 01-2.495 1.936 7.57 7.57 0 01-.668-4.92z" fill="#FBBC05"/>
        <path d="M12.12 10.185h7.173a8.997 8.997 0 01-.193 4.045c-.348 1.2-1.008 2.313-1.93 3.16l-2.422-1.879a3.586 3.586 0 001.524-2.354h-4.155c.004-.99.004-1.981.004-2.972z" fill="#4285F4"/>
        <path d="M5.31 15.032c.831-.642 1.663-1.29 2.495-1.936.32.937.935 1.768 1.746 2.338.508.356 1.09.61 1.697.732.598.123 1.217.107 1.82.004a4.37 4.37 0 001.68-.663l2.422 1.88c-.873.806-1.967 1.354-3.123 1.62-1.279.291-2.631.3-3.902-.04a7.536 7.536 0 01-2.77-1.396 7.668 7.668 0 01-2.066-2.539z" fill="#34A853"/>
    </g>
</svg>
