<svg width="24" height="24" xmlns="http://www.w3.org/2000/svg">
    <g transform="translate(3 3)" fill="none" fill-rule="evenodd">
        <path d="M0 9a8.972 8.972 0 012.636-6.364A8.972 8.972 0 019 0a8.972 8.972 0 016.364 2.636A8.972 8.972 0 0118 9a8.972 8.972 0 01-2.636 6.364A8.972 8.972 0 019 18a8.972 8.972 0 01-6.364-2.636A8.972 8.972 0 010 9z" fill="#DADAD9"/>
        <circle fill="#50B2EF" cx="9" cy="9" r="8.077"/>
        <path d="M8.885 1.96c0-.063.053-.114.115-.114.064 0 .115.05.115.113v.697A.116.116 0 019 2.769a.114.114 0 01-.115-.113v-.697zm1.102.068a.116.116 0 01.132-.094c.063.01.106.067.096.13l-.109.688a.116.116 0 01-.131.094.114.114 0 01-.097-.13l.11-.688zm1.079.24a.116.116 0 01.145-.072c.06.02.094.083.074.144l-.215.662a.116.116 0 01-.145.072.114.114 0 01-.074-.143l.215-.663zm1.028.406a.116.116 0 01.154-.048c.057.029.08.096.051.153l-.316.62a.116.116 0 01-.154.05.114.114 0 01-.052-.154l.317-.62zm.951.562c.037-.05.11-.06.16-.024a.114.114 0 01.027.16l-.41.563a.116.116 0 01-.16.024.114.114 0 01-.026-.16l.409-.563zm1.583 1.532a.116.116 0 01.16.027.114.114 0 01-.024.16l-.564.41a.116.116 0 01-.16-.027.114.114 0 01.025-.16l.563-.41zm.593.933a.116.116 0 01.153.051.114.114 0 01-.048.154l-.621.317a.116.116 0 01-.153-.052.114.114 0 01.048-.154l.62-.316zm.44 1.014a.115.115 0 01.143.074.114.114 0 01-.072.145l-.663.215a.116.116 0 01-.143-.074.114.114 0 01.072-.145l.662-.215zm.275 1.07c.062-.01.12.035.13.096a.114.114 0 01-.094.132l-.688.109a.116.116 0 01-.13-.097.114.114 0 01.094-.131l.688-.11zm.105 1.1a.115.115 0 010 .23h-.697A.116.116 0 0115.231 9c0-.064.05-.115.113-.115h.697zm-.069 1.102c.062.01.103.071.094.132a.114.114 0 01-.13.096l-.688-.109a.116.116 0 01-.094-.131.114.114 0 01.13-.097l.688.11zm-.24 1.079c.06.02.09.086.072.145a.114.114 0 01-.144.074l-.662-.215a.116.116 0 01-.072-.145.114.114 0 01.143-.074l.663.215zm-.406 1.028a.116.116 0 01.048.154.114.114 0 01-.153.051l-.62-.316a.116.116 0 01-.05-.154.114.114 0 01.154-.052l.62.317zm-.562.951c.05.037.06.11.024.16a.114.114 0 01-.16.027l-.563-.41a.116.116 0 01-.024-.16.114.114 0 01.16-.026l.563.409zm-.704.852a.116.116 0 01-.001.162.114.114 0 01-.162.001l-.493-.493a.116.116 0 01.002-.161.114.114 0 01.161-.002l.493.493zm-.828.731a.116.116 0 01-.027.16.114.114 0 01-.16-.024l-.41-.564a.116.116 0 01.027-.16.114.114 0 01.16.025l.41.563zm-.933.593a.116.116 0 01-.051.153.114.114 0 01-.154-.048l-.317-.621a.116.116 0 01.052-.153.114.114 0 01.154.048l.316.62zm-1.014.44a.116.116 0 01-.074.143.114.114 0 01-.145-.072l-.215-.663a.116.116 0 01.074-.143.113.113 0 01.145.072l.215.662zm-1.07.275a.116.116 0 01-.096.13.114.114 0 01-.132-.094l-.109-.688a.116.116 0 01.097-.13.114.114 0 01.131.094l.11.688zm-1.1.105a.116.116 0 01-.115.113.114.114 0 01-.115-.113v-.697c0-.063.053-.113.115-.113.064 0 .115.05.115.113v.697zm-1.102-.069a.116.116 0 01-.132.094.114.114 0 01-.096-.13l.109-.688a.116.116 0 01.131-.094c.063.01.106.067.097.13l-.11.688zm-1.079-.24a.116.116 0 01-.145.072.114.114 0 01-.074-.144l.215-.662a.116.116 0 01.145-.072c.06.02.094.083.074.143l-.215.663zm-1.028-.406a.116.116 0 01-.154.048.114.114 0 01-.051-.153l.316-.62a.116.116 0 01.154-.05c.057.03.08.097.052.154l-.317.62zm-.951-.562a.116.116 0 01-.16.024.114.114 0 01-.027-.16l.41-.563a.116.116 0 01.16-.024.114.114 0 01.026.16l-.409.563zm-1.583-1.532a.116.116 0 01-.16-.027.114.114 0 01.024-.16l.564-.41a.116.116 0 01.16.027.114.114 0 01-.025.16l-.563.41zm-.593-.933a.116.116 0 01-.153-.051.114.114 0 01.048-.154l.621-.317a.116.116 0 01.153.052.114.114 0 01-.048.154l-.62.316zm-.44-1.014a.116.116 0 01-.143-.074.114.114 0 01.072-.145l.663-.215c.06-.02.124.016.143.074a.114.114 0 01-.072.145l-.662.215zm-.275-1.07a.116.116 0 01-.13-.096.114.114 0 01.094-.132l.688-.109c.062-.01.12.036.13.097a.114.114 0 01-.094.131l-.688.11zm-.105-1.1A.116.116 0 011.846 9c0-.064.05-.115.113-.115h.697c.063 0 .113.053.113.115 0 .064-.05.115-.113.115h-.697zm.069-1.102a.116.116 0 01-.094-.132.114.114 0 01.13-.096l.688.109c.062.01.104.07.094.131a.114.114 0 01-.13.097l-.688-.11zm.24-1.079a.116.116 0 01-.072-.145.114.114 0 01.144-.074l.662.215c.06.02.091.086.072.145a.114.114 0 01-.143.074l-.663-.215zm.406-1.028a.116.116 0 01-.048-.154.114.114 0 01.153-.051l.62.316c.057.028.077.1.05.154a.114.114 0 01-.154.052l-.62-.317zm.562-.951a.116.116 0 01-.024-.16.114.114 0 01.16-.027l.563.41c.051.037.06.11.024.16a.114.114 0 01-.16.026l-.563-.409zm.704-.852a.116.116 0 01.001-.162.114.114 0 01.162-.001l.493.493a.116.116 0 01-.002.161.114.114 0 01-.161.002l-.493-.493zm.828-.731a.116.116 0 01.027-.16.114.114 0 01.16.024l.41.564a.116.116 0 01-.027.16.114.114 0 01-.16-.025l-.41-.563zm.933-.593a.116.116 0 01.051-.153.114.114 0 01.154.048l.317.621a.116.116 0 01-.052.153.114.114 0 01-.154-.048l-.316-.62zm1.014-.44a.116.116 0 01.074-.143c.06-.02.125.012.145.072l.215.663a.116.116 0 01-.074.143.114.114 0 01-.145-.072l-.215-.662zm1.07-.275a.116.116 0 01.096-.13.114.114 0 01.132.094l.109.688a.116.116 0 01-.097.13.114.114 0 01-.131-.094l-.11-.688zm.318 6.528l1.305 1.305L3.94 14.06z" fill="#F2F1F2"/>
        <path fill="#EE403C" d="M9.897 9.408L8.592 8.103 14.06 3.94z"/>
    </g>
</svg>
