<svg width="24" height="24" xmlns="http://www.w3.org/2000/svg" fill="currentColor">
    <path d="M4.34 16.207c.046-.071.119-.076.219-.013 2.272 1.294 4.745 1.942 7.418 1.942 1.782 0 3.54-.326 5.277-.978a12.946 12.946 0 00.382-.16c.136-.054.243-.027.32.08.078.107.053.205-.075.294-.163.116-.372.25-.627.402-.782.456-1.654.808-2.618 1.058s-1.905.375-2.823.375a11.096 11.096 0 01-7.418-2.786c-.055-.044-.082-.089-.082-.133 0-.027.01-.054.027-.08zm4.105-3.817c0-.616.155-1.143.464-1.58a2.843 2.843 0 011.268-.991c.49-.206 1.095-.353 1.813-.442.246-.027.646-.063 1.2-.107v-.228c0-.571-.063-.955-.19-1.152-.191-.268-.491-.402-.9-.402h-.11c-.3.027-.559.121-.777.282-.218.16-.359.384-.423.67-.036.178-.127.28-.272.307L8.95 8.56c-.155-.036-.232-.116-.232-.241a.39.39 0 01.013-.094c.155-.795.534-1.384 1.139-1.768.605-.384 1.311-.598 2.12-.643h.341c1.037 0 1.846.264 2.428.79a2.764 2.764 0 01.436.563c.045.08.086.196.123.348.036.152.063.257.082.315.018.058.031.183.04.375.01.192.014.306.014.341v3.242c0 .232.034.444.102.636.069.192.134.33.198.415.064.085.168.22.314.408a.4.4 0 01.082.215c0 .071-.037.134-.11.187l-1.227 1.045c-.109.08-.24.09-.395.027a4.579 4.579 0 01-.334-.308c-.096-.099-.164-.17-.205-.215a2.996 2.996 0 01-.198-.26 5.484 5.484 0 00-.19-.262c-.51.545-1.01.884-1.5 1.018-.31.09-.691.134-1.146.134-.7 0-1.275-.212-1.725-.636-.45-.425-.675-1.025-.675-1.802zm2.345-.268c0 .349.09.628.266.837.178.21.416.315.716.315a.709.709 0 00.116-.013.709.709 0 01.102-.014c.382-.098.678-.339.887-.723.1-.17.175-.355.225-.556.05-.2.077-.363.082-.488.004-.125.006-.33.006-.617v-.334c-.527 0-.927.035-1.2.107-.8.223-1.2.719-1.2 1.486zm5.728 4.313a.42.42 0 01.082-.107c.227-.152.445-.255.654-.308a4.52 4.52 0 011.01-.148.829.829 0 01.258.014c.41.035.655.102.737.2a.432.432 0 01.054.242v.093c0 .313-.086.681-.259 1.105a2.572 2.572 0 01-.723 1.025c-.045.036-.086.054-.122.054a.123.123 0 01-.055-.014c-.054-.027-.068-.076-.04-.147.336-.777.504-1.317.504-1.62 0-.099-.018-.17-.055-.215-.09-.107-.345-.16-.763-.16a6.43 6.43 0 00-.546.026c-.227.027-.436.054-.627.08-.055 0-.091-.009-.11-.026-.017-.018-.022-.036-.013-.054 0-.009.005-.022.014-.04z" fill-rule="evenodd"/>
</svg>
