<svg width="24" height="24" viewBox="0 0 24 24" fill="none" xmlns="http://www.w3.org/2000/svg">
    <path
        d="M17.5739 11.9649C17.5687 11.9628 17.5642 11.9592 17.5611 11.9546C17.5579 11.95 17.5563 11.9445 17.5563 11.9389C17.5563 11.9333 17.5579 11.9278 17.5611 11.9232C17.5642 11.9186 17.5687 11.915 17.5739 11.9129C19.9141 10.713 20.3349 8.05724 19.1167 7.17732C17.7662 6.2054 16.1073 7.3453 15.7707 7.57728C15.7661 7.58061 15.7607 7.58248 15.755 7.58266C15.7494 7.58284 15.7438 7.58132 15.739 7.5783C15.7343 7.57528 15.7306 7.57089 15.7283 7.56571C15.7261 7.56054 15.7255 7.55481 15.7266 7.54928C16.2956 4.0016 13.0738 1.00987 9.19486 2.30975C4.65872 3.83761 6.38983 9.44112 6.69037 10.341C6.69462 10.3474 6.69616 10.3552 6.69466 10.3627C6.69316 10.3702 6.68873 10.3768 6.68235 10.381C6.67598 10.3853 6.66817 10.3868 6.66066 10.3853C6.65314 10.3838 6.64653 10.3794 6.64228 10.373C5.27182 9.10915 1.94986 10.689 3.32833 15.0806C4.258 18.0284 7.70819 18.3443 9.90013 18.3443H10.2768C10.048 19.5506 9.91403 20.7729 9.87608 22H13.4265C13.0674 20.8063 12.8167 19.5828 12.6771 18.3443H13.727C15.1135 18.3443 18.211 18.0963 19.5855 16.1085C21.6693 13.0888 19.0926 11.7449 17.5739 11.9649Z"
        fill="currentColor" />
</svg>
