<svg width="24" height="24" viewBox="0 0 24 24" fill="none" xmlns="http://www.w3.org/2000/svg">
<path d="M19.9008 9.00666C19.3932 7.65267 17.0036 7.22355 15.622 7.95647C14.5237 8.54026 14.0632 9.86013 13.9745 9.81016C13.8859 9.76019 14.8571 8.49108 14.8305 7.02922C14.803 5.54991 13.7408 3.77712 12.0187 3.1973C10.026 2.52546 7.62541 3.60817 6.63926 5.85529C5.98497 7.88667 5.98497 7.96995 6.39527 10.6208C4.74778 11.0967 3.5961 12.4166 4.1335 14.6336C5.0812 16.8379 8.17355 17.8016 10.32 16.7689C10.3788 17.1369 10.28 18.5028 10.28 18.5028C10.28 18.5028 10.0786 20.7555 9.97976 21.5423C9.9726 21.5998 9.97769 21.6583 9.99468 21.7137C10.0117 21.769 10.0402 21.8201 10.0783 21.8635C10.1164 21.9068 10.1632 21.9414 10.2157 21.9649C10.2681 21.9885 10.3249 22.0004 10.3822 22L12.7891 21.9817C12.8467 21.9809 12.9034 21.9677 12.9555 21.9428C13.0075 21.918 13.0537 21.8821 13.0909 21.8377C13.1281 21.7933 13.1554 21.7413 13.171 21.6853C13.1866 21.6292 13.1902 21.5705 13.1814 21.513C13.0315 20.5334 12.919 18.2204 13.01 16.642C14.4661 16.7607 16.7104 18.5895 17.883 16.6086C18.3177 15.8749 18.1043 14.5701 17.3943 13.9506C16.7392 13.3795 15.8158 13.5279 15.8048 13.3327C15.7923 13.1027 17.0938 13.1241 18.189 12.4063C19.2473 11.7115 20.3386 10.1774 19.9008 9.00666Z" stroke="currentColor" stroke-width="2"/>
</svg>
