<svg width="24" height="24" viewBox="0 0 24 24" fill="none" xmlns="http://www.w3.org/2000/svg">
<path fill-rule="evenodd" clip-rule="evenodd" d="M12.9791 22C12.9791 21.4477 12.5314 21 11.9791 21C11.4268 21 10.9791 21.4477 10.9791 22C10.9791 22.5523 11.4268 23 11.9791 23C12.5314 23 12.9791 22.5523 12.9791 22ZM16.1806 22.166C16.6926 21.9591 16.94 21.3763 16.7331 20.8642C16.5263 20.3521 15.9434 20.1047 15.4314 20.3116C14.9193 20.5185 14.6719 21.1013 14.8788 21.6134C15.0857 22.1255 15.6685 22.3729 16.1806 22.166ZM9.0728 21.6295C9.28859 21.1211 9.0514 20.5341 8.54302 20.3183C8.03464 20.1025 7.44758 20.3397 7.23179 20.8481C7.01599 21.3564 7.25318 21.9435 7.76156 22.1593C8.26994 22.3751 8.857 22.1379 9.0728 21.6295ZM6.32227 20.4853C7.10332 19.7042 7.10332 18.4379 6.32227 17.6569C5.54122 16.8758 4.27489 16.8758 3.49384 17.6569C2.7128 18.4379 2.7128 19.7042 3.49384 20.4853C4.27489 21.2663 5.54122 21.2663 6.32227 20.4853ZM19.7573 19.7782C20.1478 19.3876 20.1478 18.7545 19.7573 18.364C19.3668 17.9734 18.7336 17.9734 18.3431 18.364C17.9526 18.7545 17.9526 19.3876 18.3431 19.7782C18.7336 20.1687 19.3668 20.1687 19.7573 19.7782ZM22.1384 16.2176C22.3542 15.7092 22.117 15.1221 21.6087 14.9063C21.1003 14.6905 20.5132 14.9277 20.2974 15.4361C20.0816 15.9445 20.3188 16.5315 20.8272 16.7473C21.3356 16.9631 21.9226 16.7259 22.1384 16.2176ZM3.13106 16.7473C3.63944 16.5315 3.87663 15.9445 3.66084 15.4361C3.44504 14.9277 2.85798 14.6905 2.3496 14.9063C1.84122 15.1221 1.60403 15.7092 1.81983 16.2176C2.03562 16.7259 2.62268 16.9631 3.13106 16.7473ZM22.9791 12C22.9791 11.4477 22.5314 11 21.9791 11C21.4268 11 20.9791 11.4477 20.9791 12C20.9791 12.5523 21.4268 13 21.9791 13C22.5314 13 22.9791 12.5523 22.9791 12ZM2.97913 12C2.97913 11.4477 2.53141 11 1.97913 11C1.42684 11 0.979126 11.4477 0.979126 12C0.979126 12.5523 1.42684 13 1.97913 13C2.53141 13 2.97913 12.5523 2.97913 12ZM21.5925 9.10035C22.1046 8.89346 22.352 8.31063 22.1451 7.79856C21.9382 7.28649 21.3554 7.03909 20.8433 7.24598C20.3312 7.45287 20.0838 8.0357 20.2907 8.54777C20.4976 9.05984 21.0805 9.30724 21.5925 9.10035ZM3.66084 8.5639C3.87663 8.05552 3.63944 7.46846 3.13106 7.25266C2.62268 7.03687 2.03562 7.27405 1.81983 7.78243C1.60403 8.29082 1.84122 8.87788 2.3496 9.09367C2.85798 9.30947 3.44504 9.07228 3.66084 8.5639ZM20.4644 6.34315C21.2455 5.5621 21.2455 4.29577 20.4644 3.51472C19.6834 2.73367 18.417 2.73367 17.636 3.51472C16.8549 4.29577 16.8549 5.5621 17.636 6.34315C18.417 7.12419 19.6834 7.12419 20.4644 6.34315ZM5.61516 5.63604C6.00569 5.24551 6.00569 4.61235 5.61516 4.22183C5.22464 3.8313 4.59148 3.8313 4.20095 4.22183C3.81043 4.61235 3.81043 5.24551 4.20095 5.63604C4.59148 6.02656 5.22464 6.02656 5.61516 5.63604ZM8.5269 3.68839C9.03897 3.4815 9.28637 2.89867 9.07948 2.3866C8.87259 1.87453 8.28975 1.62713 7.77769 1.83402C7.26562 2.04091 7.01822 2.62374 7.22511 3.13581C7.432 3.64788 8.01483 3.89528 8.5269 3.68839ZM15.4152 3.68171C15.9236 3.8975 16.5107 3.66032 16.7265 3.15194C16.9423 2.64356 16.7051 2.05649 16.1967 1.8407C15.6883 1.6249 15.1013 1.86209 14.8855 2.37047C14.6697 2.87885 14.9068 3.46591 15.4152 3.68171ZM12.9791 2C12.9791 1.44772 12.5314 1 11.9791 1C11.4268 1 10.9791 1.44772 10.9791 2C10.9791 2.55228 11.4268 3 11.9791 3C12.5314 3 12.9791 2.55228 12.9791 2ZM14.3249 12.8809C14.7374 12.3664 14.9835 11.7151 14.9835 11.0037C14.9835 9.34442 13.6384 7.99933 11.9791 7.99933C10.3199 7.99933 8.9748 9.34442 8.9748 11.0037C8.9748 11.715 9.22081 12.3663 9.6332 12.8808L9.63616 12.8845C9.69387 12.9564 9.74874 13.0308 9.80357 13.1051C9.8317 13.1432 9.85981 13.1813 9.88829 13.2191C10.0341 13.4125 10.2398 13.684 10.4788 13.9964C10.9241 14.5784 11.4804 15.2959 11.9795 15.9118C12.4801 15.2945 13.0377 14.576 13.4839 13.9932C13.7233 13.6805 13.9293 13.4087 14.0753 13.2151C14.1068 13.1735 14.1376 13.1312 14.1684 13.0889C14.2196 13.0187 14.2708 12.9484 14.3249 12.8809ZM15.1033 13.5048L15.1018 13.5068C15.0763 13.5409 14.8422 13.8536 14.503 14.2991C13.9997 14.96 13.2651 15.913 12.637 16.6812C12.2934 17.1015 11.665 17.1013 11.3216 16.6809C10.2481 15.3665 8.85968 13.5077 8.85968 13.5077L8.85644 13.5037C8.30749 12.8189 7.97913 11.9496 7.97913 11.0037C7.97913 8.79452 9.76999 7.00366 11.9791 7.00366C14.1883 7.00366 15.9791 8.79452 15.9791 11.0037C15.9791 11.5922 15.852 12.1511 15.6237 12.6543C15.4856 12.9588 15.3105 13.2428 15.1041 13.5008L15.1027 13.5026L15.1018 13.5037H15.1041L15.1033 13.5048ZM11.9789 11.484C12.2539 11.484 12.4768 11.2611 12.4768 10.9862C12.4768 10.7112 12.2539 10.4883 11.9789 10.4883C11.704 10.4883 11.4811 10.7112 11.4811 10.9862C11.4811 11.2611 11.704 11.484 11.9789 11.484ZM13.4724 10.9862C13.4724 11.811 12.8038 12.4797 11.9789 12.4797C11.1541 12.4797 10.4854 11.811 10.4854 10.9862C10.4854 10.1613 11.1541 9.49268 11.9789 9.49268C12.8038 9.49268 13.4724 10.1613 13.4724 10.9862Z" fill="currentColor"/>
</svg>
