<svg width="24" height="24" viewBox="0 0 24 24" fill="none" xmlns="http://www.w3.org/2000/svg">
<path fill-rule="evenodd" clip-rule="evenodd" d="M1 12.0152C1 5.93167 5.85784 1 11.8503 1C17.8427 1 22.7006 5.93167 22.7006 12.0152C22.7006 18.0987 17.8427 23.0304 11.8503 23.0304C5.85784 23.0304 1 18.0987 1 12.0152ZM17.4975 9.79797C17.4975 9.79797 17.3845 8.97062 17.0381 8.60628C16.5986 8.12788 16.106 8.12563 15.8803 8.09786C14.263 7.97629 11.8372 7.97629 11.8372 7.97629H11.8321C11.8321 7.97629 9.40622 7.97629 7.78897 8.09786C7.56289 8.12563 7.07064 8.12788 6.63075 8.60628C6.28441 8.97062 6.17173 9.79797 6.17173 9.79797C6.17173 9.79797 6.05616 10.7698 6.05616 11.7412V12.6522C6.05616 13.624 6.17173 14.5955 6.17173 14.5955C6.17173 14.5955 6.28441 15.4228 6.63075 15.7872C7.07064 16.2656 7.64812 16.2506 7.90527 16.3005C8.82982 16.3928 11.8346 16.4213 11.8346 16.4213C11.8346 16.4213 14.263 16.4175 15.8803 16.296C16.106 16.2678 16.5986 16.2656 17.0381 15.7872C17.3845 15.4228 17.4975 14.5955 17.4975 14.5955C17.4975 14.5955 17.6131 13.624 17.6131 12.6522V11.7412C17.6131 10.7698 17.4975 9.79797 17.4975 9.79797ZM10.6414 13.7561L10.641 10.3826L13.7635 12.0752L10.6414 13.7561Z" fill="currentColor"/>
</svg>
