<svg width="80" height="80" viewBox="0 0 80 80" fill="none" xmlns="http://www.w3.org/2000/svg">
  <path d="M4.8 6.7a.7.7 0 0 1 .5-1.3L72 7.6l-1.2 42.6L7 49.5c-.6 0-1-.7-.6-1.2l16.2-21.7-17.8-20Z" fill="#09281D"/>
  <path d="M72.4 3.5a.7.7 0 0 0-1 .7l-2 71.7c0 .4.4.8.8.8l2.2-.1c.4 0 .8-.3.8-.7l2.6-71c0-.3-.3-.6-.6-.7l-2.8-.7ZM55.7 38.1l-15.4-18a10 10 0 0 1-.7 1.5l14.6 17.6c.4-.3 1-.8 1.5-1Z" fill="#008009"/>
  <path d="M42.2 24a8 8 0 0 0-4.4 4.5c-1 3 .1 6.6 3 8.9l-2.3 5.8c-.1.2 0 .4.2.5l8.5 2.2c.2 0 .4 0 .4-.2l3.7-9a56 56 0 0 1-8-8.5c.2-.2 1.6 1.2 2.8.7.5-.2.8-.7 1-1.1l-5-3.8Z" fill="#CE5C28"/>
  <path d="M40.7 21c-.2 0-2.8-2-2.5-5.3a5.9 5.9 0 0 1 4-5A5.7 5.7 0 0 1 40.6 21Z" fill="#A4D24F"/>
  <path d="M39.3 19.5c-.5.2-3 1.4-5.8.3a7.6 7.6 0 0 1-4.4-5.7c.1 0 3.4-2 6.7 0a7.1 7.1 0 0 1 3.5 5.4Z" fill="#A4D24F"/>
  <path d="M40.7 20.9c-.2-.4-.7-1-1.4-1.5-2.3-1.4-5.4-.7-7.3.7-1 .7-1.7 1.6-2.1 2.3a6 6 0 0 0 6.4 2.8 6 6 0 0 0 4.4-4.3Z" fill="#008009"/>
  <path d="M49.5 36.5c-.5-.6-.5-1.6.1-2.1l2.5-2.3c.6-.6 1.6-.5 2.2.1.6.7.5 1.6-.1 2.2l-2.5 2.2c-.6.6-1.7.6-2.2-.1Z" fill="#F5773D"/>
  <path d="M47.1 34.7c-.4-.6-.4-1.5.2-2l2.9-3.3a2 2 0 0 1 2.7 0c.5.7.5 1.6-.1 2.2l-3.3 3.3c-.7.7-1.8.6-2.4-.2Z" fill="#F5773D"/>
  <path d="M44.7 32.8c-.6-.6-.6-1.5-.1-2.2l3.3-3.6c.7-.7 1.9-.7 2.5 0 .6.8.6 1.9 0 2.6l-3.2 3.2a2 2 0 0 1-2.5 0Z" fill="#F5773D"/>
  <path d="M42.3 30.4c-.7-.7-.6-1.8 0-2.5l3.1-3.2c.7-.7 1.8-.7 2.5 0 .8.8.7 2 0 2.7l-3.3 3.1c-.6.6-1.7.6-2.3 0Z" fill="#F5773D"/>
  <path d="M42.2 24a8 8 0 0 0-4.4 4.5c-1 3 .1 6.6 3 8.9l-2.3 5.8c-.1.2 0 .4.2.5l8.5 2.2c.2 0 .4 0 .4-.3.6-3.1-7.4-8.6-6.2-11.6-6.4-6.4 1.8-5.7 2-5.8 0-.2 1.5 1.2 2.7.7.5-.2.8-.7 1-1.1l-5-3.8Z" fill="#CE5C28"/>
</svg>
