<svg width="36" height="36" viewBox="0 0 36 36" fill="none" xmlns="http://www.w3.org/2000/svg">
<path fill-rule="evenodd" clip-rule="evenodd" d="M33 18.0002C33 26.2845 26.2843 33.0002 18 33.0002C9.71573 33.0002 3 26.2845 3 18.0002C3 9.71597 9.71573 3.00024 18 3.00024C26.2843 3.00024 33 9.71597 33 18.0002ZM30 18.0002C30 24.6277 24.6274 30.0002 18 30.0002C11.3726 30.0002 6 24.6277 6 18.0002C6 11.3728 11.3726 6.00024 18 6.00024C21.5373 6.00024 24.7171 7.53073 26.9133 9.96561L16.5 20.3789L12.3107 16.1896C11.7249 15.6038 10.7751 15.6038 10.1893 16.1896C9.60355 16.7754 9.60355 17.7251 10.1893 18.3109L14.3787 22.5002C15.5503 23.6718 17.4497 23.6718 18.6213 22.5002L28.6522 12.4694C29.5133 14.1245 30 16.0055 30 18.0002Z" fill="currentColor"/>
</svg>
