<svg width="36" height="36" viewBox="0 0 36 36" fill="none" xmlns="http://www.w3.org/2000/svg">
<path fill-rule="evenodd" clip-rule="evenodd" d="M18 33C9.71573 33 3 26.2843 3 18C3 9.71573 9.71573 3 18 3C26.2843 3 33 9.71573 33 18C33 26.2843 26.2843 33 18 33ZM12.1565 14.1286C13.1892 14.1286 14.0264 13.3652 14.0264 12.4224C14.0264 11.4787 13.1892 10.7143 12.1565 10.7143C11.1229 10.7143 10.2857 11.4787 10.2857 12.4224C10.2857 13.3652 11.1229 14.1286 12.1565 14.1286ZM10.7143 25.1047H14.0693V15.4286H10.7143V25.1047ZM18.7781 19.723C18.7781 18.6134 19.3031 17.5283 20.5584 17.5283C21.8137 17.5283 22.1224 18.6134 22.1224 19.6965V24.9811H25.4624V19.4805C25.4624 15.6588 23.2034 15 21.8137 15C20.4252 15 19.6594 15.4697 18.7781 16.6077V15.305H15.4286V24.9811H18.7781V19.723Z" fill="currentColor"/>
</svg>
