<svg width="36" height="36" viewBox="0 0 36 36" fill="none" xmlns="http://www.w3.org/2000/svg">
<path d="M18 3C26.2843 3 33 9.71573 33 18C33 26.2843 26.2843 33 18 33C9.71573 33 3 26.2843 3 18C3 9.71573 9.71573 3 18 3ZM17.9762 10.1777C15.9204 10.1945 13.9414 10.4176 12.7888 10.9468C12.7539 10.9626 10.5037 11.9969 10.5037 15.4585C10.5037 16.2573 10.4875 17.2124 10.5128 18.2252C10.5958 21.637 11.1395 25.0002 14.2939 25.8351C15.7477 26.2198 16.9964 26.3005 18.0018 26.2452C19.8089 26.145 20.8308 25.6031 20.8491 25.5934L20.7905 24.2714C20.7905 24.2714 19.4855 24.6821 18.022 24.6321C16.572 24.5823 15.0412 24.475 14.8066 22.6948C14.785 22.5385 14.7737 22.3705 14.7737 22.1949C14.8009 22.2016 16.2154 22.5452 18.0018 22.6271C19.1048 22.6776 20.1409 22.562 21.1915 22.4366C23.2059 22.1957 24.9607 20.9542 25.1814 19.8201C25.5286 18.0344 25.5 15.4625 25.5 15.4585C25.4999 11.9949 23.2454 10.9614 23.213 10.9468C22.0605 10.4178 20.081 10.1946 18.0256 10.1777H17.9762ZM20.3511 12.9042C21.0903 12.9045 21.6868 13.1645 22.1418 13.6714C22.5832 14.1789 22.8029 14.8663 22.8029 15.7295V19.9537H21.1293V15.854C21.1293 14.9899 20.7651 14.5505 20.038 14.5503C19.2344 14.5506 18.8314 15.071 18.8313 16.0994V18.3442H17.1669V16.0994C17.1667 15.0709 16.764 14.5505 15.9602 14.5503C15.2329 14.5504 14.8689 14.9898 14.8689 15.854V19.9537H13.1953V15.7295C13.1953 14.8662 13.4148 14.179 13.8563 13.6714C14.3116 13.164 14.9089 12.9042 15.6489 12.9042C16.5051 12.9043 17.1538 13.2346 17.5825 13.8929L18 14.5906L18.4156 13.8929C18.8444 13.2347 19.4947 12.9042 20.3511 12.9042Z" fill="currentColor"/>
</svg>
