<svg width="36" height="36" viewBox="0 0 36 36" fill="none" xmlns="http://www.w3.org/2000/svg">
<path fill-rule="evenodd" clip-rule="evenodd" d="M18 3C9.71573 3 3 9.71573 3 18C3 26.2843 9.71573 33 18 33C26.2843 33 33 26.2843 33 18C33 14.0218 31.4196 10.2064 28.6066 7.3934C25.7936 4.58035 21.9782 3 18 3ZM19.21 23.0867C18.0767 23 17.6 22.42 16.71 21.8967C16.22 24.46 15.6233 26.92 13.8533 28.2033C13.3067 24.3267 14.6533 21.4167 15.28 18.3267C14.2133 16.53 15.41 12.9133 17.66 13.8033C20.43 14.9 15.26 20.47 18.7333 21.1833C22.3567 21.9133 23.8367 14.8967 21.59 12.6133C18.3433 9.32 12.14 12.54 12.9033 17.2533C13.09 18.4067 14.28 18.7567 13.38 20.3467C11.3033 19.8867 10.6833 18.2467 10.7633 16.0633C10.8933 12.4867 13.9767 9.98333 17.07 9.63667C20.9833 9.2 24.6567 11.0733 25.1633 14.7533C25.73 18.91 23.3933 23.4067 19.21 23.0867Z" fill="currentColor"/>
</svg>
