<svg width="36" height="36" viewBox="0 0 36 36" fill="none" xmlns="http://www.w3.org/2000/svg">
<path fill-rule="evenodd" clip-rule="evenodd" d="M3 18C3 9.71573 9.71573 3 18 3C21.9782 3 25.7936 4.58035 28.6066 7.3934C31.4196 10.2064 33 14.0218 33 18C33 26.2843 26.2843 33 18 33C9.71573 33 3 26.2843 3 18ZM25.6121 14.0282V13.3824C24.8181 13.3836 24.0397 13.1614 23.366 12.7411C22.3628 12.1154 21.64 11.0832 21.4281 9.87499C21.4079 9.75952 21.3923 9.64329 21.3816 9.52662V9.13636H18.3281V21.2553C18.3232 22.6679 17.1761 23.8118 15.7614 23.8118C15.346 23.8118 14.9538 23.7132 14.6066 23.5381C13.769 23.1156 13.1947 22.2482 13.1947 21.2465C13.1947 19.8298 14.3437 18.6812 15.7614 18.6812C16.033 18.6812 16.2948 18.7234 16.5404 18.8013L16.5405 16.3869V15.6994C16.2853 15.6645 16.0281 15.647 15.7706 15.6472C12.6714 15.6471 10.1591 18.1581 10.1591 21.2553C10.1591 23.1968 11.1467 24.9084 12.6468 25.9151C13.5395 26.5143 14.6142 26.8637 15.7705 26.8637C18.8694 26.8637 21.3816 24.3528 21.3816 21.2553V15.0635C22.5743 15.9153 24.0347 16.4165 25.6121 16.4165L25.6121 14.0282Z" fill="currentColor"/>
</svg>
