<svg xmlns="http://www.w3.org/2000/svg" fill="none" width="31" height="36" viewBox="0 0 31 36"><path fill="currentColor" d="M25.7544 17.9386a.0492.0492 0 0 1-.0309-.0455.049.049 0 0 1 .0309-.0455c4.0953-2.0998 4.8316-6.7474 2.6998-8.2873-2.3632-1.7008-5.2665.294-5.8555.7a.0492.0492 0 0 1-.0772-.049c.9958-6.2085-4.6423-11.444-11.4305-9.1692C3.1528 3.7158 6.1822 13.522 6.7082 15.0968a.0505.0505 0 1 1-.0842.056c-2.3983-2.2118-8.2118.553-5.7994 8.2383 1.6269 5.1585 7.6647 5.7115 11.5006 5.7115h.6592a41.1554 41.1554 0 0 0-.7012 6.3974h6.2131a36.3337 36.3337 0 0 1-1.3113-6.3974h1.8373c2.4263 0 7.8471-.434 10.2524-3.9127 3.6465-5.2845-.8626-7.6363-3.5203-7.2513Z"/></svg>