<svg width="36" height="36" viewBox="0 0 36 36" fill="none" xmlns="http://www.w3.org/2000/svg">
<path fill-rule="evenodd" clip-rule="evenodd" d="M3 18C3 9.71573 9.61518 3 17.7754 3C25.9357 3 32.5508 9.71573 32.5508 18C32.5508 26.2843 25.9357 33 17.7754 33C9.61518 33 3 26.2843 3 18ZM25.4656 14.9807C25.4656 14.9807 25.3116 13.854 24.84 13.3579C24.2415 12.7064 23.5707 12.7034 23.2633 12.6655C21.061 12.5 17.7575 12.5 17.7575 12.5H17.7507C17.7507 12.5 14.4472 12.5 12.2449 12.6655C11.937 12.7034 11.2667 12.7064 10.6677 13.3579C10.1961 13.854 10.0426 14.9807 10.0426 14.9807C10.0426 14.9807 9.88525 16.304 9.88525 17.6269V18.8675C9.88525 20.1909 10.0426 21.5137 10.0426 21.5137C10.0426 21.5137 10.1961 22.6404 10.6677 23.1365C11.2667 23.788 12.0531 23.7675 12.4033 23.8355C13.6623 23.9612 17.7541 24 17.7541 24C17.7541 24 21.061 23.9949 23.2633 23.8293C23.5707 23.791 24.2415 23.788 24.84 23.1365C25.3116 22.6404 25.4656 21.5137 25.4656 21.5137C25.4656 21.5137 25.623 20.1909 25.623 18.8675V17.6269C25.623 16.304 25.4656 14.9807 25.4656 14.9807ZM16.1292 20.3707L16.1287 15.7767L20.3808 18.0816L16.1292 20.3707Z" fill="currentColor"/>
</svg>
