<svg width="48" height="48" viewBox="0 0 48 48" fill="none" xmlns="http://www.w3.org/2000/svg">
<path d="M0 9.6C0 4.29806 4.29807 0 9.6 0H38.4C43.7019 0 48 4.29807 48 9.6V38.4002C48 43.7021 43.7019 48.0001 38.4 48.0001H9.6C4.29807 48.0001 0 43.7021 0 38.4001V9.6Z" fill="#D7EB80"/>
<path d="M19.4775 7.16235C26.2866 4.8738 32.9419 9.6474 31.9277 15.9475C31.9277 15.9588 31.9279 15.9703 31.9316 15.9778C31.9354 15.9889 31.9427 15.9965 31.9502 16.0002C31.9577 16.004 31.9653 16.0081 31.9766 16.0081C31.9841 16.008 31.9954 16.004 32.0029 16.0002C32.5006 15.593 34.6798 14.0246 36.874 15.7551C38.9552 17.3952 38.2801 21.984 34.1592 24.1067C34.1443 24.1105 34.1364 24.1218 34.1289 24.1331C34.1217 24.1443 34.1223 24.159 34.126 24.1702C34.1297 24.1852 34.141 24.1929 34.1523 24.2004C34.1636 24.2078 34.1783 24.208 34.1895 24.2043C36.8512 23.8047 41.3904 26.1947 37.707 31.5032C35.2904 35.0093 29.847 35.4514 27.4111 35.4514H25.624C25.6203 35.4514 25.612 35.4506 25.6045 35.4543C25.597 35.4581 25.5897 35.4623 25.5859 35.4661C25.5822 35.4698 25.578 35.4733 25.5742 35.4807C25.5704 35.4845 25.5703 35.4927 25.5703 35.5002C25.5377 36.6627 26.0381 38.9717 26.5918 41.1399H20.6543C20.7731 39.1303 20.9823 36.9501 21.3516 35.511V35.4885C21.3479 35.4812 21.3445 35.4773 21.3408 35.47C21.3333 35.4624 21.3288 35.4581 21.3213 35.4543C21.3139 35.4508 21.3062 35.4514 21.2988 35.4514H20.707C16.8576 35.4514 10.7911 34.8927 9.16992 29.6936C6.73453 21.946 12.5517 19.16 14.9873 21.3918C14.9948 21.3993 15.0063 21.4064 15.0176 21.4065C15.0288 21.4065 15.0405 21.4071 15.0518 21.3997C15.0631 21.3921 15.0704 21.3836 15.0742 21.3723C15.0778 21.3612 15.0779 21.3502 15.0742 21.3391C14.5388 19.7669 11.4888 9.88088 19.4775 7.16235ZM18.4678 31.3264H29.167V25.7463H22.5244V23.6428H26.834V21.512H22.5244V19.4084H29.167V13.8323H18.4678V31.3264Z" fill="#2D3315"/>
</svg>
