<svg width="48" height="48" viewBox="0 0 48 48" fill="none" xmlns="http://www.w3.org/2000/svg">
<g clip-path="url(#clip0_5831_82)">
<path d="M24 48C37.2548 48 48 37.2548 48 24C48 10.7452 37.2548 0 24 0C10.7452 0 0 10.7452 0 24C0 37.2548 10.7452 48 24 48Z" fill="#D7EB80"/>
<path d="M18.6357 5.75659C27.1014 2.91132 35.3742 8.84567 34.1133 16.6785C34.1133 16.6923 34.1136 16.7063 34.1182 16.7156C34.1228 16.7296 34.1323 16.7392 34.1416 16.7439C34.151 16.7486 34.1607 16.7527 34.1748 16.7527C34.1841 16.7526 34.1977 16.7485 34.207 16.7439C34.8258 16.2376 37.5355 14.2876 40.2637 16.4392C42.8511 18.4783 42.0121 24.183 36.8887 26.822C36.8702 26.8267 36.8608 26.8404 36.8516 26.8542C36.8423 26.8682 36.8421 26.8871 36.8467 26.9011C36.8513 26.9198 36.8649 26.9299 36.8789 26.9392C36.8928 26.9485 36.9118 26.9486 36.9258 26.9441C40.2351 26.4472 45.879 29.4186 41.2998 36.0183C38.2951 40.3777 31.5262 40.9265 28.498 40.9265H26.2764C26.2717 40.9265 26.2623 40.9267 26.2529 40.9314C26.2437 40.936 26.2342 40.9405 26.2295 40.9451C26.2248 40.9497 26.2195 40.9544 26.2148 40.9636C26.2102 40.9682 26.2109 40.9778 26.2109 40.9871C26.1703 42.4322 26.792 45.3038 27.4805 47.9998H20.0977C20.2454 45.5013 20.5058 42.791 20.9648 41.0017V40.9734C20.9602 40.9642 20.9558 40.9592 20.9512 40.95C20.9418 40.9406 20.9371 40.9361 20.9277 40.9314C20.9184 40.9267 20.9088 40.9265 20.8994 40.9265H20.1641C15.3781 40.9265 7.83594 40.2324 5.82031 33.7683C2.79246 24.1358 10.0246 20.6721 13.0527 23.447C13.062 23.4563 13.0759 23.4654 13.0898 23.4656C13.1039 23.4656 13.1187 23.4652 13.1328 23.4558C13.1465 23.4466 13.1555 23.4374 13.1602 23.4236C13.1648 23.4096 13.1648 23.3956 13.1602 23.3816C12.4945 21.4269 8.70293 9.13628 18.6357 5.75659ZM17.3789 35.7986H30.6826V28.8611H22.4229V26.2458H27.7812V23.5974H22.4229V20.9812H30.6826V14.0486H17.3789V35.7986Z" fill="#2D3315"/>
</g>
<defs>
<clipPath id="clip0_5831_82">
<rect width="48" height="48" fill="white"/>
</clipPath>
</defs>
</svg>
