<svg width="125" height="60" viewBox="0 0 125 60" fill="none" xmlns="http://www.w3.org/2000/svg">
<path d="M112.776 5.76018L115.055 19.8191H110.493L112.776 5.76018ZM125 30.3092L119.742 0.644576H105.81L100.552 30.3092H108.795L109.891 23.4738H115.674L116.762 30.3092H125ZM89.6434 30.3092H98.4051V0.644576H89.6434V30.3092ZM77.7694 13.9718C75.403 13.0748 74.9211 12.5532 74.9211 11.7369C74.9211 10.7041 75.7974 10.1453 77.6375 10.1453C80.179 10.1453 82.9829 11.0052 85.6993 12.0804V2.49373C83.8161 0.94572 80.4428 0 76.9806 0C70.9732 0 67.3856 2.83716 67.3856 7.8669C67.3856 12.2521 69.6633 14.3165 74.878 16.2079L76.8056 16.8961C78.9083 17.665 79.6096 18.2288 79.6096 19.1745C79.6096 19.905 79.1721 20.8084 76.9806 20.8084C73.9573 20.8084 70.3202 19.3463 67.8231 18.0135V28.7189C70.1896 29.9222 73.9142 30.9537 77.5944 30.9537C83.8631 30.9537 87.4519 28.3742 87.4519 22.8716C87.4519 19.131 85.9187 17.0242 80.0484 14.8317L77.7694 13.9718ZM58.6226 15.4762C58.6226 18.8734 57.2643 20.8507 54.1104 20.8507C50.9565 20.8507 49.597 18.8708 49.597 15.4762C49.597 12.0816 50.9552 10.1031 54.1104 10.1031C57.2657 10.1031 58.6226 12.0804 58.6226 15.4762ZM54.1104 0C44.9085 0 42.5826 6.96475 42.5826 15.4762C42.5826 24.0326 44.9046 30.9537 54.1065 30.9537C63.3084 30.9537 65.6291 24.0338 65.6291 15.4762C65.6291 6.96475 63.3071 0 54.1065 0H54.1104ZM32.8609 10.5323C35.4898 10.5323 37.4606 11.3012 40.2645 12.8108V3.05245C38.6438 1.28915 35.3579 0 32.0721 0C24.5353 0 20.5116 4.7286 20.5116 15.4762C20.5116 25.1936 23.7975 30.9537 32.1217 30.9537C35.3645 30.9537 38.6516 29.6646 40.271 27.859V18.1417C37.4671 19.6474 35.4964 20.4214 32.8674 20.4214C29.4053 20.4214 27.5221 19.2168 27.5221 15.4339C27.5221 11.6511 30.1066 10.5323 32.8674 10.5323H32.8609ZM18.5017 0.644576H0V30.3092H18.49V20.8507H7.01047V17.2818H14.4545V13.6707H7.01047V10.1031H18.49L18.5017 0.644576Z" fill="white"/>
<path d="M91.2917 48.8657C90.7584 48.7164 90.2251 48.6417 89.6917 48.6417C88.7317 48.6417 88.0064 48.9084 87.5157 49.4417C87.0464 49.975 86.8117 50.839 86.8117 52.0337V59.2657H82.7158V45.0897H86.8117V47.3297C87.0891 46.455 87.5158 45.8364 88.0918 45.4737C88.6678 45.0897 89.3504 44.8977 90.1397 44.8977C90.7157 44.8977 91.1637 44.983 91.4837 45.1537L91.2917 48.8657Z" fill="white"/>
<path d="M75.0977 59.5537C74.1164 59.5537 73.2417 59.3937 72.4737 59.0737C71.7057 58.7324 71.0444 58.2524 70.4897 57.6337C69.9564 57.015 69.5404 56.2684 69.2417 55.3937C68.9644 54.519 68.8257 53.5377 68.8257 52.4497V51.9057C68.8257 50.8177 68.9644 49.8364 69.2417 48.9617C69.5404 48.087 69.9457 47.3404 70.4577 46.7217C70.9911 46.103 71.6311 45.6337 72.3777 45.3137C73.1457 44.9724 73.9991 44.8017 74.9378 44.8017C76.9644 44.8017 78.4684 45.4417 79.4497 46.7217C80.4311 48.0017 80.9217 49.7297 80.9217 51.9057V53.0257H72.7617C72.7617 55.2444 73.5511 56.3537 75.1297 56.3537C76.4524 56.3537 77.1351 55.6177 77.1777 54.1457H80.8258C80.6978 55.831 80.1537 57.1537 79.1937 58.1137C78.2337 59.0737 76.8684 59.5537 75.0977 59.5537ZM77.0817 50.7537C77.0817 48.919 76.3671 48.0017 74.9378 48.0017C74.2551 48.0017 73.7217 48.2364 73.3377 48.7057C72.9537 49.175 72.7617 49.8577 72.7617 50.7537H77.0817Z" fill="white"/>
<path d="M59.871 54.5937C59.9137 55.2977 60.1483 55.8204 60.575 56.1617C61.0017 56.503 61.5563 56.6737 62.239 56.6737C62.7723 56.6737 63.199 56.5777 63.519 56.3857C63.839 56.1724 63.999 55.8524 63.999 55.4257C63.999 55.063 63.8817 54.7964 63.647 54.6257C63.4337 54.4337 63.0817 54.2737 62.591 54.1457L60.415 53.6017C59.2203 53.303 58.2923 52.823 57.631 52.1617C56.9697 51.5004 56.639 50.5404 56.639 49.2817C56.639 47.959 57.1083 46.8817 58.047 46.0497C59.007 45.2177 60.287 44.8017 61.887 44.8017C62.8043 44.8017 63.6043 44.9297 64.287 45.1857C64.991 45.4417 65.5777 45.7937 66.047 46.2417C66.5163 46.6897 66.8683 47.223 67.103 47.8417C67.3377 48.4604 67.455 49.1324 67.455 49.8577H63.999C63.999 49.2177 63.8283 48.695 63.487 48.2897C63.167 47.8844 62.6443 47.6817 61.919 47.6817C61.4283 47.6817 61.0337 47.7884 60.735 48.0017C60.4577 48.215 60.319 48.5244 60.319 48.9297C60.319 49.335 60.4363 49.6337 60.671 49.8257C60.927 49.9964 61.279 50.1564 61.727 50.3057L63.743 50.8497C65.0443 51.2124 66.0257 51.7137 66.687 52.3537C67.3697 52.9937 67.711 53.911 67.711 55.1057C67.711 56.5137 67.2203 57.6124 66.239 58.4017C65.279 59.1697 63.9457 59.5537 62.239 59.5537C60.511 59.5537 59.1137 59.127 58.047 58.2737C57.0017 57.4204 56.447 56.1937 56.383 54.5937H59.871Z" fill="white"/>
<path d="M50.4925 53.4417H50.6205L52.5725 45.0897H56.1565L52.5085 59.2657H48.8285L46.8765 50.4657H46.7485L44.7965 59.2657H41.1165L37.4685 45.0897H41.4365L43.3885 53.4417H43.5165L45.4045 45.0897H48.5725L50.4925 53.4417Z" fill="white"/>
<path d="M30.754 56.3857C31.522 56.3857 32.0767 56.087 32.418 55.4897C32.7807 54.8924 32.962 54.0817 32.962 53.0577V51.2977C32.962 50.2737 32.7807 49.463 32.418 48.8657C32.0767 48.2684 31.522 47.9697 30.754 47.9697C29.986 47.9697 29.4207 48.2684 29.058 48.8657C28.7167 49.463 28.546 50.2737 28.546 51.2977V53.0577C28.546 54.0817 28.7167 54.8924 29.058 55.4897C29.4207 56.087 29.986 56.3857 30.754 56.3857ZM30.754 59.5537C29.7727 59.5537 28.898 59.3937 28.13 59.0737C27.362 58.7324 26.7007 58.2524 26.146 57.6337C25.6127 57.015 25.1967 56.2684 24.898 55.3937C24.6207 54.519 24.482 53.5377 24.482 52.4497V51.9057C24.482 50.8177 24.6207 49.8364 24.898 48.9617C25.1967 48.087 25.6127 47.3404 26.146 46.7217C26.7007 46.103 27.362 45.6337 28.13 45.3137C28.898 44.9724 29.7727 44.8017 30.754 44.8017C31.7353 44.8017 32.61 44.9724 33.378 45.3137C34.146 45.6337 34.7967 46.103 35.33 46.7217C35.8847 47.3404 36.3007 48.087 36.578 48.9617C36.8767 49.8364 37.026 50.8177 37.026 51.9057V52.4497C37.026 53.5377 36.8767 54.519 36.578 55.3937C36.3007 56.2684 35.8847 57.015 35.33 57.6337C34.7967 58.2524 34.146 58.7324 33.378 59.0737C32.61 59.3937 31.7353 59.5537 30.754 59.5537Z" fill="white"/>
<path d="M23.8855 48.8657C23.3522 48.7164 22.8188 48.6417 22.2855 48.6417C21.3255 48.6417 20.6002 48.9084 20.1095 49.4417C19.6402 49.975 19.4055 50.839 19.4055 52.0337V59.2657H15.3095V45.0897H19.4055V47.3297C19.6828 46.455 20.1095 45.8364 20.6855 45.4737C21.2615 45.0897 21.9442 44.8977 22.7335 44.8977C23.3095 44.8977 23.7575 44.983 24.0775 45.1537L23.8855 48.8657Z" fill="white"/>
<path d="M13.536 53.6977C13.536 55.4684 12.9813 56.8444 11.872 57.8257C10.7627 58.7857 9.01333 59.2657 6.624 59.2657H0V39.1057H6.592C7.744 39.1057 8.72533 39.2337 9.536 39.4897C10.3467 39.7457 11.008 40.119 11.52 40.6097C12.032 41.079 12.4053 41.655 12.64 42.3377C12.8747 42.999 12.992 43.735 12.992 44.5457C12.992 45.7617 12.672 46.743 12.032 47.4897C11.4133 48.215 10.56 48.6737 9.472 48.8657C10.6667 49.079 11.6373 49.5804 12.384 50.3697C13.152 51.159 13.536 52.2684 13.536 53.6977ZM4.096 50.6577V55.8097H6.432C7.56267 55.8097 8.33067 55.5857 8.736 55.1377C9.16267 54.6897 9.376 54.0604 9.376 53.2497C9.376 52.4604 9.16267 51.831 8.736 51.3617C8.30933 50.8924 7.53067 50.6577 6.4 50.6577H4.096ZM4.096 47.3937H6.048C6.60267 47.3937 7.06133 47.3404 7.424 47.2337C7.78667 47.1057 8.064 46.935 8.256 46.7217C8.46933 46.5084 8.61867 46.263 8.704 45.9857C8.78933 45.687 8.832 45.367 8.832 45.0257C8.832 44.663 8.78933 44.3324 8.704 44.0337C8.61867 43.735 8.46933 43.479 8.256 43.2657C8.064 43.031 7.78667 42.8497 7.424 42.7217C7.06133 42.5937 6.60267 42.5297 6.048 42.5297H4.096V47.3937Z" fill="white"/>
</svg>
