<svg width="112" height="28" viewBox="0 0 112 28" fill="none" xmlns="http://www.w3.org/2000/svg">
<path d="M101.047 5.18507L103.089 17.8403H99.0019L101.047 5.18507ZM112 27.283L107.289 0.58022H94.8058L90.0947 27.283H97.4807L98.4625 21.1302H103.644L104.619 27.283H112ZM80.3204 27.283H88.171V0.58022H80.3204V27.283ZM69.6814 12.5768C67.5611 11.7694 67.1293 11.2999 67.1293 10.5651C67.1293 9.63535 67.9145 9.13241 69.5632 9.13241C71.8404 9.13241 74.3527 9.90642 76.7866 10.8742V2.24475C75.0992 0.851297 72.0767 0 68.9747 0C63.592 0 60.3775 2.55389 60.3775 7.08145C60.3775 11.0288 62.4183 12.8871 67.0907 14.5897L68.8179 15.2091C70.7018 15.9013 71.3302 16.4088 71.3302 17.2601C71.3302 17.9176 70.9382 18.7308 68.9747 18.7308C66.2658 18.7308 63.0069 17.4147 60.7695 16.215V25.8515C62.8899 26.9347 66.2271 27.8633 69.5246 27.8633C75.1414 27.8633 78.3569 25.5412 78.3569 20.588C78.3569 17.2209 76.9832 15.3245 71.7233 13.3508L69.6814 12.5768ZM52.5258 13.9311C52.5258 16.989 51.3089 18.7689 48.4829 18.7689C45.657 18.7689 44.4389 16.9867 44.4389 13.9311C44.4389 10.8754 45.6558 9.09435 48.4829 9.09435C51.31 9.09435 52.5258 10.8742 52.5258 13.9311ZM48.4829 0C40.238 0 38.154 6.26938 38.154 13.9311C38.154 21.6331 40.2345 27.8633 48.4794 27.8633C56.7243 27.8633 58.8037 21.6343 58.8037 13.9311C58.8037 6.26938 56.7232 0 48.4794 0H48.4829ZM29.4434 9.48077C31.7989 9.48077 33.5647 10.1729 36.077 11.5317V2.74768C34.6248 1.16044 31.6807 0 28.7366 0C21.9837 0 18.3784 4.25648 18.3784 13.9311C18.3784 22.6782 21.3225 27.8633 28.7811 27.8633C31.6866 27.8633 34.6318 26.7028 36.0828 25.0775V16.3304C33.5705 17.6858 31.8047 18.3825 29.4492 18.3825C26.3472 18.3825 24.6598 17.2982 24.6598 13.893C24.6598 10.4878 26.9755 9.48077 29.4492 9.48077H29.4434ZM16.5776 0.58022H0V27.283H16.567V18.7689H6.28138V15.5564H12.9512V12.3057H6.28138V9.09435H16.567L16.5776 0.58022Z" fill="#333333"/>
</svg>
