<svg width="24" height="24" viewBox="0 0 24 24" fill="none" xmlns="http://www.w3.org/2000/svg">
<path fill-rule="evenodd" clip-rule="evenodd" d="M1 12.0152C1 5.93167 5.85784 1 11.8503 1C17.8427 1 22.7006 5.93167 22.7006 12.0152C22.7006 18.0987 17.8427 23.0304 11.8503 23.0304C5.85784 23.0304 1 18.0987 1 12.0152ZM7.63682 11.9019C8.08246 11.7433 8.34682 11.2523 8.34682 10.7765C8.34682 9.93805 7.69724 9.40932 6.57936 9.40932H4.1472V14.5455H6.73042C7.88607 14.5455 8.57342 13.9715 8.57342 13.118C8.57342 12.5666 8.26374 12.0379 7.63682 11.9019ZM9.18524 9.18272V14.5455H10.4164V9.18272H9.18524ZM13.0752 10.784C11.912 10.784 11.0585 11.6073 11.0585 12.7101C11.0585 13.828 11.912 14.6437 13.0752 14.6437C14.2308 14.6437 15.0843 13.828 15.0843 12.7101C15.0843 11.6073 14.2308 10.784 13.0752 10.784ZM18.3398 10.8822V11.0635C18.0679 10.8898 17.7431 10.784 17.3352 10.784C16.3457 10.784 15.5149 11.5318 15.5149 12.6497C15.5149 13.6392 16.3457 14.4171 17.3352 14.4171C17.7431 14.4171 18.0679 14.3189 18.3398 14.1528V14.5909C18.3398 15.0894 18.015 15.3462 17.5996 15.3462C17.1464 15.3462 16.8896 15.1347 16.8292 14.7948H15.6206C15.6811 15.7465 16.4893 16.381 17.5996 16.381C18.7477 16.381 19.5634 15.7163 19.5634 14.5682V10.8822H18.3398ZM6.38297 10.4517C6.87393 10.4517 7.13075 10.6254 7.13075 10.9502C7.13075 11.2825 6.86638 11.5242 6.38297 11.5242H5.4237V10.4517H6.38297ZM6.56425 13.4881H5.4237V12.4533H6.58691C7.06277 12.4533 7.32713 12.6346 7.32713 12.9518C7.32713 13.2539 7.09298 13.4881 6.56425 13.4881ZM13.0752 13.624C12.554 13.624 12.2065 13.2388 12.2065 12.7177C12.2065 12.2116 12.554 11.8113 13.0752 11.8113C13.5888 11.8113 13.9363 12.2116 13.9363 12.7177C13.9363 13.2388 13.5888 13.624 13.0752 13.624ZM17.5845 13.4428C17.086 13.4428 16.7159 13.05 16.7159 12.6497C16.7159 12.1209 17.086 11.7886 17.5845 11.7886C17.8489 11.7886 18.1057 11.8641 18.3398 12.1285V13.0953C18.1057 13.3597 17.8489 13.4428 17.5845 13.4428Z" fill="currentColor"/>
</svg>
