<svg width="20" height="22" fill="none" xmlns="http://www.w3.org/2000/svg"><path fill-rule="evenodd" clip-rule="evenodd" d="M4 5.667v1.5H2.5a2.5 2.5 0 0 0-2.5 2.5v10.379c0 1.257 1.455 1.957 2.437 1.17l2.426-1.94a.5.5 0 0 1 .312-.11H13.5a2.5 2.5 0 0 0 2.5-2.5v-1.5h1.5a2.5 2.5 0 0 0 2.5-2.5V1.97C20 .771 18.665.057 17.668.721l-3.542 2.362a.5.5 0 0 1-.277.084H6.5a2.5 2.5 0 0 0-2.5 2.5Zm9.5 1.5H6v-1.5a.5.5 0 0 1 .5-.5h7.349a2.5 2.5 0 0 0 1.386-.42L18 2.904v9.762a.5.5 0 0 1-.5.5H16v-3.5a2.5 2.5 0 0 0-2.5-2.5Zm-8.5 5a1 1 0 1 0 0 2h6a1 1 0 1 0 0-2H5Z" fill="currentColor"/></svg>
