<svg width="24" height="24" viewBox="0 0 20 20" fill="none" xmlns="http://www.w3.org/2000/svg">
<path d="M9.99984 18.3332C14.6022 18.3332 18.3332 14.6022 18.3332 9.99984C18.3332 8.61815 17.9969 7.315 17.4018 6.16776C17.2771 5.92746 16.9565 5.88837 16.7651 6.07978L10.345 12.4998C9.69414 13.1507 8.63887 13.1507 7.98799 12.4998L5.66058 10.1724C5.33514 9.84699 5.33514 9.31935 5.66058 8.99392C5.98602 8.66848 6.51366 8.66848 6.83909 8.99392L9.1665 11.3213L15.851 4.64156C16.009 4.48362 16.0151 4.22829 15.8562 4.07126C14.3511 2.58441 12.2826 1.6665 9.99984 1.6665C5.39746 1.6665 1.6665 5.39746 1.6665 9.99984C1.6665 14.6022 5.39746 18.3332 9.99984 18.3332Z" fill="currentColor"/>
</svg>
