<svg width="24" height="24" viewBox="0 0 24 24" fill="none" xmlns="http://www.w3.org/2000/svg">
<circle cx="12" cy="12" r="10" fill="#A4D24F"/>
<path d="M9.5 15.2727V8H12.2841C12.8097 8 13.2464 8.08286 13.5945 8.24858C13.9448 8.41193 14.2064 8.63565 14.3793 8.91974C14.5545 9.20384 14.642 9.5258 14.642 9.88565C14.642 10.1816 14.5852 10.4349 14.4716 10.6456C14.358 10.8539 14.2053 11.0232 14.0135 11.1534C13.8217 11.2836 13.6075 11.3771 13.3707 11.4339V11.505C13.6288 11.5192 13.8762 11.5985 14.1129 11.7429C14.352 11.8849 14.5473 12.0862 14.6989 12.3466C14.8504 12.607 14.9261 12.9219 14.9261 13.2912C14.9261 13.6676 14.835 14.0062 14.6527 14.3068C14.4704 14.6051 14.1958 14.8407 13.8288 15.0135C13.4619 15.1863 13.0002 15.2727 12.4439 15.2727H9.5ZM10.8175 14.1719H12.2344C12.7126 14.1719 13.0571 14.0807 13.2678 13.8984C13.4808 13.7138 13.5874 13.477 13.5874 13.1882C13.5874 12.9728 13.5341 12.7786 13.4276 12.6058C13.321 12.4306 13.1695 12.2933 12.973 12.1939C12.7765 12.0921 12.5421 12.0412 12.2699 12.0412H10.8175V14.1719ZM10.8175 11.093H12.1207C12.348 11.093 12.5528 11.0516 12.7351 10.9688C12.9174 10.8835 13.0606 10.764 13.1648 10.6101C13.2713 10.4538 13.3246 10.2692 13.3246 10.0561C13.3246 9.77438 13.2251 9.54238 13.0263 9.36009C12.8298 9.17779 12.5374 9.08665 12.1491 9.08665H10.8175V11.093Z" fill="black"/>
</svg>
