<svg width="24" height="24" viewBox="0 0 24 24" fill="none" xmlns="http://www.w3.org/2000/svg">
<path fill-rule="evenodd" clip-rule="evenodd" d="M15 2C12.1098 2 9.63043 3.75082 8.56161 6.24899C8.0698 6.0874 7.54465 6 7 6C4.23858 6 2 8.23858 2 11C2 12.852 3.00738 14.4675 4.49927 15.3305C4.97733 15.607 5.58906 15.4437 5.86561 14.9656C6.14215 14.4875 5.97879 13.8758 5.50073 13.5993C4.60141 13.079 4 12.1092 4 11C4 9.34315 5.34315 8 7 8C7.59724 8 8.15091 8.17349 8.61697 8.47248C8.8904 8.64789 9.23199 8.67955 9.533 8.55738C9.83401 8.43522 10.0569 8.17445 10.1308 7.8581C10.647 5.64655 12.6324 4 15 4C17.7614 4 20 6.23858 20 9C20 10.4807 19.3576 11.8101 18.3331 12.7271C17.9216 13.0954 17.8865 13.7276 18.2549 14.1391C18.6232 14.5507 19.2554 14.5857 19.6669 14.2173C21.0974 12.937 22 11.0733 22 9C22 5.13401 18.866 2 15 2ZM8.29289 15.7071C8.68342 16.0976 9.31658 16.0976 9.70711 15.7071L11 14.4142V20C11 20.5523 11.4477 21 12 21C12.5523 21 13 20.5523 13 20V14.4142L14.2929 15.7071C14.6834 16.0976 15.3166 16.0976 15.7071 15.7071C16.0976 15.3166 16.0976 14.6834 15.7071 14.2929L12.7071 11.2929C12.6112 11.197 12.5007 11.1247 12.3828 11.0759C12.2657 11.0273 12.1375 11.0004 12.003 11L12 11L11.997 11C11.7421 11.0008 11.4874 11.0984 11.2929 11.2929L8.29289 14.2929C7.90237 14.6834 7.90237 15.3166 8.29289 15.7071Z" fill="currentColor"/>
</svg>
