<svg width="24" height="24" viewBox="0 0 24 24" fill="none" xmlns="http://www.w3.org/2000/svg">
<path d="M9.70184 4.44884C13.8304 2.69028 17.574 2.90296 19.4206 3.20013C19.5249 3.21693 19.5966 3.31161 19.585 3.41669C19.2479 6.46047 18.7978 11.7742 14.5995 15.1698C11.8599 17.3856 7.43207 16.6552 6.5132 16.473C6.414 16.4533 6.31718 16.5081 6.28469 16.6039C6.17362 16.9313 5.93842 17.6729 5.89049 18.2134C5.80686 19.1565 5.98109 20.0715 6.22043 20.709C6.27204 20.8465 6.17375 21 6.02693 21H4.16963C4.07721 21 3.99721 20.9377 3.97723 20.8475C3.87222 20.3732 3.57176 18.9006 3.66655 17.9711C3.81398 16.5254 4.26552 15.5143 4.69364 14.5903C4.70442 14.5671 4.71057 14.543 4.71182 14.5174C4.84191 11.854 4.50679 6.66169 9.70184 4.44884Z" fill="var(--color-green-leaf-icon-color-bottom)" class="bottom"/>
<path d="M19.4375 3.20288C16.6701 4.87742 14.0569 7.44032 11.7444 9.70842C8.83489 12.562 6.40121 14.9489 4.7347 14.5128C4.7347 14.5128 4.72726 14.4998 4.71375 14.4747C4.72412 14.2519 4.73153 14.0121 4.73936 13.7582C4.82568 10.9621 4.96446 6.4667 9.70173 4.44884C13.843 2.68486 17.5969 2.90429 19.4375 3.20288Z" fill="var(--color-green-leaf-icon-color-top)" class="top"/>
</svg>
