<svg width="24" height="24" viewBox="0 0 24 24" fill="none" xmlns="http://www.w3.org/2000/svg">
<path fill-rule="evenodd" clip-rule="evenodd" d="M1 12C1 5.92487 5.92487 1 12 1C18.0751 1 23 5.92487 23 12C23 18.0751 18.0751 23 12 23C5.92487 23 1 18.0751 1 12ZM12.0005 6.13333C10.4072 6.13333 10.2073 6.1403 9.5815 6.16878C8.95694 6.19738 8.53062 6.29626 8.1576 6.44134C7.77174 6.59118 7.44442 6.79163 7.11833 7.11784C6.792 7.44394 6.59155 7.77125 6.44121 8.15699C6.29577 8.53014 6.19677 8.95657 6.16866 9.58089C6.14067 10.2067 6.13333 10.4068 6.13333 12.0001C6.13333 13.5934 6.14042 13.7927 6.16878 14.4185C6.1975 15.0431 6.29638 15.4694 6.44134 15.8424C6.5913 16.2283 6.79175 16.5556 7.11797 16.8817C7.44394 17.208 7.77125 17.4089 8.15687 17.5588C8.53014 17.7039 8.95657 17.8027 9.58101 17.8313C10.2068 17.8598 10.4066 17.8668 11.9998 17.8668C13.5932 17.8668 13.7926 17.8598 14.4184 17.8313C15.0429 17.8027 15.4697 17.7039 15.843 17.5588C16.2287 17.4089 16.5556 17.208 16.8815 16.8817C17.2079 16.5556 17.4083 16.2283 17.5587 15.8425C17.7029 15.4694 17.8019 15.0429 17.8312 14.4186C17.8593 13.7928 17.8667 13.5934 17.8667 12.0001C17.8667 10.4068 17.8593 10.2068 17.8312 9.58101C17.8019 8.95645 17.7029 8.53014 17.5587 8.15711C17.4083 7.77125 17.2079 7.44394 16.8815 7.11784C16.5552 6.79151 16.2289 6.59106 15.8426 6.44134C15.4686 6.29626 15.0421 6.19738 14.4175 6.16878C13.7917 6.1403 13.5925 6.13333 11.9987 6.13333H12.0005ZM11.4743 7.19057C11.6305 7.19032 11.8047 7.19057 12.0005 7.19057C13.567 7.19057 13.7526 7.19619 14.3712 7.2243C14.9432 7.25046 15.2536 7.34603 15.4605 7.42634C15.7342 7.53267 15.9294 7.65978 16.1346 7.86512C16.34 8.07045 16.4671 8.26601 16.5737 8.53979C16.654 8.74635 16.7497 9.0568 16.7757 9.6288C16.8038 10.2473 16.8099 10.433 16.8099 11.9987C16.8099 13.5644 16.8038 13.7502 16.7757 14.3686C16.7495 14.9406 16.654 15.2511 16.5737 15.4576C16.4673 15.7314 16.34 15.9264 16.1346 16.1316C15.9293 16.3369 15.7344 16.464 15.4605 16.5704C15.2539 16.651 14.9432 16.7464 14.3712 16.7725C13.7527 16.8006 13.567 16.8067 12.0005 16.8067C10.434 16.8067 10.2484 16.8006 9.6299 16.7725C9.0579 16.7461 8.74745 16.6505 8.54052 16.5702C8.26674 16.4639 8.07119 16.3368 7.86585 16.1315C7.66052 15.9261 7.5334 15.7311 7.42682 15.4572C7.34652 15.2506 7.25082 14.9401 7.22479 14.3681C7.19668 13.7497 7.19106 13.5639 7.19106 11.9972C7.19106 10.4306 7.19668 10.2458 7.22479 9.62734C7.25094 9.05533 7.34652 8.74488 7.42682 8.53808C7.53316 8.2643 7.66052 8.06874 7.86585 7.86341C8.07119 7.65807 8.26674 7.53096 8.54052 7.42438C8.74733 7.34371 9.0579 7.24838 9.6299 7.2221C10.1711 7.19766 10.3808 7.19032 11.4743 7.1891V7.19057ZM15.1322 8.16469C14.7435 8.16469 14.4282 8.47966 14.4282 8.86845C14.4282 9.25712 14.7435 9.57246 15.1322 9.57246C15.5208 9.57246 15.8362 9.25712 15.8362 8.86845C15.8362 8.47978 15.5208 8.16444 15.1322 8.16444V8.16469ZM12.0006 8.98725C10.3367 8.98725 8.98774 10.3362 8.98774 12.0001C8.98774 13.6639 10.3367 15.0123 12.0006 15.0123C13.6644 15.0123 15.0129 13.6639 15.0129 12.0001C15.0129 10.3362 13.6643 8.98725 12.0004 8.98725H12.0006ZM12.0006 10.0445C13.0805 10.0445 13.9561 10.92 13.9561 12.0001C13.9561 13.08 13.0805 13.9556 12.0006 13.9556C10.9205 13.9556 10.045 13.08 10.045 12.0001C10.045 10.92 10.9205 10.0445 12.0006 10.0445Z" fill="currentColor"/>
</svg>
