<svg width="24" height="24" viewBox="0 0 24 24" fill="none" xmlns="http://www.w3.org/2000/svg">
<path fill-rule="evenodd" clip-rule="evenodd" d="M12 23C5.92487 23 1 18.0751 1 12C1 5.92487 5.92487 1 12 1C18.0751 1 23 5.92487 23 12C23 18.0751 18.0751 23 12 23ZM7.7148 9.16101C8.47209 9.16101 9.08601 8.60114 9.08601 7.90975C9.08601 7.21774 8.47209 6.65714 7.7148 6.65714C6.95678 6.65714 6.34286 7.21774 6.34286 7.90975C6.34286 8.60114 6.95678 9.16101 7.7148 9.16101ZM6.65714 17.2101H9.11748V10.1143H6.65714V17.2101ZM12.5706 13.2636C12.5706 12.4498 12.9556 11.6541 13.8762 11.6541C14.7967 11.6541 15.0231 12.4498 15.0231 13.2441V17.1195H17.4724V13.0857C17.4724 10.2832 15.8158 9.8 14.7967 9.8C13.7785 9.8 13.2169 10.1444 12.5706 10.979V10.0237H10.1143V17.1195H12.5706V13.2636Z" fill="currentColor"/>
</svg>
