<svg width="24" height="24" viewBox="0 0 24 24" fill="none" xmlns="http://www.w3.org/2000/svg">
<path fill-rule="evenodd" clip-rule="evenodd" d="M4.05025 6.74527C5.48544 6.74527 6.64892 5.68422 6.64892 4.37391C6.64892 3.06244 5.48544 2 4.05025 2C2.61368 2 1.4502 3.06244 1.4502 4.37391C1.4502 5.68422 2.61368 6.74527 4.05025 6.74527Z" fill="currentColor"/>
<path fill-rule="evenodd" clip-rule="evenodd" d="M2.04639 22H6.70912V8.55212H2.04639V22Z" fill="currentColor"/>
<path fill-rule="evenodd" clip-rule="evenodd" d="M13.2532 14.5206C13.2532 12.9784 13.9829 11.4703 15.7275 11.4703C17.4722 11.4703 17.9011 12.9784 17.9011 14.4838V21.8283H22.543V14.1835C22.543 8.87221 19.4035 7.95654 17.4722 7.95654C15.5424 7.95654 14.4781 8.60926 13.2532 10.1909V8.38041H8.59814V21.8283H13.2532V14.5206Z" fill="currentColor"/>
</svg>
