<svg width="24" height="24" viewBox="0 0 24 24" fill="none" xmlns="http://www.w3.org/2000/svg">
<path d="M12 1C18.0751 1 23 5.92487 23 12C23 18.0751 18.0751 23 12 23C5.92487 23 1 18.0751 1 12C1 5.92487 5.92487 1 12 1ZM11.9825 6.26367C10.4749 6.276 9.02372 6.43955 8.17847 6.82764C8.15287 6.83924 6.50273 7.59776 6.50269 10.1362C6.50269 10.722 6.49086 11.4224 6.5094 12.1652C6.57027 14.6671 6.96898 17.1335 9.28223 17.7457C10.3483 18.0278 11.2641 18.087 12.0013 18.0465C13.3265 17.973 14.0759 17.5756 14.0894 17.5685L14.0464 16.599C14.0464 16.599 13.0894 16.9002 12.0161 16.8635C10.9528 16.827 9.8302 16.7483 9.6582 15.4429C9.64233 15.3282 9.63403 15.205 9.63403 15.0763C9.65401 15.0812 10.6913 15.3331 12.0013 15.3932C12.8102 15.4303 13.57 15.3455 14.3405 15.2535C15.8177 15.0769 17.1045 14.1664 17.2664 13.3347C17.5209 12.0252 17.5 10.1392 17.5 10.1362C17.5 7.59629 15.8466 6.83839 15.8229 6.82764C14.9777 6.43971 13.5261 6.27602 12.0188 6.26367H11.9825ZM13.7241 8.26306C14.2662 8.26327 14.7036 8.45398 15.0374 8.82568C15.361 9.19789 15.5221 9.70193 15.5221 10.335V13.4327H14.2948V10.4263C14.2948 9.79258 14.0277 9.47034 13.4945 9.47021C12.9052 9.47047 12.6097 9.85209 12.6096 10.6062V12.2524H11.389V10.6062C11.3889 9.85197 11.0936 9.47035 10.5042 9.47021C9.97081 9.47026 9.70386 9.7925 9.70386 10.4263V13.4327H8.47656V10.335C8.47656 9.70185 8.6375 9.1979 8.9613 8.82568C9.29518 8.45362 9.73318 8.26307 10.2759 8.26306C10.9038 8.26314 11.3794 8.5054 11.6938 8.98816L12 9.49976L12.3048 8.98816C12.6192 8.50541 13.0961 8.26306 13.7241 8.26306Z" fill="currentColor"/>
</svg>
