<svg width="24" height="24" viewBox="0 0 36 36" fill="none" xmlns="http://www.w3.org/2000/svg">
<path fill-rule="evenodd" clip-rule="evenodd" d="M28.5 16.5H13.5C12.6716 16.5 12 17.1716 12 18V24C12 24.8284 12.6716 25.5 13.5 25.5H28.5C29.3284 25.5 30 24.8284 30 24V18C30 17.1716 29.3284 16.5 28.5 16.5ZM13.5 13.5C11.0147 13.5 9 15.5147 9 18V24C9 26.4853 11.0147 28.5 13.5 28.5H28.5C30.9853 28.5 33 26.4853 33 24V18C33 15.5147 30.9853 13.5 28.5 13.5H13.5Z" fill="currentColor"/>
<path fill-rule="evenodd" clip-rule="evenodd" d="M7.5 10.5H22.5C23.3284 10.5 24 11.1716 24 12V13.5H27V12C27 9.51472 24.9853 7.5 22.5 7.5H7.5C5.01472 7.5 3 9.51472 3 12V18C3 20.4853 5.01472 22.5 7.5 22.5H9V19.5H7.5C6.67157 19.5 6 18.8284 6 18V12C6 11.1716 6.67157 10.5 7.5 10.5Z" fill="currentColor"/>
<path fill-rule="evenodd" clip-rule="evenodd" d="M21 24C22.6569 24 24 22.6569 24 21C24 19.3431 22.6569 18 21 18C19.3431 18 18 19.3431 18 21C18 22.6569 19.3431 24 21 24Z" fill="currentColor"/>
<path d="M16.5 21C16.5 21.8284 15.8284 22.5 15 22.5C14.1716 22.5 13.5 21.8284 13.5 21C13.5 20.1716 14.1716 19.5 15 19.5C15.8284 19.5 16.5 20.1716 16.5 21Z" fill="currentColor"/>
<path d="M28.5 21C28.5 21.8284 27.8284 22.5 27 22.5C26.1716 22.5 25.5 21.8284 25.5 21C25.5 20.1716 26.1716 19.5 27 19.5C27.8284 19.5 28.5 20.1716 28.5 21Z" fill="currentColor"/>
</svg>
