<svg width="24" height="24" fill="none" xmlns="http://www.w3.org/2000/svg"><path d="M11.994 15.368c-.419 0-.77-.351-.77-.76V4.596l.059-1.462-.663.692-1.472 1.579a.732.732 0 0 1-.536.234c-.41 0-.702-.293-.702-.692a.68.68 0 0 1 .224-.507l3.295-3.178c.204-.195.37-.263.565-.263.205 0 .37.068.566.263l3.294 3.178c.146.146.234.302.234.507 0 .4-.312.692-.712.692a.696.696 0 0 1-.526-.234l-1.482-1.58-.653-.691.059 1.462v10.01c0 .41-.36.76-.78.76ZM6.41 23c-2.037 0-3.06-1.014-3.06-3.022V10.25c0-2.008 1.023-3.021 3.06-3.021h2.72v1.569h-2.7c-.975 0-1.512.526-1.512 1.54v9.553c0 1.013.537 1.54 1.511 1.54H17.56c.965 0 1.52-.527 1.52-1.54v-9.553c0-1.014-.555-1.54-1.52-1.54h-2.69v-1.57h2.72c2.036 0 3.06 1.014 3.06 3.022v9.728c0 2.008-1.024 3.022-3.06 3.022H6.408Z" fill="currentColor"/></svg>
