<svg width="24" height="24" viewBox="0 0 24 24" fill="none" xmlns="http://www.w3.org/2000/svg">
<path fill-rule="evenodd" clip-rule="evenodd" d="M15.81 14.3925C16.0441 14.2154 16.2524 14.0038 16.4271 13.7633C16.7995 13.2508 17 12.6335 17 12C17 11.3664 16.7995 10.7492 16.4271 10.2366C16.2523 9.99607 16.0439 9.78438 15.8096 9.6072C15.7526 9.56409 15.6979 9.51731 15.6462 9.46739C15.5989 9.42162 15.554 9.37322 15.5123 9.32259C15.2477 9.00149 15.1078 8.59076 15.2361 8.19576C15.4068 7.6705 15.9782 7.37483 16.4591 7.64646C16.6528 7.75587 16.8388 7.87801 17.016 8.012M17.016 8.012C17.4063 8.30723 17.7539 8.66022 18.0451 9.06106C18.6658 9.91529 19 10.9441 19 12C19 13.0559 18.6658 14.0847 18.0451 14.9389C17.7538 15.3398 17.4064 15.6927 17.016 15.988C16.8388 16.122 16.6528 16.2441 16.4591 16.3535C15.9782 16.6251 15.4068 16.3295 15.2361 15.8042C15.1078 15.4092 15.2477 14.9985 15.5123 14.6774C15.554 14.6267 15.5989 14.5783 15.6462 14.5326C15.6979 14.4827 15.753 14.4356 15.81 14.3925" fill="currentColor"/>
<path fill-rule="evenodd" clip-rule="evenodd" d="M17.8874 17.2596C18.6587 16.8362 19.3315 16.246 19.854 15.5268C20.5988 14.5017 20.9999 13.2671 20.9999 12.0001C20.9999 10.733 20.5988 9.49844 19.854 8.47335C19.3063 7.71944 18.5933 7.10727 17.775 6.68039C17.7738 6.67972 17.7725 6.67906 17.7712 6.67839C17.7358 6.65974 17.7013 6.63951 17.6681 6.61782C17.6319 6.59427 17.5971 6.569 17.5638 6.54218C17.2062 6.25418 17.0187 5.78705 17.1631 5.34267C17.3337 4.81741 17.9015 4.52437 18.4014 4.75919C18.5021 4.80648 18.6016 4.85582 18.7001 4.90717C19.7911 5.47632 20.7417 6.29252 21.4721 7.29778C22.4651 8.66456 22.9999 10.3106 22.9999 12.0001C22.9999 13.6895 22.4651 15.3356 21.4721 16.7023C20.7417 17.7076 19.7911 18.5238 18.7001 19.093C18.6016 19.1443 18.5021 19.1936 18.4014 19.2409C17.9015 19.4758 17.3337 19.1827 17.1631 18.6575C17.0187 18.2131 17.2062 17.7459 17.5638 17.4579C17.5971 17.4311 17.6319 17.4059 17.6681 17.3823C17.7013 17.3606 17.7358 17.3404 17.7712 17.3217C17.7725 17.3211 17.7738 17.3204 17.775 17.3197C17.8127 17.3001 17.8502 17.28 17.8874 17.2596Z" fill="currentColor"/>
<path fill-rule="evenodd" clip-rule="evenodd" d="M6 14.9999C6.48445 14.9999 6.95243 15.1758 7.31701 15.4948L12 19.5924L12 4.40746L7.31701 8.50507C6.95243 8.82408 6.48445 8.99992 6 8.99992H4C3.44772 8.99992 3 9.44764 3 9.99992V13.9999C3 14.5522 3.44772 14.9999 4 14.9999H6ZM6 16.9999L10.683 21.0975C11.9762 22.2291 14 21.3107 14 19.5924V4.40746C14 2.68914 11.9762 1.77078 10.683 2.9023L6 6.99992H4C2.34315 6.99992 1 8.34307 1 9.99992V13.9999C1 15.6568 2.34315 16.9999 4 16.9999H6Z" fill="currentColor"/>
</svg>
