<svg width="24" height="24" viewBox="0 0 24 24" fill="none" xmlns="http://www.w3.org/2000/svg">
<path fill-rule="evenodd" clip-rule="evenodd" d="M12 20.9631C16.9502 20.9631 20.9631 16.9502 20.9631 12C20.9631 7.12063 17.06 3.14027 12.1899 3.03884C12.0951 3.0372 12.0951 3.0372 12 3.03687C7.04979 3.03687 3.03687 7.04979 3.03687 12C3.03687 12.5523 3.48458 13 4.03687 13C4.58915 13 5.03687 12.5523 5.03687 12C5.03687 8.15436 8.15436 5.03687 12 5.03687C12.0742 5.03712 12.0742 5.03712 12.1482 5.03841C15.9308 5.11719 18.9631 8.20951 18.9631 12C18.9631 15.8456 15.8456 18.9631 12 18.9631C11.4477 18.9631 11 19.4108 11 19.9631C11 20.5154 11.4477 20.9631 12 20.9631Z" fill="currentColor"/>
</svg>
