<svg width="24" height="24" viewBox="0 0 24 24" fill="none" xmlns="http://www.w3.org/2000/svg">
<path fill-rule="evenodd" clip-rule="evenodd" d="M1 12C1 5.92487 5.92487 1 12 1C14.9174 1 17.7153 2.15893 19.7782 4.22183C21.8411 6.28473 23 9.08262 23 12C23 18.0751 18.0751 23 12 23C5.92487 23 1 18.0751 1 12ZM17.5822 9.08731V8.61374C16.9999 8.61462 16.4291 8.45169 15.9351 8.14347C15.1994 7.68463 14.6693 6.92765 14.5139 6.04166C14.4991 5.95698 14.4877 5.87175 14.4798 5.78619V5.5H12.2406V14.3872C12.237 15.4231 11.3958 16.262 10.3583 16.262C10.0538 16.262 9.76615 16.1897 9.51148 16.0613C8.89728 15.7515 8.47608 15.1154 8.47608 14.3808C8.47608 13.3419 9.31871 12.4995 10.3583 12.4995C10.5575 12.4995 10.7495 12.5305 10.9296 12.5876L10.9297 10.817V10.3129C10.7426 10.2873 10.5539 10.2745 10.3651 10.2746C8.09234 10.2745 6.25 12.1159 6.25 14.3872C6.25 15.811 6.97426 17.0662 8.07431 17.8044C8.72899 18.2438 9.51711 18.5001 10.365 18.5001C12.6376 18.5001 14.4799 16.6587 14.4799 14.3873V9.84656C15.3545 10.4712 16.4254 10.8388 17.5822 10.8388L17.5822 9.08731Z" fill="currentColor"/>
</svg>
