<svg width="24" height="24" viewBox="0 0 24 24" fill="none" xmlns="http://www.w3.org/2000/svg">
<path fill-rule="evenodd" clip-rule="evenodd" d="M1 12C1 5.92487 5.92487 1 12 1C18.0751 1 23 5.92487 23 12C23 18.0751 18.0751 23 12 23C5.92487 23 1 18.0751 1 12ZM11.6706 9.94094L11.6936 10.3216L11.3089 10.275C9.90856 10.0963 8.68517 9.4904 7.64645 8.47281L7.13862 7.9679L7.00782 8.34076C6.73083 9.17192 6.9078 10.0497 7.48487 10.64C7.79264 10.9663 7.72339 11.0129 7.19248 10.8187C7.00782 10.7566 6.84624 10.71 6.83085 10.7333C6.77699 10.7876 6.96166 11.4945 7.10785 11.7742C7.3079 12.1625 7.71569 12.5432 8.16196 12.7684L8.53898 12.9471L8.09271 12.9549C7.66184 12.9549 7.64645 12.9626 7.69261 13.1258C7.8465 13.6307 8.45435 14.1666 9.13144 14.3997L9.60849 14.5628L9.193 14.8114C8.57745 15.1687 7.85419 15.3707 7.13093 15.3862C6.78469 15.394 6.5 15.425 6.5 15.4483C6.5 15.526 7.4387 15.961 7.98499 16.1319C9.62387 16.6368 11.5705 16.4193 13.0324 15.5571C14.0712 14.9434 15.1099 13.7239 15.5946 12.5432C15.8562 11.914 16.1178 10.7643 16.1178 10.2128C16.1178 9.85549 16.1409 9.80888 16.5718 9.38165C16.8257 9.13308 17.0642 8.86121 17.1104 8.78353C17.1873 8.63594 17.1797 8.63594 16.7872 8.76799C16.1332 9.00103 16.0409 8.96996 16.3641 8.6204C16.6026 8.37183 16.8873 7.9213 16.8873 7.78924C16.8873 7.76594 16.7719 7.80478 16.6411 7.87469C16.5026 7.95237 16.1948 8.06888 15.964 8.1388L15.5485 8.27085L15.1714 8.01451C14.9637 7.87469 14.6713 7.71933 14.5174 7.67272C14.125 7.56397 13.5249 7.57951 13.1709 7.7038C12.2092 8.05335 11.6013 8.95442 11.6706 9.94094Z" fill="currentColor"/>
</svg>
